G04 EAGLE Gerber RS-274X export*
G75*
%MOMM*%
%FSLAX34Y34*%
%LPD*%
%INBottom Copper*%
%IPPOS*%
%AMOC8*
5,1,8,0,0,1.08239X$1,22.5*%
G01*
%ADD10R,1.520000X1.780000*%
%ADD11R,1.803000X1.600000*%
%ADD12R,1.600000X1.803000*%
%ADD13C,1.408000*%
%ADD14C,1.930400*%
%ADD15C,2.000000*%
%ADD16R,1.524000X1.524000*%
%ADD17C,1.524000*%
%ADD18C,1.700000*%
%ADD19R,0.600000X2.200000*%
%ADD20C,0.609600*%
%ADD21C,1.270000*%
%ADD22C,0.406400*%
%ADD23C,0.304800*%
%ADD24C,0.756400*%
%ADD25C,0.203200*%
%ADD26R,1.006400X1.006400*%
%ADD27C,0.711200*%
%ADD28C,2.032000*%
%ADD29C,0.254000*%
%ADD30C,1.422400*%

G36*
X411529Y10166D02*
X411529Y10166D01*
X411594Y10164D01*
X415348Y10375D01*
X415353Y10375D01*
X415357Y10375D01*
X415686Y10422D01*
X423006Y12093D01*
X423064Y12113D01*
X423125Y12124D01*
X423308Y12195D01*
X423387Y12221D01*
X423408Y12233D01*
X423435Y12243D01*
X430199Y15501D01*
X430252Y15533D01*
X430309Y15558D01*
X430472Y15667D01*
X430543Y15711D01*
X430560Y15727D01*
X430584Y15743D01*
X436454Y20424D01*
X436499Y20467D01*
X436549Y20504D01*
X436683Y20647D01*
X436743Y20705D01*
X436756Y20724D01*
X436776Y20746D01*
X441457Y26616D01*
X441491Y26668D01*
X441531Y26714D01*
X441630Y26884D01*
X441676Y26954D01*
X441684Y26975D01*
X441699Y27001D01*
X444957Y33765D01*
X444978Y33823D01*
X445007Y33878D01*
X445066Y34065D01*
X445095Y34143D01*
X445098Y34167D01*
X445107Y34194D01*
X446778Y41514D01*
X446778Y41519D01*
X446780Y41524D01*
X446825Y41852D01*
X447036Y45606D01*
X447034Y45655D01*
X447039Y45720D01*
X447039Y299720D01*
X447037Y299738D01*
X447039Y299756D01*
X447018Y299938D01*
X446999Y300121D01*
X446994Y300138D01*
X446992Y300155D01*
X446935Y300330D01*
X446881Y300506D01*
X446873Y300521D01*
X446867Y300538D01*
X446777Y300698D01*
X446689Y300860D01*
X446678Y300873D01*
X446669Y300889D01*
X446549Y301028D01*
X446432Y301169D01*
X446418Y301180D01*
X446406Y301194D01*
X446261Y301306D01*
X446118Y301421D01*
X446102Y301429D01*
X446088Y301440D01*
X445923Y301522D01*
X445761Y301607D01*
X445744Y301612D01*
X445728Y301620D01*
X445549Y301667D01*
X445374Y301718D01*
X445356Y301720D01*
X445339Y301724D01*
X445008Y301751D01*
X370840Y301751D01*
X370813Y301749D01*
X370787Y301751D01*
X370613Y301729D01*
X370439Y301711D01*
X370414Y301704D01*
X370387Y301700D01*
X370222Y301645D01*
X370054Y301593D01*
X370031Y301580D01*
X370006Y301572D01*
X369854Y301485D01*
X369700Y301401D01*
X369680Y301384D01*
X369657Y301371D01*
X369404Y301156D01*
X354164Y285916D01*
X354147Y285896D01*
X354127Y285878D01*
X354019Y285740D01*
X353909Y285605D01*
X353896Y285581D01*
X353880Y285560D01*
X353802Y285403D01*
X353720Y285249D01*
X353712Y285224D01*
X353700Y285200D01*
X353655Y285029D01*
X353605Y284863D01*
X353603Y284837D01*
X353596Y284811D01*
X353569Y284480D01*
X353569Y117681D01*
X334439Y98551D01*
X270081Y98551D01*
X250951Y117681D01*
X250951Y127000D01*
X250949Y127027D01*
X250951Y127053D01*
X250929Y127227D01*
X250911Y127401D01*
X250904Y127426D01*
X250900Y127453D01*
X250845Y127618D01*
X250793Y127786D01*
X250780Y127809D01*
X250772Y127834D01*
X250685Y127986D01*
X250601Y128140D01*
X250584Y128160D01*
X250571Y128183D01*
X250356Y128436D01*
X224956Y153836D01*
X224936Y153853D01*
X224918Y153874D01*
X224780Y153981D01*
X224645Y154091D01*
X224621Y154104D01*
X224600Y154120D01*
X224443Y154198D01*
X224289Y154280D01*
X224264Y154288D01*
X224240Y154300D01*
X224070Y154345D01*
X223903Y154395D01*
X223877Y154397D01*
X223851Y154404D01*
X223520Y154431D01*
X184911Y154431D01*
X184911Y203200D01*
X184909Y203227D01*
X184911Y203253D01*
X184889Y203427D01*
X184871Y203601D01*
X184864Y203626D01*
X184860Y203653D01*
X184805Y203818D01*
X184753Y203986D01*
X184740Y204009D01*
X184732Y204034D01*
X184645Y204186D01*
X184561Y204340D01*
X184544Y204360D01*
X184531Y204383D01*
X184316Y204636D01*
X154431Y234521D01*
X154431Y320040D01*
X154429Y320067D01*
X154431Y320093D01*
X154409Y320267D01*
X154391Y320441D01*
X154384Y320466D01*
X154380Y320493D01*
X154325Y320658D01*
X154273Y320826D01*
X154260Y320849D01*
X154252Y320874D01*
X154165Y321026D01*
X154081Y321180D01*
X154064Y321200D01*
X154051Y321223D01*
X153836Y321476D01*
X113791Y361521D01*
X113791Y445008D01*
X113789Y445026D01*
X113791Y445044D01*
X113770Y445226D01*
X113751Y445409D01*
X113746Y445426D01*
X113744Y445443D01*
X113687Y445618D01*
X113633Y445794D01*
X113625Y445809D01*
X113619Y445826D01*
X113529Y445986D01*
X113441Y446148D01*
X113430Y446161D01*
X113421Y446177D01*
X113301Y446316D01*
X113184Y446457D01*
X113170Y446468D01*
X113158Y446482D01*
X113013Y446594D01*
X112870Y446709D01*
X112854Y446717D01*
X112840Y446728D01*
X112675Y446810D01*
X112513Y446895D01*
X112496Y446900D01*
X112480Y446908D01*
X112301Y446955D01*
X112126Y447006D01*
X112108Y447008D01*
X112091Y447012D01*
X111760Y447039D01*
X102509Y447039D01*
X102505Y447039D01*
X102500Y447039D01*
X102306Y447019D01*
X102109Y446999D01*
X102104Y446998D01*
X102100Y446998D01*
X101912Y446939D01*
X101724Y446881D01*
X101720Y446879D01*
X101716Y446878D01*
X101541Y446782D01*
X101370Y446689D01*
X101366Y446687D01*
X101362Y446684D01*
X101210Y446556D01*
X101061Y446432D01*
X101058Y446428D01*
X101054Y446425D01*
X100929Y446268D01*
X100808Y446118D01*
X100806Y446114D01*
X100803Y446111D01*
X100710Y445929D01*
X100623Y445761D01*
X100621Y445756D01*
X100619Y445752D01*
X100565Y445562D01*
X100511Y445374D01*
X100511Y445369D01*
X100510Y445365D01*
X100495Y445172D01*
X100478Y444972D01*
X100479Y444968D01*
X100479Y444964D01*
X100502Y444770D01*
X100525Y444573D01*
X100527Y444568D01*
X100527Y444564D01*
X100589Y444379D01*
X100650Y444190D01*
X100652Y444186D01*
X100654Y444182D01*
X100750Y444013D01*
X100848Y443839D01*
X100851Y443836D01*
X100853Y443832D01*
X100981Y443685D01*
X101111Y443535D01*
X101115Y443532D01*
X101118Y443528D01*
X101275Y443408D01*
X101429Y443288D01*
X101433Y443286D01*
X101437Y443283D01*
X101732Y443131D01*
X104240Y442093D01*
X106813Y439520D01*
X108205Y436159D01*
X108205Y432521D01*
X106813Y429160D01*
X104240Y426587D01*
X100879Y425195D01*
X82001Y425195D01*
X78640Y426587D01*
X76067Y429160D01*
X74675Y432521D01*
X74675Y436159D01*
X76067Y439520D01*
X78640Y442093D01*
X81148Y443131D01*
X81152Y443133D01*
X81156Y443135D01*
X81329Y443228D01*
X81503Y443322D01*
X81506Y443324D01*
X81510Y443327D01*
X81659Y443451D01*
X81813Y443578D01*
X81816Y443581D01*
X81819Y443584D01*
X81942Y443737D01*
X82067Y443891D01*
X82069Y443895D01*
X82072Y443898D01*
X82162Y444071D01*
X82254Y444247D01*
X82255Y444251D01*
X82257Y444255D01*
X82311Y444443D01*
X82367Y444634D01*
X82367Y444638D01*
X82369Y444642D01*
X82385Y444840D01*
X82402Y445035D01*
X82401Y445039D01*
X82402Y445044D01*
X82379Y445238D01*
X82357Y445435D01*
X82355Y445439D01*
X82355Y445443D01*
X82294Y445629D01*
X82233Y445818D01*
X82231Y445822D01*
X82230Y445826D01*
X82133Y445998D01*
X82037Y446170D01*
X82034Y446173D01*
X82032Y446177D01*
X81904Y446325D01*
X81775Y446475D01*
X81772Y446478D01*
X81769Y446482D01*
X81614Y446602D01*
X81458Y446724D01*
X81454Y446726D01*
X81451Y446728D01*
X81273Y446817D01*
X81098Y446904D01*
X81094Y446906D01*
X81090Y446908D01*
X80898Y446959D01*
X80710Y447011D01*
X80706Y447011D01*
X80701Y447012D01*
X80371Y447039D01*
X45720Y447039D01*
X45671Y447034D01*
X45606Y447036D01*
X41852Y446825D01*
X41847Y446825D01*
X41843Y446825D01*
X41514Y446778D01*
X34194Y445107D01*
X34136Y445087D01*
X34075Y445076D01*
X33892Y445005D01*
X33813Y444979D01*
X33792Y444967D01*
X33765Y444957D01*
X27001Y441699D01*
X26948Y441667D01*
X26891Y441642D01*
X26728Y441533D01*
X26657Y441489D01*
X26640Y441473D01*
X26616Y441457D01*
X20746Y436776D01*
X20701Y436733D01*
X20651Y436696D01*
X20517Y436553D01*
X20457Y436495D01*
X20444Y436476D01*
X20424Y436454D01*
X15743Y430584D01*
X15709Y430532D01*
X15669Y430486D01*
X15569Y430316D01*
X15524Y430246D01*
X15516Y430225D01*
X15501Y430199D01*
X12243Y423435D01*
X12222Y423377D01*
X12193Y423322D01*
X12134Y423135D01*
X12105Y423057D01*
X12102Y423034D01*
X12093Y423006D01*
X10422Y415686D01*
X10422Y415681D01*
X10420Y415677D01*
X10375Y415348D01*
X10164Y411594D01*
X10166Y411545D01*
X10161Y411480D01*
X10161Y319096D01*
X10162Y319087D01*
X10161Y319078D01*
X10182Y318886D01*
X10201Y318696D01*
X10203Y318687D01*
X10204Y318678D01*
X10262Y318495D01*
X10319Y318311D01*
X10323Y318303D01*
X10326Y318294D01*
X10419Y318125D01*
X10511Y317957D01*
X10516Y317950D01*
X10521Y317942D01*
X10646Y317794D01*
X10768Y317647D01*
X10775Y317642D01*
X10781Y317635D01*
X10933Y317515D01*
X11082Y317395D01*
X11090Y317391D01*
X11097Y317385D01*
X11270Y317298D01*
X11439Y317209D01*
X11448Y317207D01*
X11456Y317203D01*
X11641Y317151D01*
X11826Y317098D01*
X11835Y317097D01*
X11844Y317095D01*
X12036Y317081D01*
X12228Y317065D01*
X12236Y317066D01*
X12245Y317066D01*
X12437Y317090D01*
X12627Y317112D01*
X12636Y317115D01*
X12645Y317116D01*
X12827Y317177D01*
X13010Y317237D01*
X13018Y317241D01*
X13026Y317244D01*
X13194Y317340D01*
X13361Y317435D01*
X13368Y317441D01*
X13375Y317445D01*
X13628Y317660D01*
X14418Y318450D01*
X14435Y318471D01*
X14456Y318488D01*
X14562Y318626D01*
X14673Y318761D01*
X14686Y318785D01*
X14702Y318806D01*
X14780Y318963D01*
X14862Y319117D01*
X14870Y319143D01*
X14882Y319167D01*
X14927Y319336D01*
X14977Y319503D01*
X14979Y319530D01*
X14986Y319555D01*
X15013Y319886D01*
X15013Y321096D01*
X15821Y323046D01*
X17314Y324539D01*
X18820Y325162D01*
X18820Y325163D01*
X19264Y325347D01*
X21376Y325347D01*
X23326Y324539D01*
X24819Y323046D01*
X25627Y321096D01*
X25627Y318984D01*
X24819Y317034D01*
X23326Y315541D01*
X21376Y314733D01*
X20320Y314733D01*
X20302Y314731D01*
X20284Y314733D01*
X20102Y314712D01*
X19919Y314693D01*
X19902Y314688D01*
X19885Y314686D01*
X19710Y314629D01*
X19534Y314575D01*
X19519Y314567D01*
X19502Y314561D01*
X19342Y314471D01*
X19180Y314383D01*
X19167Y314372D01*
X19151Y314363D01*
X19012Y314243D01*
X18871Y314126D01*
X18860Y314112D01*
X18846Y314100D01*
X18734Y313955D01*
X18619Y313812D01*
X18611Y313796D01*
X18600Y313782D01*
X18518Y313617D01*
X18433Y313455D01*
X18428Y313438D01*
X18420Y313422D01*
X18373Y313243D01*
X18322Y313068D01*
X18320Y313050D01*
X18316Y313033D01*
X18289Y312702D01*
X18289Y230704D01*
X18291Y230678D01*
X18289Y230651D01*
X18311Y230477D01*
X18329Y230304D01*
X18336Y230278D01*
X18340Y230251D01*
X18395Y230086D01*
X18447Y229919D01*
X18460Y229895D01*
X18468Y229870D01*
X18555Y229719D01*
X18639Y229565D01*
X18656Y229544D01*
X18669Y229521D01*
X18884Y229268D01*
X22742Y225410D01*
X22749Y225404D01*
X22754Y225397D01*
X22904Y225277D01*
X23053Y225155D01*
X23061Y225151D01*
X23068Y225145D01*
X23238Y225057D01*
X23409Y224966D01*
X23418Y224964D01*
X23425Y224959D01*
X23610Y224906D01*
X23795Y224851D01*
X23804Y224851D01*
X23812Y224848D01*
X24003Y224832D01*
X24196Y224815D01*
X24205Y224816D01*
X24214Y224815D01*
X24403Y224837D01*
X24596Y224858D01*
X24605Y224861D01*
X24613Y224862D01*
X24795Y224921D01*
X24980Y224980D01*
X24988Y224984D01*
X24996Y224987D01*
X25165Y225082D01*
X25332Y225175D01*
X25339Y225180D01*
X25347Y225185D01*
X25493Y225311D01*
X25639Y225435D01*
X25645Y225442D01*
X25652Y225448D01*
X25769Y225599D01*
X25889Y225751D01*
X25893Y225759D01*
X25898Y225766D01*
X25984Y225938D01*
X26071Y226110D01*
X26074Y226119D01*
X26078Y226127D01*
X26128Y226313D01*
X26179Y226498D01*
X26180Y226507D01*
X26182Y226515D01*
X26209Y226846D01*
X26209Y231929D01*
X31750Y231929D01*
X31767Y231930D01*
X31785Y231929D01*
X31968Y231950D01*
X32150Y231968D01*
X32167Y231974D01*
X32185Y231976D01*
X32360Y232033D01*
X32535Y232087D01*
X32551Y232095D01*
X32568Y232101D01*
X32728Y232191D01*
X32889Y232278D01*
X32903Y232290D01*
X32918Y232299D01*
X33058Y232419D01*
X33198Y232536D01*
X33199Y232536D01*
X33199Y232537D01*
X33210Y232550D01*
X33223Y232562D01*
X33224Y232562D01*
X33336Y232707D01*
X33451Y232850D01*
X33460Y232866D01*
X33470Y232880D01*
X33552Y233045D01*
X33637Y233208D01*
X33642Y233225D01*
X33650Y233241D01*
X33698Y233419D01*
X33748Y233595D01*
X33750Y233612D01*
X33754Y233630D01*
X33781Y233960D01*
X33781Y247556D01*
X33932Y247605D01*
X34108Y247659D01*
X34123Y247667D01*
X34140Y247673D01*
X34300Y247763D01*
X34462Y247851D01*
X34475Y247862D01*
X34491Y247871D01*
X34630Y247991D01*
X34771Y248108D01*
X34782Y248122D01*
X34796Y248134D01*
X34908Y248279D01*
X35023Y248422D01*
X35031Y248438D01*
X35042Y248452D01*
X35124Y248617D01*
X35209Y248779D01*
X35214Y248796D01*
X35222Y248812D01*
X35269Y248991D01*
X35320Y249166D01*
X35322Y249184D01*
X35326Y249201D01*
X35353Y249532D01*
X35353Y289694D01*
X35351Y289720D01*
X35353Y289747D01*
X35331Y289921D01*
X35313Y290094D01*
X35306Y290120D01*
X35302Y290147D01*
X35247Y290312D01*
X35195Y290479D01*
X35182Y290503D01*
X35174Y290528D01*
X35087Y290680D01*
X35003Y290833D01*
X34986Y290854D01*
X34973Y290877D01*
X34758Y291130D01*
X32070Y293818D01*
X32049Y293835D01*
X32032Y293856D01*
X31894Y293963D01*
X31759Y294073D01*
X31735Y294086D01*
X31714Y294102D01*
X31557Y294180D01*
X31403Y294262D01*
X31377Y294270D01*
X31353Y294282D01*
X31184Y294327D01*
X31017Y294377D01*
X30990Y294379D01*
X30965Y294386D01*
X30634Y294413D01*
X29424Y294413D01*
X27474Y295221D01*
X25981Y296714D01*
X25173Y298664D01*
X25173Y300776D01*
X25981Y302726D01*
X27474Y304219D01*
X29424Y305027D01*
X31536Y305027D01*
X33486Y304219D01*
X34979Y302726D01*
X35787Y300776D01*
X35787Y299566D01*
X35789Y299540D01*
X35787Y299513D01*
X35809Y299339D01*
X35827Y299166D01*
X35834Y299140D01*
X35838Y299113D01*
X35893Y298948D01*
X35945Y298781D01*
X35958Y298757D01*
X35966Y298732D01*
X36053Y298580D01*
X36137Y298427D01*
X36154Y298406D01*
X36167Y298383D01*
X36382Y298130D01*
X41451Y293061D01*
X41451Y249532D01*
X41453Y249514D01*
X41451Y249496D01*
X41472Y249314D01*
X41491Y249131D01*
X41496Y249114D01*
X41498Y249097D01*
X41555Y248922D01*
X41609Y248746D01*
X41617Y248731D01*
X41623Y248714D01*
X41713Y248554D01*
X41801Y248392D01*
X41812Y248379D01*
X41821Y248363D01*
X41941Y248224D01*
X42058Y248083D01*
X42072Y248072D01*
X42084Y248058D01*
X42229Y247946D01*
X42372Y247831D01*
X42388Y247823D01*
X42402Y247812D01*
X42419Y247803D01*
X42419Y233960D01*
X42419Y220111D01*
X42342Y220070D01*
X42329Y220058D01*
X42313Y220049D01*
X42175Y219930D01*
X42033Y219812D01*
X42022Y219798D01*
X42008Y219786D01*
X41896Y219642D01*
X41781Y219498D01*
X41773Y219482D01*
X41762Y219468D01*
X41680Y219304D01*
X41595Y219141D01*
X41590Y219124D01*
X41582Y219108D01*
X41535Y218929D01*
X41484Y218754D01*
X41483Y218736D01*
X41478Y218719D01*
X41451Y218388D01*
X41451Y215932D01*
X41453Y215906D01*
X41451Y215879D01*
X41473Y215705D01*
X41491Y215532D01*
X41498Y215506D01*
X41502Y215480D01*
X41557Y215314D01*
X41609Y215147D01*
X41622Y215123D01*
X41630Y215098D01*
X41717Y214947D01*
X41801Y214793D01*
X41818Y214772D01*
X41831Y214749D01*
X42046Y214496D01*
X44586Y211956D01*
X44593Y211950D01*
X44598Y211943D01*
X44748Y211823D01*
X44897Y211701D01*
X44905Y211697D01*
X44912Y211691D01*
X45082Y211603D01*
X45253Y211512D01*
X45262Y211510D01*
X45269Y211506D01*
X45454Y211453D01*
X45639Y211397D01*
X45648Y211397D01*
X45656Y211394D01*
X45847Y211379D01*
X46040Y211361D01*
X46049Y211362D01*
X46058Y211361D01*
X46247Y211384D01*
X46440Y211404D01*
X46449Y211407D01*
X46457Y211408D01*
X46639Y211468D01*
X46824Y211526D01*
X46832Y211530D01*
X46840Y211533D01*
X47009Y211628D01*
X47176Y211721D01*
X47183Y211727D01*
X47191Y211731D01*
X47337Y211857D01*
X47483Y211981D01*
X47489Y211988D01*
X47496Y211994D01*
X47613Y212146D01*
X47733Y212297D01*
X47737Y212305D01*
X47742Y212312D01*
X47828Y212484D01*
X47915Y212656D01*
X47918Y212665D01*
X47922Y212673D01*
X47972Y212859D01*
X48023Y213044D01*
X48024Y213053D01*
X48026Y213062D01*
X48053Y213392D01*
X48053Y218388D01*
X48051Y218406D01*
X48053Y218424D01*
X48032Y218605D01*
X48013Y218789D01*
X48008Y218806D01*
X48006Y218823D01*
X47949Y218998D01*
X47895Y219174D01*
X47887Y219189D01*
X47881Y219206D01*
X47791Y219366D01*
X47703Y219528D01*
X47692Y219541D01*
X47683Y219557D01*
X47563Y219696D01*
X47446Y219837D01*
X47432Y219848D01*
X47420Y219862D01*
X47275Y219974D01*
X47132Y220089D01*
X47116Y220097D01*
X47102Y220108D01*
X46937Y220190D01*
X46775Y220275D01*
X46758Y220280D01*
X46742Y220288D01*
X46563Y220335D01*
X46481Y220359D01*
X46481Y233960D01*
X46481Y247556D01*
X46632Y247605D01*
X46808Y247659D01*
X46823Y247667D01*
X46840Y247673D01*
X47000Y247763D01*
X47162Y247851D01*
X47175Y247862D01*
X47191Y247871D01*
X47330Y247991D01*
X47471Y248108D01*
X47482Y248122D01*
X47496Y248134D01*
X47608Y248279D01*
X47723Y248422D01*
X47731Y248438D01*
X47742Y248452D01*
X47824Y248617D01*
X47909Y248779D01*
X47914Y248796D01*
X47922Y248812D01*
X47969Y248991D01*
X48020Y249166D01*
X48022Y249184D01*
X48026Y249201D01*
X48053Y249532D01*
X48053Y293483D01*
X48036Y293655D01*
X48024Y293827D01*
X48016Y293858D01*
X48013Y293884D01*
X47988Y293965D01*
X47941Y294148D01*
X44574Y303872D01*
X44538Y303951D01*
X44510Y304033D01*
X44454Y304133D01*
X44405Y304237D01*
X44354Y304307D01*
X44311Y304383D01*
X44235Y304470D01*
X44168Y304562D01*
X44104Y304621D01*
X44046Y304687D01*
X43955Y304757D01*
X43871Y304834D01*
X43796Y304879D01*
X43727Y304932D01*
X43599Y304998D01*
X43526Y305042D01*
X43484Y305057D01*
X43432Y305084D01*
X42714Y305381D01*
X41221Y306874D01*
X40413Y308824D01*
X40413Y310936D01*
X41221Y312886D01*
X42714Y314379D01*
X44229Y315006D01*
X44664Y315187D01*
X46776Y315187D01*
X48726Y314379D01*
X50219Y312886D01*
X51027Y310936D01*
X51027Y308824D01*
X50388Y307282D01*
X50339Y307122D01*
X50286Y306963D01*
X50281Y306929D01*
X50272Y306897D01*
X50256Y306730D01*
X50234Y306563D01*
X50237Y306530D01*
X50233Y306496D01*
X50251Y306330D01*
X50263Y306162D01*
X50272Y306125D01*
X50275Y306096D01*
X50301Y306013D01*
X50345Y305840D01*
X53601Y296439D01*
X53639Y296356D01*
X53668Y296270D01*
X53723Y296174D01*
X53769Y296074D01*
X53823Y296000D01*
X53869Y295921D01*
X53958Y295816D01*
X54007Y295749D01*
X54043Y295716D01*
X54084Y295668D01*
X54151Y295601D01*
X54151Y295193D01*
X54168Y295021D01*
X54180Y294849D01*
X54188Y294818D01*
X54191Y294792D01*
X54216Y294711D01*
X54263Y294528D01*
X54396Y294142D01*
X54355Y294057D01*
X54323Y293971D01*
X54282Y293889D01*
X54254Y293783D01*
X54216Y293679D01*
X54202Y293589D01*
X54178Y293501D01*
X54167Y293364D01*
X54154Y293281D01*
X54156Y293233D01*
X54151Y293170D01*
X54151Y249532D01*
X54153Y249514D01*
X54151Y249496D01*
X54172Y249314D01*
X54191Y249131D01*
X54196Y249114D01*
X54198Y249097D01*
X54255Y248922D01*
X54309Y248746D01*
X54317Y248731D01*
X54323Y248714D01*
X54413Y248554D01*
X54501Y248392D01*
X54512Y248379D01*
X54521Y248363D01*
X54641Y248224D01*
X54758Y248083D01*
X54772Y248072D01*
X54784Y248058D01*
X54929Y247946D01*
X55072Y247831D01*
X55088Y247823D01*
X55102Y247812D01*
X55119Y247803D01*
X55119Y233960D01*
X55119Y220111D01*
X55042Y220070D01*
X55029Y220058D01*
X55013Y220049D01*
X54875Y219930D01*
X54733Y219812D01*
X54722Y219798D01*
X54708Y219786D01*
X54596Y219642D01*
X54481Y219498D01*
X54473Y219482D01*
X54462Y219468D01*
X54380Y219304D01*
X54295Y219141D01*
X54290Y219124D01*
X54282Y219108D01*
X54235Y218929D01*
X54184Y218754D01*
X54183Y218736D01*
X54178Y218719D01*
X54151Y218388D01*
X54151Y209698D01*
X54153Y209672D01*
X54151Y209645D01*
X54173Y209471D01*
X54191Y209298D01*
X54198Y209272D01*
X54202Y209245D01*
X54257Y209080D01*
X54309Y208913D01*
X54322Y208889D01*
X54330Y208864D01*
X54417Y208713D01*
X54501Y208559D01*
X54518Y208538D01*
X54531Y208515D01*
X54746Y208262D01*
X57286Y205722D01*
X57293Y205716D01*
X57298Y205709D01*
X57448Y205589D01*
X57597Y205467D01*
X57605Y205463D01*
X57612Y205457D01*
X57782Y205368D01*
X57953Y205278D01*
X57962Y205276D01*
X57969Y205271D01*
X58154Y205218D01*
X58339Y205163D01*
X58348Y205162D01*
X58356Y205160D01*
X58547Y205144D01*
X58740Y205127D01*
X58749Y205128D01*
X58758Y205127D01*
X58947Y205149D01*
X59140Y205170D01*
X59149Y205173D01*
X59157Y205174D01*
X59339Y205233D01*
X59524Y205292D01*
X59532Y205296D01*
X59540Y205299D01*
X59709Y205394D01*
X59876Y205487D01*
X59883Y205492D01*
X59891Y205497D01*
X60037Y205623D01*
X60183Y205747D01*
X60189Y205754D01*
X60196Y205760D01*
X60313Y205911D01*
X60433Y206063D01*
X60437Y206071D01*
X60442Y206078D01*
X60528Y206250D01*
X60615Y206422D01*
X60618Y206431D01*
X60622Y206439D01*
X60672Y206625D01*
X60723Y206810D01*
X60724Y206819D01*
X60726Y206827D01*
X60753Y207158D01*
X60753Y218388D01*
X60751Y218406D01*
X60753Y218424D01*
X60732Y218605D01*
X60713Y218789D01*
X60708Y218806D01*
X60706Y218823D01*
X60649Y218998D01*
X60595Y219174D01*
X60587Y219189D01*
X60581Y219206D01*
X60491Y219366D01*
X60403Y219528D01*
X60392Y219541D01*
X60383Y219557D01*
X60263Y219696D01*
X60146Y219837D01*
X60132Y219848D01*
X60120Y219862D01*
X59975Y219974D01*
X59832Y220089D01*
X59816Y220097D01*
X59802Y220108D01*
X59637Y220190D01*
X59475Y220275D01*
X59458Y220280D01*
X59442Y220288D01*
X59263Y220335D01*
X59181Y220359D01*
X59181Y233960D01*
X59181Y247556D01*
X59332Y247605D01*
X59508Y247659D01*
X59523Y247667D01*
X59540Y247673D01*
X59700Y247763D01*
X59862Y247851D01*
X59875Y247862D01*
X59891Y247871D01*
X60030Y247991D01*
X60171Y248108D01*
X60182Y248122D01*
X60196Y248134D01*
X60308Y248279D01*
X60423Y248422D01*
X60431Y248438D01*
X60442Y248452D01*
X60524Y248617D01*
X60609Y248779D01*
X60614Y248796D01*
X60622Y248812D01*
X60669Y248991D01*
X60720Y249166D01*
X60722Y249184D01*
X60726Y249201D01*
X60753Y249532D01*
X60753Y301074D01*
X60735Y301257D01*
X60720Y301440D01*
X60715Y301459D01*
X60713Y301475D01*
X60691Y301546D01*
X60634Y301760D01*
X59880Y303863D01*
X59847Y303931D01*
X59823Y304003D01*
X59761Y304113D01*
X59707Y304226D01*
X59661Y304287D01*
X59624Y304353D01*
X59541Y304448D01*
X59466Y304549D01*
X59409Y304599D01*
X59359Y304657D01*
X59260Y304733D01*
X59166Y304817D01*
X59100Y304856D01*
X59040Y304902D01*
X58894Y304977D01*
X58819Y305021D01*
X58785Y305033D01*
X58745Y305054D01*
X57954Y305381D01*
X56461Y306874D01*
X55653Y308824D01*
X55653Y310936D01*
X56461Y312886D01*
X57954Y314379D01*
X59469Y315006D01*
X59904Y315187D01*
X62016Y315187D01*
X63485Y314578D01*
X63498Y314574D01*
X63509Y314568D01*
X63689Y314516D01*
X63870Y314462D01*
X63883Y314460D01*
X63896Y314457D01*
X64084Y314441D01*
X64271Y314424D01*
X64284Y314425D01*
X64298Y314424D01*
X64484Y314446D01*
X64671Y314465D01*
X64684Y314469D01*
X64697Y314471D01*
X64877Y314529D01*
X65056Y314585D01*
X65067Y314591D01*
X65080Y314596D01*
X65244Y314688D01*
X65409Y314778D01*
X65419Y314787D01*
X65431Y314794D01*
X65573Y314916D01*
X65717Y315037D01*
X65725Y315048D01*
X65736Y315057D01*
X65850Y315205D01*
X65968Y315352D01*
X65974Y315364D01*
X65982Y315375D01*
X66066Y315543D01*
X66152Y315710D01*
X66156Y315723D01*
X66162Y315735D01*
X66211Y315918D01*
X66262Y316098D01*
X66263Y316111D01*
X66266Y316124D01*
X66293Y316455D01*
X66293Y330415D01*
X66291Y330442D01*
X66293Y330469D01*
X66271Y330643D01*
X66253Y330816D01*
X66246Y330841D01*
X66242Y330868D01*
X66187Y331034D01*
X66135Y331201D01*
X66122Y331224D01*
X66114Y331250D01*
X66027Y331401D01*
X65943Y331555D01*
X65926Y331575D01*
X65913Y331599D01*
X65698Y331852D01*
X50622Y346928D01*
X50601Y346945D01*
X50583Y346966D01*
X50446Y347073D01*
X50310Y347183D01*
X50287Y347196D01*
X50265Y347212D01*
X50108Y347290D01*
X49954Y347372D01*
X49929Y347380D01*
X49905Y347392D01*
X49735Y347437D01*
X49569Y347487D01*
X49542Y347489D01*
X49516Y347496D01*
X49185Y347523D01*
X40215Y347523D01*
X40192Y347521D01*
X40170Y347523D01*
X39993Y347501D01*
X39814Y347483D01*
X39793Y347477D01*
X39771Y347474D01*
X39601Y347418D01*
X39429Y347365D01*
X39409Y347355D01*
X39388Y347348D01*
X39233Y347259D01*
X39075Y347173D01*
X39058Y347159D01*
X39039Y347148D01*
X38904Y347031D01*
X38766Y346916D01*
X38752Y346898D01*
X38735Y346884D01*
X38626Y346742D01*
X38514Y346602D01*
X38503Y346582D01*
X38490Y346564D01*
X38338Y346269D01*
X37979Y345401D01*
X35159Y342581D01*
X31474Y341055D01*
X27486Y341055D01*
X23801Y342581D01*
X20981Y345401D01*
X19455Y349086D01*
X19455Y353074D01*
X20981Y356759D01*
X23801Y359579D01*
X24079Y359694D01*
X24080Y359694D01*
X27486Y361105D01*
X31474Y361105D01*
X35159Y359579D01*
X37979Y356759D01*
X38338Y355891D01*
X38349Y355871D01*
X38355Y355850D01*
X38444Y355694D01*
X38528Y355536D01*
X38542Y355519D01*
X38553Y355499D01*
X38671Y355363D01*
X38785Y355225D01*
X38802Y355211D01*
X38817Y355194D01*
X38958Y355085D01*
X39097Y354972D01*
X39117Y354961D01*
X39135Y354948D01*
X39295Y354868D01*
X39454Y354785D01*
X39475Y354778D01*
X39495Y354768D01*
X39669Y354722D01*
X39840Y354672D01*
X39862Y354670D01*
X39884Y354664D01*
X40215Y354637D01*
X51989Y354637D01*
X51998Y354638D01*
X52007Y354637D01*
X52201Y354658D01*
X52390Y354677D01*
X52398Y354679D01*
X52407Y354680D01*
X52591Y354738D01*
X52775Y354795D01*
X52783Y354799D01*
X52791Y354802D01*
X52960Y354895D01*
X53129Y354987D01*
X53136Y354992D01*
X53144Y354997D01*
X53291Y355121D01*
X53438Y355244D01*
X53444Y355251D01*
X53451Y355257D01*
X53570Y355408D01*
X53691Y355558D01*
X53695Y355566D01*
X53700Y355573D01*
X53788Y355746D01*
X53876Y355915D01*
X53879Y355924D01*
X53883Y355932D01*
X53935Y356118D01*
X53987Y356302D01*
X53988Y356311D01*
X53991Y356320D01*
X54005Y356513D01*
X54020Y356704D01*
X54019Y356712D01*
X54020Y356721D01*
X53996Y356914D01*
X53973Y357103D01*
X53971Y357112D01*
X53970Y357121D01*
X53908Y357304D01*
X53849Y357486D01*
X53844Y357494D01*
X53841Y357502D01*
X53745Y357669D01*
X53651Y357837D01*
X53645Y357844D01*
X53640Y357851D01*
X53426Y358104D01*
X47243Y364287D01*
X47243Y397445D01*
X47241Y397472D01*
X47243Y397499D01*
X47221Y397673D01*
X47203Y397846D01*
X47196Y397871D01*
X47192Y397898D01*
X47137Y398064D01*
X47085Y398231D01*
X47072Y398254D01*
X47064Y398280D01*
X46977Y398431D01*
X46893Y398585D01*
X46876Y398605D01*
X46863Y398629D01*
X46648Y398882D01*
X34556Y410974D01*
X34538Y410989D01*
X34524Y411006D01*
X34383Y411116D01*
X34244Y411230D01*
X34224Y411240D01*
X34207Y411254D01*
X34047Y411334D01*
X33888Y411418D01*
X33867Y411424D01*
X33847Y411435D01*
X33674Y411482D01*
X33502Y411533D01*
X33480Y411535D01*
X33459Y411541D01*
X33281Y411553D01*
X33101Y411569D01*
X33079Y411567D01*
X33057Y411568D01*
X32881Y411545D01*
X32701Y411526D01*
X32680Y411519D01*
X32658Y411516D01*
X32342Y411415D01*
X31474Y411055D01*
X27486Y411055D01*
X23801Y412581D01*
X20981Y415401D01*
X19455Y419086D01*
X19455Y423074D01*
X20981Y426759D01*
X23801Y429579D01*
X27486Y431105D01*
X31474Y431105D01*
X35159Y429579D01*
X37979Y426759D01*
X39505Y423074D01*
X39505Y419086D01*
X39145Y418218D01*
X39139Y418197D01*
X39129Y418177D01*
X39080Y418004D01*
X39029Y417833D01*
X39027Y417811D01*
X39021Y417789D01*
X39008Y417609D01*
X38991Y417432D01*
X38993Y417410D01*
X38991Y417387D01*
X39014Y417209D01*
X39032Y417031D01*
X39039Y417010D01*
X39042Y416988D01*
X39099Y416818D01*
X39152Y416647D01*
X39163Y416627D01*
X39170Y416606D01*
X39259Y416451D01*
X39345Y416294D01*
X39360Y416277D01*
X39371Y416257D01*
X39586Y416004D01*
X51678Y403912D01*
X54357Y401233D01*
X54357Y368075D01*
X54359Y368048D01*
X54357Y368021D01*
X54379Y367847D01*
X54397Y367674D01*
X54404Y367649D01*
X54408Y367622D01*
X54463Y367456D01*
X54515Y367289D01*
X54528Y367266D01*
X54536Y367240D01*
X54623Y367089D01*
X54707Y366935D01*
X54724Y366915D01*
X54737Y366891D01*
X54952Y366638D01*
X86107Y335483D01*
X86107Y327956D01*
X86107Y327952D01*
X86107Y327947D01*
X86127Y327753D01*
X86147Y327556D01*
X86148Y327551D01*
X86148Y327547D01*
X86206Y327361D01*
X86265Y327171D01*
X86267Y327167D01*
X86268Y327162D01*
X86362Y326991D01*
X86457Y326817D01*
X86459Y326813D01*
X86462Y326809D01*
X86589Y326658D01*
X86714Y326507D01*
X86718Y326505D01*
X86721Y326501D01*
X86875Y326378D01*
X87028Y326255D01*
X87032Y326253D01*
X87035Y326250D01*
X87210Y326161D01*
X87385Y326069D01*
X87390Y326068D01*
X87394Y326066D01*
X87581Y326013D01*
X87772Y325958D01*
X87777Y325958D01*
X87781Y325957D01*
X87974Y325942D01*
X88174Y325925D01*
X88178Y325926D01*
X88182Y325925D01*
X88376Y325949D01*
X88573Y325972D01*
X88578Y325974D01*
X88582Y325974D01*
X88766Y326035D01*
X88956Y326097D01*
X88960Y326099D01*
X88964Y326101D01*
X89134Y326198D01*
X89307Y326295D01*
X89310Y326298D01*
X89314Y326300D01*
X89465Y326431D01*
X89611Y326558D01*
X89614Y326562D01*
X89618Y326564D01*
X89738Y326721D01*
X89858Y326876D01*
X89860Y326880D01*
X89863Y326884D01*
X90015Y327179D01*
X91307Y330300D01*
X93880Y332873D01*
X97241Y334265D01*
X116119Y334265D01*
X119480Y332873D01*
X122053Y330300D01*
X123445Y326939D01*
X123445Y323301D01*
X122053Y319940D01*
X119480Y317367D01*
X117921Y316721D01*
X117920Y316721D01*
X116119Y315975D01*
X97241Y315975D01*
X93880Y317367D01*
X91307Y319940D01*
X90015Y323061D01*
X90013Y323065D01*
X90011Y323069D01*
X89918Y323242D01*
X89824Y323416D01*
X89822Y323420D01*
X89819Y323423D01*
X89695Y323572D01*
X89568Y323726D01*
X89565Y323729D01*
X89562Y323733D01*
X89409Y323856D01*
X89255Y323980D01*
X89251Y323982D01*
X89248Y323985D01*
X89073Y324076D01*
X88899Y324167D01*
X88895Y324168D01*
X88891Y324171D01*
X88701Y324225D01*
X88512Y324280D01*
X88508Y324281D01*
X88504Y324282D01*
X88306Y324298D01*
X88111Y324315D01*
X88107Y324314D01*
X88102Y324315D01*
X87905Y324292D01*
X87711Y324270D01*
X87707Y324268D01*
X87703Y324268D01*
X87514Y324206D01*
X87328Y324147D01*
X87324Y324144D01*
X87320Y324143D01*
X87147Y324046D01*
X86976Y323950D01*
X86973Y323947D01*
X86969Y323945D01*
X86820Y323817D01*
X86671Y323688D01*
X86668Y323685D01*
X86664Y323682D01*
X86546Y323530D01*
X86422Y323371D01*
X86420Y323367D01*
X86418Y323364D01*
X86331Y323189D01*
X86242Y323012D01*
X86240Y323007D01*
X86238Y323003D01*
X86187Y322811D01*
X86135Y322623D01*
X86135Y322619D01*
X86134Y322615D01*
X86107Y322284D01*
X86107Y302556D01*
X86107Y302552D01*
X86107Y302547D01*
X86127Y302350D01*
X86147Y302156D01*
X86148Y302151D01*
X86148Y302147D01*
X86206Y301961D01*
X86265Y301771D01*
X86267Y301767D01*
X86268Y301762D01*
X86362Y301591D01*
X86457Y301417D01*
X86459Y301413D01*
X86462Y301409D01*
X86589Y301258D01*
X86714Y301107D01*
X86718Y301105D01*
X86721Y301101D01*
X86876Y300977D01*
X87028Y300855D01*
X87032Y300853D01*
X87035Y300850D01*
X87210Y300761D01*
X87385Y300669D01*
X87390Y300668D01*
X87394Y300666D01*
X87581Y300613D01*
X87772Y300558D01*
X87777Y300558D01*
X87781Y300557D01*
X87974Y300542D01*
X88174Y300525D01*
X88178Y300526D01*
X88182Y300525D01*
X88376Y300549D01*
X88573Y300572D01*
X88578Y300574D01*
X88582Y300574D01*
X88766Y300635D01*
X88956Y300697D01*
X88960Y300699D01*
X88964Y300701D01*
X89134Y300798D01*
X89307Y300895D01*
X89310Y300898D01*
X89314Y300900D01*
X89465Y301031D01*
X89611Y301158D01*
X89614Y301162D01*
X89618Y301164D01*
X89738Y301321D01*
X89858Y301476D01*
X89860Y301480D01*
X89863Y301484D01*
X90015Y301779D01*
X91307Y304900D01*
X93880Y307473D01*
X97241Y308865D01*
X116119Y308865D01*
X119480Y307473D01*
X122053Y304900D01*
X123445Y301539D01*
X123445Y297901D01*
X122053Y294540D01*
X119480Y291967D01*
X116119Y290575D01*
X97241Y290575D01*
X93880Y291967D01*
X91307Y294540D01*
X90015Y297661D01*
X90013Y297665D01*
X90011Y297669D01*
X89919Y297840D01*
X89824Y298016D01*
X89822Y298020D01*
X89819Y298023D01*
X89695Y298172D01*
X89568Y298326D01*
X89565Y298329D01*
X89562Y298333D01*
X89409Y298456D01*
X89255Y298580D01*
X89251Y298582D01*
X89248Y298585D01*
X89073Y298676D01*
X88899Y298767D01*
X88895Y298768D01*
X88891Y298771D01*
X88701Y298825D01*
X88512Y298880D01*
X88508Y298881D01*
X88504Y298882D01*
X88306Y298898D01*
X88111Y298915D01*
X88107Y298914D01*
X88102Y298915D01*
X87905Y298892D01*
X87711Y298870D01*
X87707Y298868D01*
X87703Y298868D01*
X87514Y298806D01*
X87328Y298747D01*
X87324Y298744D01*
X87320Y298743D01*
X87147Y298646D01*
X86976Y298550D01*
X86973Y298547D01*
X86969Y298545D01*
X86820Y298417D01*
X86671Y298288D01*
X86668Y298285D01*
X86664Y298282D01*
X86546Y298130D01*
X86422Y297971D01*
X86420Y297967D01*
X86418Y297964D01*
X86331Y297789D01*
X86242Y297612D01*
X86240Y297607D01*
X86238Y297603D01*
X86187Y297411D01*
X86135Y297223D01*
X86135Y297219D01*
X86134Y297215D01*
X86107Y296884D01*
X86107Y279739D01*
X86119Y279614D01*
X86122Y279487D01*
X86139Y279414D01*
X86147Y279339D01*
X86184Y279218D01*
X86212Y279095D01*
X86243Y279026D01*
X86265Y278954D01*
X86325Y278843D01*
X86377Y278728D01*
X86421Y278666D01*
X86457Y278600D01*
X86537Y278503D01*
X86611Y278400D01*
X86666Y278348D01*
X86714Y278291D01*
X86813Y278211D01*
X86905Y278125D01*
X86969Y278086D01*
X87028Y278038D01*
X87140Y277980D01*
X87248Y277914D01*
X87318Y277888D01*
X87385Y277853D01*
X87507Y277818D01*
X87625Y277774D01*
X87700Y277762D01*
X87772Y277741D01*
X87898Y277731D01*
X88023Y277711D01*
X88098Y277715D01*
X88174Y277709D01*
X88299Y277723D01*
X88425Y277729D01*
X88499Y277747D01*
X88573Y277755D01*
X88693Y277795D01*
X88816Y277825D01*
X88884Y277857D01*
X88956Y277880D01*
X89066Y277942D01*
X89181Y277996D01*
X89241Y278041D01*
X89307Y278078D01*
X89402Y278161D01*
X89504Y278236D01*
X89554Y278292D01*
X89611Y278341D01*
X89689Y278441D01*
X89774Y278535D01*
X89820Y278610D01*
X89858Y278659D01*
X89891Y278725D01*
X89948Y278817D01*
X90370Y279645D01*
X91310Y280939D01*
X92441Y282070D01*
X93735Y283010D01*
X95160Y283736D01*
X96681Y284231D01*
X98260Y284481D01*
X104141Y284481D01*
X104141Y274828D01*
X104142Y274810D01*
X104141Y274793D01*
X104162Y274610D01*
X104181Y274428D01*
X104186Y274411D01*
X104188Y274393D01*
X104213Y274315D01*
X104174Y274178D01*
X104172Y274160D01*
X104168Y274143D01*
X104141Y273812D01*
X104141Y264159D01*
X98260Y264159D01*
X96681Y264409D01*
X95160Y264904D01*
X93735Y265630D01*
X92441Y266570D01*
X91310Y267701D01*
X90370Y268995D01*
X89948Y269823D01*
X89880Y269929D01*
X89819Y270040D01*
X89771Y270098D01*
X89730Y270162D01*
X89643Y270252D01*
X89562Y270349D01*
X89503Y270397D01*
X89450Y270451D01*
X89346Y270523D01*
X89248Y270602D01*
X89181Y270636D01*
X89119Y270679D01*
X89003Y270729D01*
X88891Y270787D01*
X88818Y270808D01*
X88749Y270838D01*
X88625Y270864D01*
X88504Y270899D01*
X88428Y270905D01*
X88355Y270920D01*
X88228Y270921D01*
X88102Y270931D01*
X88027Y270923D01*
X87952Y270923D01*
X87828Y270899D01*
X87703Y270885D01*
X87631Y270861D01*
X87557Y270847D01*
X87440Y270799D01*
X87320Y270760D01*
X87254Y270723D01*
X87184Y270694D01*
X87079Y270624D01*
X86969Y270562D01*
X86912Y270513D01*
X86849Y270471D01*
X86760Y270381D01*
X86664Y270299D01*
X86618Y270239D01*
X86565Y270186D01*
X86495Y270080D01*
X86418Y269981D01*
X86384Y269913D01*
X86342Y269850D01*
X86295Y269733D01*
X86238Y269620D01*
X86219Y269547D01*
X86190Y269477D01*
X86167Y269353D01*
X86134Y269231D01*
X86127Y269144D01*
X86115Y269082D01*
X86116Y269008D01*
X86107Y268901D01*
X86107Y252343D01*
X86108Y252334D01*
X86107Y252325D01*
X86127Y252134D01*
X86147Y251942D01*
X86149Y251933D01*
X86150Y251925D01*
X86208Y251741D01*
X86265Y251557D01*
X86269Y251549D01*
X86272Y251541D01*
X86365Y251372D01*
X86457Y251203D01*
X86462Y251196D01*
X86467Y251188D01*
X86592Y251040D01*
X86714Y250894D01*
X86721Y250888D01*
X86727Y250881D01*
X86879Y250761D01*
X87028Y250641D01*
X87036Y250637D01*
X87043Y250632D01*
X87216Y250544D01*
X87385Y250456D01*
X87394Y250454D01*
X87402Y250449D01*
X87587Y250398D01*
X87772Y250345D01*
X87781Y250344D01*
X87790Y250341D01*
X87982Y250327D01*
X88174Y250312D01*
X88182Y250313D01*
X88191Y250312D01*
X88383Y250336D01*
X88573Y250359D01*
X88582Y250361D01*
X88591Y250363D01*
X88773Y250424D01*
X88956Y250483D01*
X88964Y250488D01*
X88972Y250491D01*
X89140Y250587D01*
X89307Y250681D01*
X89314Y250687D01*
X89321Y250692D01*
X89574Y250906D01*
X89725Y251057D01*
X100775Y251057D01*
X101966Y249866D01*
X104752Y247080D01*
X104773Y247063D01*
X104791Y247042D01*
X104928Y246935D01*
X105064Y246825D01*
X105088Y246812D01*
X105109Y246796D01*
X105265Y246718D01*
X105420Y246636D01*
X105445Y246628D01*
X105469Y246616D01*
X105638Y246571D01*
X105805Y246521D01*
X105832Y246519D01*
X105858Y246512D01*
X106189Y246485D01*
X111582Y246485D01*
X112255Y245811D01*
X112319Y245759D01*
X112376Y245700D01*
X112474Y245632D01*
X112567Y245556D01*
X112639Y245518D01*
X112707Y245471D01*
X112817Y245424D01*
X112922Y245368D01*
X113001Y245344D01*
X113077Y245312D01*
X113193Y245287D01*
X113308Y245253D01*
X113390Y245245D01*
X113470Y245228D01*
X113590Y245227D01*
X113709Y245216D01*
X113791Y245225D01*
X113873Y245224D01*
X113991Y245247D01*
X114109Y245260D01*
X114188Y245285D01*
X114269Y245300D01*
X114379Y245345D01*
X114493Y245381D01*
X114565Y245421D01*
X114641Y245452D01*
X114741Y245518D01*
X114846Y245576D01*
X114908Y245629D01*
X114977Y245675D01*
X115061Y245759D01*
X115153Y245837D01*
X115204Y245901D01*
X115262Y245959D01*
X115349Y246085D01*
X115402Y246152D01*
X115421Y246189D01*
X115451Y246232D01*
X115617Y246520D01*
X116090Y246993D01*
X116669Y247328D01*
X117315Y247501D01*
X118619Y247501D01*
X118619Y233960D01*
X118619Y220419D01*
X117315Y220419D01*
X116669Y220592D01*
X116090Y220927D01*
X115617Y221400D01*
X115451Y221688D01*
X115403Y221755D01*
X115363Y221827D01*
X115286Y221918D01*
X115216Y222015D01*
X115156Y222071D01*
X115102Y222134D01*
X115009Y222208D01*
X114921Y222289D01*
X114851Y222332D01*
X114786Y222383D01*
X114680Y222437D01*
X114578Y222500D01*
X114501Y222529D01*
X114428Y222566D01*
X114312Y222598D01*
X114200Y222639D01*
X114119Y222652D01*
X114040Y222674D01*
X113920Y222682D01*
X113802Y222701D01*
X113720Y222697D01*
X113638Y222703D01*
X113519Y222688D01*
X113400Y222683D01*
X113320Y222663D01*
X113239Y222653D01*
X113125Y222615D01*
X113009Y222586D01*
X112935Y222551D01*
X112857Y222524D01*
X112753Y222465D01*
X112645Y222414D01*
X112579Y222365D01*
X112508Y222323D01*
X112392Y222225D01*
X112322Y222173D01*
X112295Y222143D01*
X112255Y222109D01*
X111582Y221435D01*
X110673Y221435D01*
X110668Y221435D01*
X110663Y221435D01*
X110469Y221415D01*
X110272Y221395D01*
X110268Y221394D01*
X110263Y221393D01*
X110078Y221336D01*
X109887Y221277D01*
X109883Y221275D01*
X109878Y221273D01*
X109707Y221180D01*
X109533Y221085D01*
X109530Y221082D01*
X109525Y221080D01*
X109375Y220953D01*
X109224Y220828D01*
X109221Y220824D01*
X109217Y220821D01*
X109096Y220668D01*
X108972Y220514D01*
X108970Y220510D01*
X108966Y220506D01*
X108877Y220331D01*
X108786Y220157D01*
X108785Y220152D01*
X108783Y220148D01*
X108729Y219957D01*
X108675Y219770D01*
X108674Y219765D01*
X108673Y219760D01*
X108658Y219563D01*
X108642Y219368D01*
X108643Y219364D01*
X108642Y219359D01*
X108666Y219162D01*
X108689Y218969D01*
X108690Y218964D01*
X108691Y218959D01*
X108753Y218772D01*
X108814Y218586D01*
X108816Y218581D01*
X108818Y218577D01*
X108914Y218408D01*
X109012Y218235D01*
X109015Y218231D01*
X109017Y218227D01*
X109146Y218080D01*
X109275Y217931D01*
X109279Y217927D01*
X109282Y217924D01*
X109366Y217859D01*
X110987Y216238D01*
X111761Y214371D01*
X111761Y212349D01*
X110987Y210482D01*
X110070Y209564D01*
X110053Y209544D01*
X110032Y209526D01*
X109925Y209388D01*
X109815Y209253D01*
X109802Y209229D01*
X109786Y209208D01*
X109708Y209051D01*
X109626Y208897D01*
X109618Y208872D01*
X109606Y208848D01*
X109561Y208678D01*
X109511Y208511D01*
X109509Y208485D01*
X109502Y208459D01*
X109475Y208128D01*
X109475Y190318D01*
X109477Y190292D01*
X109475Y190265D01*
X109497Y190091D01*
X109515Y189918D01*
X109522Y189892D01*
X109526Y189865D01*
X109581Y189700D01*
X109633Y189533D01*
X109646Y189509D01*
X109654Y189484D01*
X109741Y189332D01*
X109825Y189179D01*
X109842Y189158D01*
X109855Y189135D01*
X110070Y188882D01*
X153068Y145884D01*
X155449Y143503D01*
X155449Y81280D01*
X155451Y81262D01*
X155449Y81244D01*
X155470Y81062D01*
X155489Y80879D01*
X155494Y80862D01*
X155496Y80845D01*
X155553Y80670D01*
X155607Y80494D01*
X155615Y80479D01*
X155621Y80462D01*
X155711Y80302D01*
X155799Y80140D01*
X155810Y80127D01*
X155819Y80111D01*
X155939Y79972D01*
X156056Y79831D01*
X156070Y79820D01*
X156082Y79806D01*
X156227Y79694D01*
X156370Y79579D01*
X156386Y79571D01*
X156400Y79560D01*
X156565Y79478D01*
X156727Y79393D01*
X156744Y79388D01*
X156760Y79380D01*
X156939Y79333D01*
X157114Y79282D01*
X157132Y79280D01*
X157149Y79276D01*
X157480Y79249D01*
X219261Y79249D01*
X219269Y79250D01*
X219278Y79249D01*
X219470Y79270D01*
X219661Y79289D01*
X219670Y79291D01*
X219679Y79292D01*
X219861Y79350D01*
X220046Y79407D01*
X220054Y79411D01*
X220063Y79414D01*
X220231Y79507D01*
X220400Y79599D01*
X220407Y79604D01*
X220415Y79609D01*
X220562Y79733D01*
X220709Y79856D01*
X220715Y79863D01*
X220722Y79869D01*
X220841Y80020D01*
X220962Y80170D01*
X220966Y80178D01*
X220971Y80185D01*
X221059Y80358D01*
X221147Y80527D01*
X221150Y80536D01*
X221154Y80544D01*
X221206Y80730D01*
X221259Y80914D01*
X221259Y80923D01*
X221262Y80932D01*
X221276Y81123D01*
X221292Y81316D01*
X221291Y81324D01*
X221291Y81333D01*
X221267Y81526D01*
X221245Y81715D01*
X221242Y81724D01*
X221241Y81733D01*
X221179Y81916D01*
X221120Y82098D01*
X221115Y82106D01*
X221113Y82114D01*
X221016Y82281D01*
X220922Y82449D01*
X220916Y82456D01*
X220912Y82463D01*
X220697Y82716D01*
X217141Y86272D01*
X217120Y86289D01*
X217103Y86310D01*
X216965Y86416D01*
X216829Y86527D01*
X216806Y86540D01*
X216785Y86556D01*
X216629Y86634D01*
X216474Y86716D01*
X216448Y86724D01*
X216424Y86736D01*
X216255Y86781D01*
X216088Y86831D01*
X216061Y86833D01*
X216035Y86840D01*
X215705Y86867D01*
X206609Y86867D01*
X206582Y86865D01*
X206556Y86867D01*
X206382Y86845D01*
X206208Y86827D01*
X206183Y86820D01*
X206156Y86816D01*
X205991Y86761D01*
X205823Y86709D01*
X205800Y86696D01*
X205775Y86688D01*
X205623Y86601D01*
X205469Y86517D01*
X205449Y86500D01*
X205426Y86487D01*
X205173Y86272D01*
X203784Y84883D01*
X192456Y84883D01*
X191563Y85776D01*
X191563Y97104D01*
X192456Y97997D01*
X203784Y97997D01*
X205173Y96608D01*
X205193Y96591D01*
X205211Y96570D01*
X205349Y96463D01*
X205484Y96353D01*
X205508Y96340D01*
X205529Y96324D01*
X205686Y96246D01*
X205840Y96164D01*
X205865Y96156D01*
X205889Y96144D01*
X206059Y96099D01*
X206226Y96049D01*
X206252Y96047D01*
X206278Y96040D01*
X206609Y96013D01*
X219350Y96013D01*
X221030Y95317D01*
X234979Y81368D01*
X235000Y81351D01*
X235017Y81330D01*
X235155Y81223D01*
X235291Y81113D01*
X235314Y81100D01*
X235335Y81084D01*
X235492Y81006D01*
X235646Y80924D01*
X235672Y80916D01*
X235696Y80904D01*
X235865Y80859D01*
X236032Y80809D01*
X236059Y80807D01*
X236085Y80800D01*
X236415Y80773D01*
X363025Y80773D01*
X363051Y80775D01*
X363078Y80773D01*
X363252Y80795D01*
X363425Y80813D01*
X363451Y80820D01*
X363477Y80824D01*
X363643Y80879D01*
X363810Y80931D01*
X363834Y80944D01*
X363859Y80952D01*
X364011Y81039D01*
X364164Y81123D01*
X364185Y81140D01*
X364208Y81153D01*
X364461Y81368D01*
X375832Y92739D01*
X375849Y92760D01*
X375870Y92777D01*
X375977Y92915D01*
X376087Y93051D01*
X376100Y93074D01*
X376116Y93095D01*
X376194Y93252D01*
X376276Y93406D01*
X376284Y93432D01*
X376296Y93456D01*
X376341Y93625D01*
X376391Y93792D01*
X376393Y93819D01*
X376400Y93845D01*
X376427Y94175D01*
X376427Y275230D01*
X377123Y276910D01*
X383490Y283277D01*
X385170Y283973D01*
X390894Y283973D01*
X390912Y283975D01*
X390930Y283973D01*
X391112Y283994D01*
X391295Y284013D01*
X391312Y284018D01*
X391329Y284020D01*
X391504Y284077D01*
X391680Y284131D01*
X391695Y284139D01*
X391712Y284145D01*
X391872Y284235D01*
X392034Y284323D01*
X392047Y284334D01*
X392063Y284343D01*
X392202Y284463D01*
X392343Y284580D01*
X392354Y284594D01*
X392368Y284606D01*
X392480Y284751D01*
X392595Y284894D01*
X392603Y284910D01*
X392614Y284924D01*
X392696Y285089D01*
X392781Y285251D01*
X392786Y285268D01*
X392794Y285284D01*
X392841Y285463D01*
X392892Y285638D01*
X392894Y285656D01*
X392898Y285673D01*
X392925Y286004D01*
X392925Y288932D01*
X393818Y289825D01*
X410282Y289825D01*
X411175Y288932D01*
X411175Y269868D01*
X410282Y268975D01*
X393818Y268975D01*
X392925Y269868D01*
X392925Y272796D01*
X392923Y272814D01*
X392925Y272832D01*
X392904Y273014D01*
X392885Y273197D01*
X392880Y273214D01*
X392878Y273231D01*
X392821Y273406D01*
X392767Y273582D01*
X392759Y273597D01*
X392753Y273614D01*
X392663Y273774D01*
X392575Y273936D01*
X392564Y273949D01*
X392555Y273965D01*
X392435Y274104D01*
X392318Y274245D01*
X392304Y274256D01*
X392292Y274270D01*
X392147Y274382D01*
X392004Y274497D01*
X391988Y274505D01*
X391974Y274516D01*
X391809Y274598D01*
X391647Y274683D01*
X391630Y274688D01*
X391614Y274696D01*
X391435Y274743D01*
X391260Y274794D01*
X391242Y274796D01*
X391225Y274800D01*
X390894Y274827D01*
X388815Y274827D01*
X388789Y274825D01*
X388762Y274827D01*
X388588Y274805D01*
X388415Y274787D01*
X388389Y274780D01*
X388363Y274776D01*
X388197Y274721D01*
X388030Y274669D01*
X388006Y274656D01*
X387981Y274648D01*
X387829Y274561D01*
X387676Y274477D01*
X387655Y274460D01*
X387632Y274447D01*
X387379Y274232D01*
X386168Y273021D01*
X386151Y273000D01*
X386130Y272983D01*
X386023Y272845D01*
X385913Y272709D01*
X385900Y272686D01*
X385884Y272665D01*
X385806Y272508D01*
X385724Y272354D01*
X385716Y272328D01*
X385704Y272304D01*
X385659Y272135D01*
X385609Y271968D01*
X385607Y271941D01*
X385600Y271915D01*
X385573Y271585D01*
X385573Y184404D01*
X385575Y184386D01*
X385573Y184368D01*
X385594Y184186D01*
X385613Y184003D01*
X385618Y183986D01*
X385620Y183969D01*
X385677Y183794D01*
X385731Y183618D01*
X385739Y183603D01*
X385745Y183586D01*
X385835Y183426D01*
X385923Y183264D01*
X385934Y183251D01*
X385943Y183235D01*
X386063Y183096D01*
X386180Y182955D01*
X386194Y182944D01*
X386206Y182930D01*
X386351Y182818D01*
X386494Y182703D01*
X386510Y182695D01*
X386524Y182684D01*
X386689Y182602D01*
X386851Y182517D01*
X386868Y182512D01*
X386884Y182504D01*
X387063Y182457D01*
X387238Y182406D01*
X387256Y182404D01*
X387273Y182400D01*
X387604Y182373D01*
X390894Y182373D01*
X390912Y182375D01*
X390930Y182373D01*
X391112Y182394D01*
X391295Y182413D01*
X391312Y182418D01*
X391329Y182420D01*
X391504Y182477D01*
X391680Y182531D01*
X391695Y182539D01*
X391712Y182545D01*
X391872Y182635D01*
X392034Y182723D01*
X392047Y182734D01*
X392063Y182743D01*
X392202Y182863D01*
X392343Y182980D01*
X392354Y182994D01*
X392368Y183006D01*
X392480Y183151D01*
X392595Y183294D01*
X392603Y183310D01*
X392614Y183324D01*
X392696Y183489D01*
X392781Y183651D01*
X392786Y183668D01*
X392794Y183684D01*
X392841Y183863D01*
X392892Y184038D01*
X392894Y184056D01*
X392898Y184073D01*
X392925Y184404D01*
X392925Y187332D01*
X393818Y188225D01*
X410282Y188225D01*
X411175Y187332D01*
X411175Y175330D01*
X411176Y175321D01*
X411175Y175312D01*
X411196Y175118D01*
X411215Y174929D01*
X411217Y174921D01*
X411218Y174912D01*
X411276Y174728D01*
X411333Y174544D01*
X411337Y174536D01*
X411340Y174528D01*
X411432Y174360D01*
X411525Y174190D01*
X411530Y174183D01*
X411535Y174175D01*
X411659Y174028D01*
X411782Y173881D01*
X411789Y173875D01*
X411795Y173868D01*
X411947Y173749D01*
X412096Y173628D01*
X412104Y173624D01*
X412111Y173619D01*
X412284Y173531D01*
X412453Y173443D01*
X412462Y173441D01*
X412470Y173436D01*
X412656Y173385D01*
X412840Y173332D01*
X412849Y173331D01*
X412858Y173328D01*
X413051Y173314D01*
X413242Y173299D01*
X413250Y173300D01*
X413259Y173299D01*
X413452Y173323D01*
X413641Y173346D01*
X413650Y173348D01*
X413659Y173349D01*
X413842Y173411D01*
X414024Y173470D01*
X414032Y173475D01*
X414040Y173478D01*
X414207Y173574D01*
X414375Y173668D01*
X414382Y173674D01*
X414389Y173679D01*
X414642Y173893D01*
X423076Y182327D01*
X423093Y182348D01*
X423114Y182366D01*
X423221Y182504D01*
X423331Y182639D01*
X423344Y182663D01*
X423360Y182684D01*
X423438Y182841D01*
X423520Y182995D01*
X423528Y183020D01*
X423540Y183044D01*
X423585Y183214D01*
X423635Y183381D01*
X423637Y183407D01*
X423644Y183433D01*
X423671Y183764D01*
X423671Y218064D01*
X423669Y218082D01*
X423671Y218100D01*
X423650Y218282D01*
X423631Y218465D01*
X423626Y218482D01*
X423624Y218499D01*
X423567Y218674D01*
X423513Y218850D01*
X423505Y218865D01*
X423499Y218882D01*
X423409Y219042D01*
X423321Y219204D01*
X423310Y219217D01*
X423301Y219233D01*
X423181Y219372D01*
X423064Y219513D01*
X423050Y219524D01*
X423038Y219538D01*
X422893Y219650D01*
X422750Y219765D01*
X422734Y219773D01*
X422720Y219784D01*
X422555Y219866D01*
X422393Y219951D01*
X422376Y219956D01*
X422360Y219964D01*
X422181Y220011D01*
X422006Y220062D01*
X421988Y220064D01*
X421971Y220068D01*
X421640Y220095D01*
X417073Y220095D01*
X416180Y220988D01*
X416180Y238252D01*
X417073Y239145D01*
X436367Y239145D01*
X437260Y238252D01*
X437260Y220988D01*
X436367Y220095D01*
X431800Y220095D01*
X431782Y220093D01*
X431764Y220095D01*
X431582Y220074D01*
X431399Y220055D01*
X431382Y220050D01*
X431365Y220048D01*
X431190Y219991D01*
X431014Y219937D01*
X430999Y219929D01*
X430982Y219923D01*
X430822Y219833D01*
X430660Y219745D01*
X430647Y219734D01*
X430631Y219725D01*
X430492Y219605D01*
X430351Y219488D01*
X430340Y219474D01*
X430326Y219462D01*
X430214Y219317D01*
X430099Y219174D01*
X430091Y219158D01*
X430080Y219144D01*
X429998Y218979D01*
X429913Y218817D01*
X429908Y218800D01*
X429900Y218784D01*
X429852Y218605D01*
X429802Y218430D01*
X429800Y218412D01*
X429796Y218395D01*
X429769Y218064D01*
X429769Y180397D01*
X427388Y178016D01*
X418824Y169452D01*
X418819Y169445D01*
X418812Y169440D01*
X418692Y169290D01*
X418569Y169141D01*
X418565Y169133D01*
X418559Y169126D01*
X418471Y168956D01*
X418381Y168785D01*
X418378Y168776D01*
X418374Y168769D01*
X418321Y168584D01*
X418266Y168399D01*
X418265Y168390D01*
X418263Y168382D01*
X418247Y168190D01*
X418229Y167998D01*
X418230Y167989D01*
X418230Y167980D01*
X418252Y167791D01*
X418273Y167598D01*
X418276Y167589D01*
X418277Y167581D01*
X418336Y167399D01*
X418394Y167214D01*
X418399Y167206D01*
X418401Y167198D01*
X418496Y167029D01*
X418589Y166862D01*
X418595Y166855D01*
X418599Y166847D01*
X418725Y166701D01*
X418850Y166555D01*
X418857Y166549D01*
X418863Y166542D01*
X419014Y166425D01*
X419166Y166305D01*
X419174Y166301D01*
X419181Y166296D01*
X419353Y166210D01*
X419525Y166123D01*
X419533Y166120D01*
X419541Y166116D01*
X419728Y166066D01*
X419912Y166015D01*
X419921Y166014D01*
X419930Y166012D01*
X420261Y165985D01*
X436367Y165985D01*
X437260Y165092D01*
X437260Y147828D01*
X436367Y146935D01*
X417073Y146935D01*
X416776Y147232D01*
X416756Y147249D01*
X416738Y147270D01*
X416600Y147377D01*
X416465Y147487D01*
X416441Y147500D01*
X416420Y147516D01*
X416263Y147594D01*
X416109Y147676D01*
X416084Y147684D01*
X416060Y147696D01*
X415890Y147741D01*
X415723Y147791D01*
X415697Y147793D01*
X415671Y147800D01*
X415340Y147827D01*
X413206Y147827D01*
X413188Y147825D01*
X413170Y147827D01*
X412988Y147806D01*
X412805Y147787D01*
X412788Y147782D01*
X412771Y147780D01*
X412596Y147723D01*
X412420Y147669D01*
X412405Y147661D01*
X412388Y147655D01*
X412228Y147565D01*
X412066Y147477D01*
X412053Y147466D01*
X412037Y147457D01*
X411898Y147337D01*
X411757Y147220D01*
X411746Y147206D01*
X411732Y147194D01*
X411620Y147049D01*
X411505Y146906D01*
X411497Y146890D01*
X411486Y146876D01*
X411404Y146711D01*
X411319Y146549D01*
X411314Y146532D01*
X411306Y146516D01*
X411259Y146337D01*
X411208Y146162D01*
X411206Y146144D01*
X411202Y146127D01*
X411175Y145796D01*
X411175Y142868D01*
X410282Y141975D01*
X396482Y141975D01*
X396464Y141973D01*
X396446Y141975D01*
X396264Y141954D01*
X396081Y141935D01*
X396064Y141930D01*
X396047Y141928D01*
X395872Y141871D01*
X395696Y141817D01*
X395681Y141809D01*
X395664Y141803D01*
X395504Y141713D01*
X395342Y141625D01*
X395329Y141614D01*
X395313Y141605D01*
X395174Y141485D01*
X395033Y141368D01*
X395022Y141354D01*
X395008Y141342D01*
X394896Y141197D01*
X394781Y141054D01*
X394773Y141038D01*
X394762Y141024D01*
X394680Y140859D01*
X394595Y140697D01*
X394590Y140680D01*
X394582Y140664D01*
X394535Y140485D01*
X394484Y140310D01*
X394482Y140292D01*
X394478Y140275D01*
X394451Y139944D01*
X394451Y139456D01*
X394453Y139438D01*
X394451Y139420D01*
X394472Y139238D01*
X394491Y139055D01*
X394496Y139038D01*
X394498Y139021D01*
X394555Y138846D01*
X394609Y138670D01*
X394617Y138655D01*
X394623Y138638D01*
X394713Y138478D01*
X394801Y138316D01*
X394812Y138303D01*
X394821Y138287D01*
X394941Y138148D01*
X395058Y138007D01*
X395072Y137996D01*
X395084Y137982D01*
X395229Y137870D01*
X395372Y137755D01*
X395388Y137747D01*
X395402Y137736D01*
X395567Y137654D01*
X395729Y137569D01*
X395746Y137564D01*
X395762Y137556D01*
X395941Y137509D01*
X396116Y137458D01*
X396134Y137456D01*
X396151Y137452D01*
X396482Y137425D01*
X410282Y137425D01*
X411175Y136532D01*
X411175Y121690D01*
X411176Y121681D01*
X411175Y121672D01*
X411196Y121480D01*
X411215Y121290D01*
X411217Y121281D01*
X411218Y121272D01*
X411276Y121089D01*
X411333Y120905D01*
X411337Y120897D01*
X411340Y120888D01*
X411433Y120720D01*
X411525Y120551D01*
X411530Y120544D01*
X411535Y120536D01*
X411660Y120388D01*
X411782Y120241D01*
X411789Y120236D01*
X411795Y120229D01*
X411947Y120109D01*
X412096Y119989D01*
X412104Y119985D01*
X412111Y119979D01*
X412284Y119892D01*
X412453Y119803D01*
X412462Y119801D01*
X412470Y119797D01*
X412655Y119745D01*
X412840Y119692D01*
X412849Y119691D01*
X412858Y119689D01*
X413050Y119675D01*
X413242Y119659D01*
X413250Y119660D01*
X413259Y119660D01*
X413451Y119684D01*
X413641Y119706D01*
X413650Y119709D01*
X413659Y119710D01*
X413841Y119771D01*
X414024Y119831D01*
X414032Y119835D01*
X414040Y119838D01*
X414208Y119934D01*
X414375Y120029D01*
X414382Y120035D01*
X414389Y120039D01*
X414642Y120254D01*
X415585Y121197D01*
X415602Y121218D01*
X415623Y121235D01*
X415729Y121373D01*
X415840Y121508D01*
X415853Y121532D01*
X415869Y121553D01*
X415947Y121710D01*
X416029Y121864D01*
X416037Y121890D01*
X416049Y121914D01*
X416094Y122083D01*
X416144Y122250D01*
X416146Y122277D01*
X416153Y122302D01*
X416180Y122633D01*
X416180Y136652D01*
X417073Y137545D01*
X436367Y137545D01*
X437260Y136652D01*
X437260Y119388D01*
X436367Y118495D01*
X422348Y118495D01*
X422322Y118493D01*
X422295Y118495D01*
X422121Y118473D01*
X421948Y118455D01*
X421922Y118448D01*
X421895Y118444D01*
X421730Y118389D01*
X421563Y118337D01*
X421539Y118324D01*
X421514Y118316D01*
X421362Y118229D01*
X421209Y118145D01*
X421188Y118128D01*
X421165Y118115D01*
X420912Y117900D01*
X399618Y96606D01*
X399601Y96585D01*
X399580Y96568D01*
X399473Y96430D01*
X399363Y96295D01*
X399350Y96271D01*
X399334Y96250D01*
X399256Y96093D01*
X399174Y95939D01*
X399166Y95913D01*
X399154Y95889D01*
X399109Y95720D01*
X399059Y95553D01*
X399057Y95526D01*
X399050Y95501D01*
X399023Y95170D01*
X399023Y90064D01*
X371442Y62483D01*
X227998Y62483D01*
X222497Y67984D01*
X222477Y68001D01*
X222459Y68022D01*
X222321Y68129D01*
X222186Y68239D01*
X222162Y68252D01*
X222141Y68268D01*
X221984Y68346D01*
X221830Y68428D01*
X221805Y68436D01*
X221780Y68448D01*
X221611Y68493D01*
X221444Y68543D01*
X221418Y68545D01*
X221392Y68552D01*
X221061Y68579D01*
X149243Y68579D01*
X146863Y70960D01*
X144779Y73043D01*
X144779Y138242D01*
X144777Y138269D01*
X144779Y138295D01*
X144757Y138469D01*
X144739Y138643D01*
X144732Y138668D01*
X144728Y138695D01*
X144673Y138860D01*
X144621Y139028D01*
X144608Y139051D01*
X144600Y139076D01*
X144513Y139228D01*
X144429Y139382D01*
X144412Y139402D01*
X144399Y139425D01*
X144184Y139678D01*
X128642Y155220D01*
X128635Y155226D01*
X128630Y155233D01*
X128480Y155353D01*
X128331Y155475D01*
X128323Y155480D01*
X128316Y155485D01*
X128146Y155574D01*
X127975Y155664D01*
X127966Y155667D01*
X127959Y155671D01*
X127774Y155724D01*
X127589Y155779D01*
X127580Y155780D01*
X127572Y155782D01*
X127380Y155798D01*
X127188Y155815D01*
X127179Y155814D01*
X127170Y155815D01*
X126981Y155793D01*
X126788Y155772D01*
X126779Y155769D01*
X126771Y155768D01*
X126589Y155709D01*
X126404Y155650D01*
X126396Y155646D01*
X126388Y155643D01*
X126219Y155548D01*
X126052Y155455D01*
X126045Y155450D01*
X126037Y155445D01*
X125891Y155319D01*
X125745Y155195D01*
X125739Y155188D01*
X125732Y155182D01*
X125615Y155031D01*
X125495Y154879D01*
X125491Y154871D01*
X125486Y154864D01*
X125399Y154690D01*
X125313Y154520D01*
X125310Y154512D01*
X125306Y154504D01*
X125256Y154317D01*
X125205Y154132D01*
X125204Y154123D01*
X125202Y154115D01*
X125175Y153784D01*
X125175Y130328D01*
X124282Y129435D01*
X117018Y129435D01*
X115736Y130717D01*
X115723Y130729D01*
X115711Y130742D01*
X115567Y130856D01*
X115425Y130972D01*
X115409Y130981D01*
X115395Y130992D01*
X115231Y131075D01*
X115069Y131161D01*
X115052Y131166D01*
X115036Y131174D01*
X114859Y131224D01*
X114683Y131276D01*
X114665Y131277D01*
X114648Y131282D01*
X114465Y131296D01*
X114282Y131312D01*
X114264Y131310D01*
X114247Y131312D01*
X114065Y131289D01*
X113882Y131269D01*
X113865Y131263D01*
X113847Y131261D01*
X113674Y131203D01*
X113498Y131147D01*
X113482Y131139D01*
X113466Y131133D01*
X113307Y131042D01*
X113146Y130953D01*
X113132Y130941D01*
X113117Y130932D01*
X112864Y130717D01*
X111582Y129435D01*
X104318Y129435D01*
X103036Y130717D01*
X103022Y130729D01*
X103011Y130742D01*
X102867Y130856D01*
X102725Y130972D01*
X102709Y130981D01*
X102695Y130992D01*
X102531Y131075D01*
X102369Y131161D01*
X102352Y131166D01*
X102336Y131174D01*
X102159Y131224D01*
X101983Y131276D01*
X101965Y131277D01*
X101948Y131282D01*
X101765Y131296D01*
X101582Y131312D01*
X101564Y131310D01*
X101547Y131312D01*
X101365Y131289D01*
X101182Y131269D01*
X101165Y131263D01*
X101147Y131261D01*
X100973Y131203D01*
X100798Y131147D01*
X100782Y131139D01*
X100766Y131133D01*
X100607Y131041D01*
X100446Y130953D01*
X100432Y130941D01*
X100417Y130932D01*
X100164Y130717D01*
X98882Y129435D01*
X91618Y129435D01*
X90336Y130717D01*
X90322Y130729D01*
X90311Y130742D01*
X90167Y130856D01*
X90025Y130972D01*
X90009Y130981D01*
X89995Y130992D01*
X89831Y131075D01*
X89669Y131161D01*
X89652Y131166D01*
X89636Y131174D01*
X89459Y131224D01*
X89283Y131276D01*
X89265Y131277D01*
X89248Y131282D01*
X89065Y131296D01*
X88882Y131312D01*
X88864Y131310D01*
X88847Y131312D01*
X88665Y131289D01*
X88482Y131269D01*
X88465Y131263D01*
X88447Y131261D01*
X88273Y131203D01*
X88098Y131147D01*
X88082Y131139D01*
X88066Y131133D01*
X87907Y131041D01*
X87746Y130953D01*
X87732Y130941D01*
X87717Y130932D01*
X87464Y130717D01*
X86182Y129435D01*
X80978Y129435D01*
X80960Y129433D01*
X80942Y129435D01*
X80760Y129414D01*
X80577Y129395D01*
X80560Y129390D01*
X80543Y129388D01*
X80368Y129331D01*
X80192Y129277D01*
X80177Y129269D01*
X80160Y129263D01*
X80000Y129173D01*
X79838Y129085D01*
X79825Y129074D01*
X79809Y129065D01*
X79670Y128945D01*
X79529Y128828D01*
X79518Y128814D01*
X79504Y128802D01*
X79392Y128657D01*
X79277Y128514D01*
X79269Y128498D01*
X79258Y128484D01*
X79176Y128319D01*
X79091Y128157D01*
X79086Y128140D01*
X79078Y128124D01*
X79031Y127945D01*
X78980Y127770D01*
X78978Y127752D01*
X78974Y127735D01*
X78947Y127404D01*
X78947Y126360D01*
X78949Y126342D01*
X78947Y126324D01*
X78968Y126142D01*
X78987Y125959D01*
X78992Y125942D01*
X78994Y125925D01*
X79051Y125750D01*
X79105Y125574D01*
X79113Y125559D01*
X79119Y125542D01*
X79209Y125382D01*
X79297Y125220D01*
X79308Y125207D01*
X79317Y125191D01*
X79437Y125052D01*
X79554Y124911D01*
X79568Y124900D01*
X79580Y124886D01*
X79725Y124774D01*
X79868Y124659D01*
X79884Y124651D01*
X79898Y124640D01*
X80063Y124558D01*
X80225Y124473D01*
X80242Y124468D01*
X80258Y124460D01*
X80437Y124413D01*
X80612Y124362D01*
X80630Y124360D01*
X80647Y124356D01*
X80978Y124329D01*
X99794Y124329D01*
X106044Y118079D01*
X106044Y93241D01*
X97495Y84692D01*
X97478Y84671D01*
X97457Y84654D01*
X97350Y84516D01*
X97240Y84380D01*
X97227Y84357D01*
X97211Y84336D01*
X97133Y84179D01*
X97051Y84025D01*
X97043Y83999D01*
X97031Y83975D01*
X96986Y83806D01*
X96936Y83639D01*
X96934Y83612D01*
X96927Y83586D01*
X96900Y83255D01*
X96900Y72552D01*
X96902Y72525D01*
X96900Y72498D01*
X96922Y72324D01*
X96940Y72151D01*
X96947Y72126D01*
X96951Y72099D01*
X97006Y71933D01*
X97058Y71766D01*
X97071Y71743D01*
X97079Y71717D01*
X97166Y71566D01*
X97250Y71412D01*
X97267Y71392D01*
X97280Y71368D01*
X97495Y71115D01*
X102617Y65993D01*
X102617Y63242D01*
X102619Y63219D01*
X102617Y63197D01*
X102639Y63019D01*
X102657Y62841D01*
X102663Y62820D01*
X102666Y62798D01*
X102722Y62628D01*
X102775Y62456D01*
X102785Y62436D01*
X102792Y62415D01*
X102881Y62260D01*
X102967Y62102D01*
X102981Y62085D01*
X102992Y62066D01*
X103110Y61930D01*
X103224Y61793D01*
X103242Y61779D01*
X103256Y61762D01*
X103399Y61653D01*
X103538Y61540D01*
X103558Y61530D01*
X103576Y61517D01*
X103871Y61365D01*
X105391Y60735D01*
X108535Y57591D01*
X109883Y54336D01*
X109888Y54328D01*
X109890Y54320D01*
X109983Y54150D01*
X110074Y53981D01*
X110079Y53975D01*
X110084Y53967D01*
X110208Y53818D01*
X110330Y53671D01*
X110337Y53665D01*
X110343Y53659D01*
X110493Y53539D01*
X110643Y53417D01*
X110651Y53413D01*
X110658Y53408D01*
X110828Y53320D01*
X110999Y53230D01*
X111008Y53228D01*
X111016Y53224D01*
X111200Y53171D01*
X111386Y53117D01*
X111395Y53116D01*
X111403Y53114D01*
X111594Y53099D01*
X111787Y53083D01*
X111796Y53084D01*
X111804Y53083D01*
X111996Y53106D01*
X112187Y53128D01*
X112195Y53130D01*
X112204Y53132D01*
X112387Y53192D01*
X112570Y53251D01*
X112578Y53255D01*
X112586Y53258D01*
X112754Y53354D01*
X112922Y53447D01*
X112928Y53453D01*
X112936Y53457D01*
X113082Y53585D01*
X113227Y53709D01*
X113233Y53716D01*
X113240Y53722D01*
X113357Y53874D01*
X113476Y54026D01*
X113480Y54034D01*
X113485Y54041D01*
X113637Y54336D01*
X114123Y55512D01*
X114130Y55533D01*
X114140Y55553D01*
X114188Y55726D01*
X114240Y55897D01*
X114242Y55919D01*
X114248Y55941D01*
X114261Y56120D01*
X114278Y56298D01*
X114276Y56320D01*
X114277Y56342D01*
X114255Y56521D01*
X114236Y56698D01*
X114230Y56720D01*
X114227Y56742D01*
X114170Y56911D01*
X114117Y57083D01*
X114106Y57102D01*
X114099Y57123D01*
X114010Y57278D01*
X113923Y57436D01*
X113909Y57453D01*
X113898Y57472D01*
X113791Y57598D01*
X113791Y106462D01*
X113789Y106489D01*
X113791Y106516D01*
X113769Y106690D01*
X113751Y106863D01*
X113744Y106889D01*
X113740Y106915D01*
X113685Y107081D01*
X113633Y107248D01*
X113620Y107272D01*
X113612Y107297D01*
X113525Y107449D01*
X113441Y107602D01*
X113424Y107623D01*
X113411Y107646D01*
X113196Y107899D01*
X112341Y108754D01*
X111533Y110704D01*
X111533Y112816D01*
X112341Y114766D01*
X113834Y116259D01*
X115784Y117067D01*
X117896Y117067D01*
X119846Y116259D01*
X121339Y114766D01*
X122147Y112816D01*
X122147Y110704D01*
X121339Y108754D01*
X120484Y107899D01*
X120467Y107878D01*
X120446Y107861D01*
X120339Y107723D01*
X120229Y107587D01*
X120216Y107564D01*
X120200Y107543D01*
X120122Y107386D01*
X120040Y107232D01*
X120032Y107206D01*
X120020Y107182D01*
X119975Y107013D01*
X119925Y106846D01*
X119923Y106819D01*
X119916Y106793D01*
X119889Y106462D01*
X119889Y64468D01*
X119891Y64450D01*
X119889Y64432D01*
X119910Y64250D01*
X119929Y64067D01*
X119934Y64050D01*
X119936Y64033D01*
X119993Y63858D01*
X120047Y63682D01*
X120055Y63667D01*
X120061Y63650D01*
X120151Y63490D01*
X120239Y63328D01*
X120250Y63315D01*
X120259Y63299D01*
X120379Y63160D01*
X120496Y63019D01*
X120510Y63008D01*
X120522Y62994D01*
X120667Y62882D01*
X120810Y62767D01*
X120826Y62759D01*
X120840Y62748D01*
X121005Y62666D01*
X121167Y62581D01*
X121184Y62576D01*
X121200Y62568D01*
X121379Y62521D01*
X121554Y62470D01*
X121572Y62468D01*
X121589Y62464D01*
X121920Y62437D01*
X126683Y62437D01*
X130791Y60735D01*
X133935Y57591D01*
X135637Y53483D01*
X135637Y49037D01*
X133935Y44929D01*
X130791Y41785D01*
X127536Y40437D01*
X127528Y40432D01*
X127520Y40430D01*
X127350Y40337D01*
X127181Y40246D01*
X127175Y40241D01*
X127167Y40236D01*
X127019Y40112D01*
X126871Y39990D01*
X126865Y39983D01*
X126859Y39977D01*
X126739Y39827D01*
X126617Y39677D01*
X126613Y39669D01*
X126608Y39662D01*
X126520Y39492D01*
X126430Y39321D01*
X126428Y39312D01*
X126424Y39304D01*
X126371Y39120D01*
X126317Y38934D01*
X126316Y38925D01*
X126314Y38917D01*
X126299Y38726D01*
X126283Y38533D01*
X126284Y38524D01*
X126283Y38516D01*
X126306Y38324D01*
X126328Y38133D01*
X126330Y38125D01*
X126332Y38116D01*
X126392Y37933D01*
X126451Y37750D01*
X126455Y37742D01*
X126458Y37734D01*
X126554Y37566D01*
X126647Y37398D01*
X126653Y37392D01*
X126657Y37384D01*
X126785Y37238D01*
X126909Y37093D01*
X126916Y37087D01*
X126922Y37080D01*
X127074Y36963D01*
X127226Y36844D01*
X127234Y36840D01*
X127241Y36835D01*
X127536Y36683D01*
X130791Y35335D01*
X133935Y32191D01*
X135637Y28083D01*
X135637Y23637D01*
X133935Y19529D01*
X130791Y16385D01*
X126683Y14683D01*
X122237Y14683D01*
X118129Y16385D01*
X114985Y19529D01*
X113637Y22784D01*
X113632Y22792D01*
X113630Y22800D01*
X113537Y22970D01*
X113446Y23139D01*
X113441Y23145D01*
X113436Y23153D01*
X113312Y23301D01*
X113190Y23449D01*
X113183Y23455D01*
X113177Y23461D01*
X113027Y23581D01*
X112877Y23703D01*
X112869Y23707D01*
X112862Y23712D01*
X112692Y23800D01*
X112521Y23890D01*
X112512Y23892D01*
X112504Y23896D01*
X112320Y23949D01*
X112134Y24003D01*
X112125Y24004D01*
X112117Y24006D01*
X111926Y24021D01*
X111733Y24037D01*
X111724Y24036D01*
X111716Y24037D01*
X111524Y24014D01*
X111333Y23992D01*
X111325Y23990D01*
X111316Y23988D01*
X111133Y23928D01*
X110950Y23869D01*
X110942Y23865D01*
X110934Y23862D01*
X110766Y23766D01*
X110598Y23673D01*
X110592Y23667D01*
X110584Y23663D01*
X110438Y23535D01*
X110293Y23411D01*
X110287Y23404D01*
X110280Y23398D01*
X110163Y23246D01*
X110044Y23094D01*
X110040Y23086D01*
X110035Y23079D01*
X109883Y22784D01*
X108535Y19529D01*
X105391Y16385D01*
X101283Y14683D01*
X96837Y14683D01*
X92729Y16385D01*
X89585Y19529D01*
X88237Y22784D01*
X88232Y22792D01*
X88230Y22800D01*
X88137Y22970D01*
X88046Y23139D01*
X88041Y23145D01*
X88036Y23153D01*
X87912Y23301D01*
X87790Y23449D01*
X87783Y23455D01*
X87777Y23461D01*
X87627Y23581D01*
X87477Y23703D01*
X87469Y23707D01*
X87462Y23712D01*
X87292Y23800D01*
X87121Y23890D01*
X87112Y23892D01*
X87104Y23896D01*
X86920Y23949D01*
X86734Y24003D01*
X86725Y24004D01*
X86717Y24006D01*
X86526Y24021D01*
X86333Y24037D01*
X86324Y24036D01*
X86316Y24037D01*
X86124Y24014D01*
X85933Y23992D01*
X85925Y23990D01*
X85916Y23988D01*
X85733Y23928D01*
X85550Y23869D01*
X85542Y23865D01*
X85534Y23862D01*
X85366Y23766D01*
X85198Y23673D01*
X85192Y23667D01*
X85184Y23663D01*
X85038Y23535D01*
X84893Y23411D01*
X84887Y23404D01*
X84880Y23398D01*
X84763Y23246D01*
X84644Y23094D01*
X84640Y23086D01*
X84635Y23079D01*
X84483Y22784D01*
X83135Y19529D01*
X79991Y16385D01*
X75883Y14683D01*
X71437Y14683D01*
X67329Y16385D01*
X64185Y19529D01*
X62837Y22784D01*
X62832Y22792D01*
X62830Y22800D01*
X62737Y22970D01*
X62646Y23139D01*
X62641Y23145D01*
X62636Y23153D01*
X62512Y23301D01*
X62390Y23449D01*
X62383Y23455D01*
X62377Y23461D01*
X62227Y23581D01*
X62077Y23703D01*
X62069Y23707D01*
X62062Y23712D01*
X61892Y23800D01*
X61721Y23890D01*
X61712Y23892D01*
X61704Y23896D01*
X61520Y23949D01*
X61334Y24003D01*
X61325Y24004D01*
X61317Y24006D01*
X61126Y24021D01*
X60933Y24037D01*
X60924Y24036D01*
X60916Y24037D01*
X60724Y24014D01*
X60533Y23992D01*
X60525Y23990D01*
X60516Y23988D01*
X60333Y23928D01*
X60150Y23869D01*
X60142Y23865D01*
X60134Y23862D01*
X59966Y23766D01*
X59798Y23673D01*
X59792Y23667D01*
X59784Y23663D01*
X59638Y23535D01*
X59493Y23411D01*
X59487Y23404D01*
X59480Y23398D01*
X59363Y23246D01*
X59244Y23094D01*
X59240Y23086D01*
X59235Y23079D01*
X59083Y22784D01*
X57735Y19529D01*
X54591Y16385D01*
X50483Y14683D01*
X46037Y14683D01*
X41929Y16385D01*
X38785Y19529D01*
X37083Y23637D01*
X37083Y28083D01*
X37713Y29604D01*
X37719Y29625D01*
X37730Y29645D01*
X37778Y29818D01*
X37830Y29989D01*
X37832Y30011D01*
X37838Y30033D01*
X37851Y30212D01*
X37868Y30390D01*
X37865Y30412D01*
X37867Y30434D01*
X37844Y30613D01*
X37826Y30790D01*
X37819Y30811D01*
X37817Y30834D01*
X37759Y31004D01*
X37706Y31175D01*
X37695Y31194D01*
X37688Y31215D01*
X37599Y31371D01*
X37513Y31528D01*
X37499Y31545D01*
X37487Y31564D01*
X37273Y31817D01*
X28955Y40135D01*
X28955Y59256D01*
X31408Y61709D01*
X31425Y61730D01*
X31446Y61748D01*
X31553Y61886D01*
X31663Y62021D01*
X31676Y62045D01*
X31692Y62066D01*
X31770Y62223D01*
X31852Y62377D01*
X31860Y62402D01*
X31872Y62426D01*
X31917Y62596D01*
X31967Y62763D01*
X31969Y62789D01*
X31976Y62815D01*
X32003Y63146D01*
X32003Y65664D01*
X32001Y65682D01*
X32003Y65700D01*
X31982Y65882D01*
X31963Y66065D01*
X31958Y66082D01*
X31956Y66099D01*
X31899Y66274D01*
X31845Y66450D01*
X31837Y66465D01*
X31831Y66482D01*
X31741Y66642D01*
X31653Y66804D01*
X31642Y66817D01*
X31633Y66833D01*
X31513Y66972D01*
X31396Y67113D01*
X31382Y67124D01*
X31370Y67138D01*
X31225Y67250D01*
X31082Y67365D01*
X31066Y67373D01*
X31052Y67384D01*
X30887Y67466D01*
X30725Y67551D01*
X30708Y67556D01*
X30692Y67564D01*
X30513Y67611D01*
X30338Y67662D01*
X30320Y67664D01*
X30303Y67668D01*
X29972Y67695D01*
X25913Y67695D01*
X25020Y68588D01*
X25020Y85852D01*
X25913Y86745D01*
X45207Y86745D01*
X46100Y85852D01*
X46100Y68588D01*
X45207Y67695D01*
X41148Y67695D01*
X41130Y67693D01*
X41112Y67695D01*
X40930Y67674D01*
X40747Y67655D01*
X40730Y67650D01*
X40713Y67648D01*
X40538Y67591D01*
X40362Y67537D01*
X40347Y67529D01*
X40330Y67523D01*
X40170Y67433D01*
X40008Y67345D01*
X39995Y67334D01*
X39979Y67325D01*
X39840Y67205D01*
X39699Y67088D01*
X39688Y67074D01*
X39674Y67062D01*
X39562Y66917D01*
X39447Y66774D01*
X39439Y66758D01*
X39428Y66744D01*
X39346Y66579D01*
X39261Y66417D01*
X39256Y66400D01*
X39248Y66384D01*
X39201Y66205D01*
X39150Y66030D01*
X39148Y66012D01*
X39144Y65995D01*
X39117Y65664D01*
X39117Y63600D01*
X39126Y63507D01*
X39125Y63414D01*
X39146Y63308D01*
X39157Y63200D01*
X39184Y63110D01*
X39202Y63019D01*
X39243Y62919D01*
X39275Y62815D01*
X39319Y62733D01*
X39355Y62647D01*
X39415Y62556D01*
X39467Y62461D01*
X39526Y62389D01*
X39578Y62312D01*
X39655Y62235D01*
X39724Y62151D01*
X39797Y62093D01*
X39863Y62027D01*
X39953Y61967D01*
X40038Y61899D01*
X40121Y61856D01*
X40198Y61805D01*
X40299Y61763D01*
X40395Y61714D01*
X40485Y61688D01*
X40571Y61653D01*
X40678Y61632D01*
X40782Y61602D01*
X40875Y61595D01*
X40967Y61577D01*
X41075Y61578D01*
X41184Y61569D01*
X41276Y61580D01*
X41369Y61581D01*
X41476Y61604D01*
X41583Y61616D01*
X41672Y61645D01*
X41763Y61664D01*
X41887Y61715D01*
X41966Y61741D01*
X42009Y61765D01*
X42070Y61790D01*
X43579Y62559D01*
X45405Y63152D01*
X45721Y63203D01*
X45721Y51768D01*
X45722Y51750D01*
X45721Y51733D01*
X45742Y51550D01*
X45761Y51368D01*
X45766Y51351D01*
X45768Y51333D01*
X45825Y51158D01*
X45879Y50983D01*
X45887Y50967D01*
X45893Y50950D01*
X45983Y50790D01*
X46070Y50629D01*
X46082Y50615D01*
X46091Y50599D01*
X46211Y50460D01*
X46328Y50319D01*
X46342Y50308D01*
X46354Y50295D01*
X46499Y50182D01*
X46642Y50067D01*
X46658Y50059D01*
X46672Y50048D01*
X46837Y49966D01*
X46999Y49882D01*
X47016Y49877D01*
X47032Y49869D01*
X47211Y49821D01*
X47386Y49770D01*
X47404Y49769D01*
X47421Y49764D01*
X47752Y49737D01*
X48768Y49737D01*
X48786Y49739D01*
X48804Y49737D01*
X48986Y49759D01*
X49169Y49777D01*
X49186Y49782D01*
X49203Y49784D01*
X49378Y49841D01*
X49554Y49895D01*
X49569Y49903D01*
X49586Y49909D01*
X49746Y49999D01*
X49908Y50087D01*
X49921Y50098D01*
X49937Y50107D01*
X50076Y50227D01*
X50217Y50345D01*
X50228Y50358D01*
X50242Y50370D01*
X50354Y50515D01*
X50469Y50658D01*
X50477Y50674D01*
X50488Y50688D01*
X50570Y50853D01*
X50655Y51016D01*
X50660Y51033D01*
X50668Y51049D01*
X50715Y51227D01*
X50766Y51402D01*
X50768Y51420D01*
X50772Y51437D01*
X50799Y51768D01*
X50799Y63203D01*
X51115Y63152D01*
X52940Y62559D01*
X54650Y61688D01*
X55194Y61293D01*
X55238Y61267D01*
X55278Y61235D01*
X55411Y61166D01*
X55542Y61090D01*
X55590Y61073D01*
X55635Y61050D01*
X55780Y61008D01*
X55922Y60959D01*
X55973Y60953D01*
X56022Y60938D01*
X56173Y60926D01*
X56322Y60906D01*
X56373Y60910D01*
X56424Y60906D01*
X56573Y60923D01*
X56723Y60933D01*
X56773Y60946D01*
X56823Y60952D01*
X56966Y60999D01*
X57112Y61039D01*
X57158Y61061D01*
X57206Y61077D01*
X57337Y61151D01*
X57472Y61219D01*
X57512Y61250D01*
X57557Y61275D01*
X57671Y61374D01*
X57789Y61466D01*
X57823Y61505D01*
X57862Y61538D01*
X57954Y61657D01*
X58052Y61771D01*
X58077Y61816D01*
X58108Y61856D01*
X58175Y61991D01*
X58249Y62122D01*
X58265Y62171D01*
X58288Y62217D01*
X58327Y62363D01*
X58373Y62506D01*
X58379Y62556D01*
X58392Y62606D01*
X58411Y62836D01*
X58419Y62905D01*
X58418Y62919D01*
X58419Y62936D01*
X58419Y65664D01*
X58417Y65682D01*
X58419Y65700D01*
X58398Y65882D01*
X58379Y66065D01*
X58374Y66082D01*
X58372Y66099D01*
X58315Y66274D01*
X58261Y66450D01*
X58253Y66465D01*
X58247Y66482D01*
X58157Y66642D01*
X58069Y66804D01*
X58058Y66817D01*
X58049Y66833D01*
X57929Y66972D01*
X57812Y67113D01*
X57798Y67124D01*
X57786Y67138D01*
X57641Y67250D01*
X57498Y67365D01*
X57482Y67373D01*
X57468Y67384D01*
X57303Y67466D01*
X57141Y67551D01*
X57124Y67556D01*
X57108Y67564D01*
X56929Y67611D01*
X56754Y67662D01*
X56736Y67664D01*
X56719Y67668D01*
X56388Y67695D01*
X51313Y67695D01*
X50420Y68588D01*
X50420Y85852D01*
X51313Y86745D01*
X68580Y86745D01*
X68598Y86747D01*
X68616Y86745D01*
X68798Y86766D01*
X68981Y86785D01*
X68998Y86790D01*
X69015Y86792D01*
X69190Y86849D01*
X69366Y86903D01*
X69381Y86911D01*
X69398Y86917D01*
X69558Y87007D01*
X69720Y87095D01*
X69733Y87106D01*
X69749Y87115D01*
X69888Y87235D01*
X70029Y87352D01*
X70040Y87366D01*
X70054Y87378D01*
X70166Y87523D01*
X70281Y87666D01*
X70289Y87682D01*
X70300Y87696D01*
X70382Y87861D01*
X70467Y88023D01*
X70472Y88040D01*
X70480Y88056D01*
X70527Y88235D01*
X70578Y88410D01*
X70580Y88428D01*
X70584Y88445D01*
X70611Y88776D01*
X70611Y94104D01*
X70609Y94122D01*
X70611Y94140D01*
X70590Y94322D01*
X70571Y94505D01*
X70566Y94522D01*
X70564Y94539D01*
X70507Y94714D01*
X70453Y94890D01*
X70445Y94905D01*
X70439Y94922D01*
X70349Y95082D01*
X70261Y95244D01*
X70250Y95257D01*
X70241Y95273D01*
X70121Y95412D01*
X70004Y95553D01*
X69990Y95564D01*
X69978Y95578D01*
X69833Y95690D01*
X69690Y95805D01*
X69674Y95813D01*
X69660Y95824D01*
X69495Y95906D01*
X69333Y95991D01*
X69316Y95996D01*
X69300Y96004D01*
X69121Y96051D01*
X68946Y96102D01*
X68928Y96104D01*
X68911Y96108D01*
X68580Y96135D01*
X51313Y96135D01*
X50420Y97028D01*
X50420Y100580D01*
X50418Y100598D01*
X50420Y100616D01*
X50399Y100798D01*
X50380Y100981D01*
X50375Y100998D01*
X50373Y101015D01*
X50316Y101190D01*
X50262Y101366D01*
X50254Y101381D01*
X50248Y101398D01*
X50158Y101558D01*
X50070Y101720D01*
X50059Y101733D01*
X50050Y101749D01*
X49930Y101888D01*
X49813Y102029D01*
X49799Y102040D01*
X49787Y102054D01*
X49642Y102166D01*
X49499Y102281D01*
X49483Y102289D01*
X49469Y102300D01*
X49304Y102382D01*
X49142Y102467D01*
X49125Y102472D01*
X49109Y102480D01*
X48930Y102527D01*
X48755Y102578D01*
X48737Y102580D01*
X48720Y102584D01*
X48389Y102611D01*
X48131Y102611D01*
X48113Y102609D01*
X48095Y102611D01*
X47913Y102590D01*
X47730Y102571D01*
X47713Y102566D01*
X47696Y102564D01*
X47521Y102507D01*
X47345Y102453D01*
X47330Y102445D01*
X47313Y102439D01*
X47153Y102349D01*
X46991Y102261D01*
X46978Y102250D01*
X46962Y102241D01*
X46823Y102121D01*
X46682Y102004D01*
X46671Y101990D01*
X46657Y101978D01*
X46545Y101833D01*
X46430Y101690D01*
X46422Y101674D01*
X46411Y101660D01*
X46329Y101495D01*
X46244Y101333D01*
X46239Y101316D01*
X46231Y101300D01*
X46184Y101121D01*
X46133Y100946D01*
X46131Y100928D01*
X46127Y100911D01*
X46100Y100580D01*
X46100Y97028D01*
X45207Y96135D01*
X25913Y96135D01*
X25020Y97028D01*
X25020Y101907D01*
X25018Y101933D01*
X25020Y101960D01*
X24998Y102134D01*
X24980Y102307D01*
X24973Y102333D01*
X24969Y102360D01*
X24914Y102525D01*
X24862Y102692D01*
X24849Y102716D01*
X24841Y102741D01*
X24754Y102893D01*
X24670Y103046D01*
X24653Y103067D01*
X24640Y103090D01*
X24425Y103343D01*
X22776Y104992D01*
X13628Y114140D01*
X13621Y114146D01*
X13616Y114153D01*
X13466Y114273D01*
X13317Y114395D01*
X13309Y114399D01*
X13302Y114405D01*
X13132Y114493D01*
X12961Y114584D01*
X12952Y114586D01*
X12945Y114591D01*
X12760Y114644D01*
X12575Y114699D01*
X12566Y114699D01*
X12558Y114702D01*
X12366Y114718D01*
X12174Y114735D01*
X12165Y114734D01*
X12156Y114735D01*
X11967Y114713D01*
X11774Y114692D01*
X11765Y114689D01*
X11757Y114688D01*
X11575Y114629D01*
X11390Y114570D01*
X11382Y114566D01*
X11374Y114563D01*
X11205Y114468D01*
X11038Y114375D01*
X11031Y114370D01*
X11023Y114365D01*
X10877Y114239D01*
X10731Y114115D01*
X10725Y114108D01*
X10718Y114102D01*
X10601Y113951D01*
X10481Y113799D01*
X10477Y113791D01*
X10472Y113784D01*
X10386Y113612D01*
X10299Y113440D01*
X10296Y113431D01*
X10292Y113423D01*
X10242Y113237D01*
X10191Y113052D01*
X10190Y113043D01*
X10188Y113035D01*
X10161Y112704D01*
X10161Y45720D01*
X10166Y45671D01*
X10164Y45606D01*
X10375Y41852D01*
X10375Y41847D01*
X10375Y41843D01*
X10422Y41514D01*
X12093Y34194D01*
X12113Y34136D01*
X12124Y34075D01*
X12195Y33892D01*
X12221Y33813D01*
X12233Y33792D01*
X12243Y33765D01*
X15501Y27001D01*
X15533Y26948D01*
X15558Y26891D01*
X15667Y26728D01*
X15711Y26657D01*
X15727Y26640D01*
X15743Y26616D01*
X20424Y20746D01*
X20467Y20701D01*
X20504Y20651D01*
X20647Y20517D01*
X20705Y20457D01*
X20724Y20444D01*
X20746Y20424D01*
X26616Y15743D01*
X26668Y15709D01*
X26714Y15669D01*
X26884Y15570D01*
X26954Y15524D01*
X26975Y15516D01*
X27001Y15501D01*
X33765Y12243D01*
X33823Y12222D01*
X33878Y12193D01*
X34065Y12134D01*
X34143Y12105D01*
X34166Y12102D01*
X34194Y12093D01*
X41514Y10422D01*
X41519Y10422D01*
X41523Y10420D01*
X41852Y10375D01*
X45606Y10164D01*
X45655Y10166D01*
X45720Y10161D01*
X411480Y10161D01*
X411529Y10166D01*
G37*
%LPC*%
G36*
X393818Y243575D02*
X393818Y243575D01*
X392925Y244468D01*
X392925Y263532D01*
X393818Y264425D01*
X410282Y264425D01*
X411175Y263532D01*
X411175Y260604D01*
X411177Y260586D01*
X411175Y260568D01*
X411196Y260386D01*
X411215Y260203D01*
X411220Y260186D01*
X411222Y260169D01*
X411279Y259994D01*
X411333Y259818D01*
X411341Y259803D01*
X411347Y259786D01*
X411437Y259626D01*
X411525Y259464D01*
X411536Y259451D01*
X411545Y259435D01*
X411665Y259296D01*
X411782Y259155D01*
X411796Y259144D01*
X411808Y259130D01*
X411953Y259018D01*
X412096Y258903D01*
X412112Y258895D01*
X412126Y258884D01*
X412291Y258802D01*
X412453Y258717D01*
X412470Y258712D01*
X412486Y258704D01*
X412665Y258657D01*
X412840Y258606D01*
X412858Y258604D01*
X412875Y258600D01*
X413206Y258573D01*
X414149Y258573D01*
X414167Y258575D01*
X414185Y258573D01*
X414367Y258594D01*
X414550Y258613D01*
X414567Y258618D01*
X414584Y258620D01*
X414759Y258677D01*
X414935Y258731D01*
X414950Y258739D01*
X414967Y258745D01*
X415127Y258835D01*
X415289Y258923D01*
X415302Y258934D01*
X415318Y258943D01*
X415457Y259063D01*
X415598Y259180D01*
X415609Y259194D01*
X415623Y259206D01*
X415735Y259351D01*
X415850Y259494D01*
X415858Y259510D01*
X415869Y259524D01*
X415951Y259689D01*
X416036Y259851D01*
X416041Y259868D01*
X416049Y259884D01*
X416096Y260063D01*
X416147Y260238D01*
X416149Y260256D01*
X416153Y260273D01*
X416180Y260604D01*
X416180Y266692D01*
X417073Y267585D01*
X436367Y267585D01*
X437260Y266692D01*
X437260Y249428D01*
X436367Y248535D01*
X417073Y248535D01*
X416776Y248832D01*
X416756Y248849D01*
X416738Y248870D01*
X416600Y248977D01*
X416465Y249087D01*
X416441Y249100D01*
X416420Y249116D01*
X416263Y249194D01*
X416109Y249276D01*
X416084Y249284D01*
X416060Y249296D01*
X415890Y249341D01*
X415723Y249391D01*
X415697Y249393D01*
X415671Y249400D01*
X415340Y249427D01*
X413206Y249427D01*
X413188Y249425D01*
X413170Y249427D01*
X412988Y249406D01*
X412805Y249387D01*
X412788Y249382D01*
X412771Y249380D01*
X412596Y249323D01*
X412420Y249269D01*
X412405Y249261D01*
X412388Y249255D01*
X412228Y249165D01*
X412066Y249077D01*
X412053Y249066D01*
X412037Y249057D01*
X411898Y248937D01*
X411757Y248820D01*
X411746Y248806D01*
X411732Y248794D01*
X411620Y248649D01*
X411505Y248506D01*
X411497Y248490D01*
X411486Y248476D01*
X411404Y248311D01*
X411319Y248149D01*
X411314Y248132D01*
X411306Y248116D01*
X411258Y247936D01*
X411208Y247762D01*
X411206Y247744D01*
X411202Y247727D01*
X411175Y247396D01*
X411175Y244468D01*
X410282Y243575D01*
X393818Y243575D01*
G37*
%LPD*%
%LPC*%
G36*
X82001Y399795D02*
X82001Y399795D01*
X78640Y401187D01*
X76067Y403760D01*
X74675Y407121D01*
X74675Y410759D01*
X76067Y414120D01*
X78640Y416693D01*
X82001Y418085D01*
X100879Y418085D01*
X104240Y416693D01*
X106813Y414120D01*
X108205Y410759D01*
X108205Y407121D01*
X106813Y403760D01*
X104240Y401187D01*
X100879Y399795D01*
X82001Y399795D01*
G37*
%LPD*%
%LPC*%
G36*
X82001Y348995D02*
X82001Y348995D01*
X78640Y350387D01*
X76067Y352960D01*
X74675Y356321D01*
X74675Y359959D01*
X76067Y363320D01*
X78640Y365893D01*
X82001Y367285D01*
X100879Y367285D01*
X104240Y365893D01*
X106813Y363320D01*
X108205Y359959D01*
X108205Y356321D01*
X106813Y352960D01*
X104240Y350387D01*
X101425Y349221D01*
X100879Y348995D01*
X82001Y348995D01*
G37*
%LPD*%
%LPC*%
G36*
X82001Y374395D02*
X82001Y374395D01*
X78640Y375787D01*
X76067Y378360D01*
X74675Y381721D01*
X74675Y385359D01*
X76067Y388720D01*
X78640Y391293D01*
X80816Y392194D01*
X82001Y392685D01*
X100879Y392685D01*
X104240Y391293D01*
X106813Y388720D01*
X108205Y385359D01*
X108205Y381721D01*
X106813Y378360D01*
X104240Y375787D01*
X100879Y374395D01*
X82001Y374395D01*
G37*
%LPD*%
%LPC*%
G36*
X393818Y218175D02*
X393818Y218175D01*
X392925Y219068D01*
X392925Y238132D01*
X393818Y239025D01*
X410282Y239025D01*
X411175Y238132D01*
X411175Y219068D01*
X410282Y218175D01*
X393818Y218175D01*
G37*
%LPD*%
%LPC*%
G36*
X252748Y31775D02*
X252748Y31775D01*
X251855Y32668D01*
X251855Y49172D01*
X252748Y50065D01*
X269252Y50065D01*
X270145Y49172D01*
X270145Y32668D01*
X269252Y31775D01*
X252748Y31775D01*
G37*
%LPD*%
%LPC*%
G36*
X336106Y26535D02*
X336106Y26535D01*
X332421Y28061D01*
X329601Y30881D01*
X328075Y34566D01*
X328075Y38554D01*
X329601Y42239D01*
X332421Y45059D01*
X336106Y46585D01*
X340094Y46585D01*
X343779Y45059D01*
X346599Y42239D01*
X348125Y38554D01*
X348125Y34566D01*
X346599Y30881D01*
X343779Y28061D01*
X340094Y26535D01*
X336106Y26535D01*
G37*
%LPD*%
%LPC*%
G36*
X109219Y276859D02*
X109219Y276859D01*
X109219Y284481D01*
X115100Y284481D01*
X116679Y284231D01*
X118200Y283736D01*
X119625Y283010D01*
X120919Y282070D01*
X122050Y280939D01*
X122990Y279645D01*
X123716Y278220D01*
X124159Y276859D01*
X109219Y276859D01*
G37*
%LPD*%
%LPC*%
G36*
X109219Y264159D02*
X109219Y264159D01*
X109219Y271781D01*
X124159Y271781D01*
X123716Y270420D01*
X122990Y268995D01*
X122050Y267701D01*
X120919Y266570D01*
X119625Y265630D01*
X118200Y264904D01*
X116679Y264409D01*
X115100Y264159D01*
X109219Y264159D01*
G37*
%LPD*%
%LPC*%
G36*
X417539Y43459D02*
X417539Y43459D01*
X417539Y51081D01*
X422955Y51081D01*
X423601Y50908D01*
X424180Y50573D01*
X424653Y50100D01*
X424988Y49521D01*
X425161Y48875D01*
X425161Y43459D01*
X417539Y43459D01*
G37*
%LPD*%
%LPC*%
G36*
X404839Y43459D02*
X404839Y43459D01*
X404839Y48875D01*
X405012Y49521D01*
X405347Y50100D01*
X405820Y50573D01*
X406399Y50908D01*
X407045Y51081D01*
X412461Y51081D01*
X412461Y43459D01*
X404839Y43459D01*
G37*
%LPD*%
%LPC*%
G36*
X417539Y30759D02*
X417539Y30759D01*
X417539Y38381D01*
X425161Y38381D01*
X425161Y32965D01*
X424988Y32319D01*
X424653Y31740D01*
X424180Y31267D01*
X423601Y30932D01*
X422955Y30759D01*
X417539Y30759D01*
G37*
%LPD*%
%LPC*%
G36*
X407045Y30759D02*
X407045Y30759D01*
X406399Y30932D01*
X405820Y31267D01*
X405347Y31740D01*
X405012Y32319D01*
X404839Y32965D01*
X404839Y38381D01*
X412461Y38381D01*
X412461Y30759D01*
X407045Y30759D01*
G37*
%LPD*%
%LPC*%
G36*
X32229Y388829D02*
X32229Y388829D01*
X32229Y396796D01*
X33718Y396312D01*
X35267Y395523D01*
X36673Y394501D01*
X37901Y393273D01*
X38923Y391867D01*
X39712Y390318D01*
X40196Y388829D01*
X32229Y388829D01*
G37*
%LPD*%
%LPC*%
G36*
X375849Y39309D02*
X375849Y39309D01*
X375849Y47276D01*
X377338Y46792D01*
X378887Y46003D01*
X380293Y44981D01*
X381521Y43753D01*
X382543Y42347D01*
X383332Y40798D01*
X383816Y39309D01*
X375849Y39309D01*
G37*
%LPD*%
%LPC*%
G36*
X18764Y388829D02*
X18764Y388829D01*
X19248Y390318D01*
X20037Y391867D01*
X21059Y393273D01*
X22287Y394501D01*
X23693Y395523D01*
X25242Y396312D01*
X26731Y396796D01*
X26731Y388829D01*
X18764Y388829D01*
G37*
%LPD*%
%LPC*%
G36*
X32229Y383331D02*
X32229Y383331D01*
X40196Y383331D01*
X39712Y381842D01*
X38923Y380293D01*
X37901Y378887D01*
X36673Y377659D01*
X35267Y376637D01*
X33718Y375848D01*
X32229Y375364D01*
X32229Y383331D01*
G37*
%LPD*%
%LPC*%
G36*
X362384Y39309D02*
X362384Y39309D01*
X362868Y40798D01*
X363657Y42347D01*
X364679Y43753D01*
X365907Y44981D01*
X367313Y46003D01*
X368862Y46792D01*
X370351Y47276D01*
X370351Y39309D01*
X362384Y39309D01*
G37*
%LPD*%
%LPC*%
G36*
X375849Y33811D02*
X375849Y33811D01*
X383816Y33811D01*
X383332Y32322D01*
X382543Y30773D01*
X381521Y29367D01*
X380293Y28139D01*
X378887Y27117D01*
X377338Y26328D01*
X375849Y25844D01*
X375849Y33811D01*
G37*
%LPD*%
%LPC*%
G36*
X25242Y375848D02*
X25242Y375848D01*
X23693Y376637D01*
X22287Y377659D01*
X21059Y378887D01*
X20037Y380293D01*
X19248Y381842D01*
X18764Y383331D01*
X26731Y383331D01*
X26731Y375364D01*
X25242Y375848D01*
G37*
%LPD*%
%LPC*%
G36*
X368862Y26328D02*
X368862Y26328D01*
X367313Y27117D01*
X365907Y28139D01*
X364679Y29367D01*
X363657Y30773D01*
X362868Y32322D01*
X362384Y33811D01*
X370351Y33811D01*
X370351Y25844D01*
X368862Y26328D01*
G37*
%LPD*%
%LPC*%
G36*
X122681Y235991D02*
X122681Y235991D01*
X122681Y247501D01*
X123985Y247501D01*
X124631Y247328D01*
X125210Y246993D01*
X125683Y246520D01*
X126018Y245941D01*
X126191Y245295D01*
X126191Y235991D01*
X122681Y235991D01*
G37*
%LPD*%
%LPC*%
G36*
X122681Y220419D02*
X122681Y220419D01*
X122681Y231929D01*
X126191Y231929D01*
X126191Y222625D01*
X126018Y221979D01*
X125683Y221400D01*
X125210Y220927D01*
X124631Y220592D01*
X123985Y220419D01*
X122681Y220419D01*
G37*
%LPD*%
%LPC*%
G36*
X26209Y235991D02*
X26209Y235991D01*
X26209Y245295D01*
X26382Y245941D01*
X26717Y246520D01*
X27190Y246993D01*
X27769Y247328D01*
X28415Y247501D01*
X29719Y247501D01*
X29719Y235991D01*
X26209Y235991D01*
G37*
%LPD*%
D10*
X402050Y279400D03*
X402050Y254000D03*
X402050Y228600D03*
X309150Y228600D03*
X309150Y254000D03*
X309150Y279400D03*
D11*
X60960Y77220D03*
X60960Y105660D03*
X35560Y77220D03*
X35560Y105660D03*
X86360Y105660D03*
X86360Y77220D03*
X426720Y258060D03*
X426720Y229620D03*
D12*
X244860Y254000D03*
X273300Y254000D03*
D13*
X203200Y314960D03*
X203200Y340360D03*
X203200Y289560D03*
D14*
X48260Y25860D03*
X73660Y25860D03*
X99060Y25860D03*
X124460Y25860D03*
X124460Y51260D03*
X99060Y51260D03*
X73660Y51260D03*
X48260Y51260D03*
D15*
X406611Y411230D03*
X355811Y411230D03*
X305011Y411230D03*
X254211Y411230D03*
X203411Y411230D03*
X152611Y411230D03*
D16*
X363000Y334920D03*
X313000Y334920D03*
X415000Y40920D03*
X261000Y40920D03*
D11*
X426720Y156460D03*
X426720Y128020D03*
D12*
X244860Y177800D03*
X273300Y177800D03*
D10*
X402050Y177800D03*
X402050Y152400D03*
X402050Y127000D03*
X309150Y127000D03*
X309150Y152400D03*
X309150Y177800D03*
D13*
X203200Y203200D03*
X203200Y228600D03*
X203200Y177800D03*
D17*
X114300Y274320D02*
X99060Y274320D01*
X99060Y299720D02*
X114300Y299720D01*
X114300Y325120D02*
X99060Y325120D01*
D18*
X373100Y36560D03*
X338100Y36560D03*
D19*
X44450Y233960D03*
X69850Y141960D03*
X31750Y233960D03*
X57150Y233960D03*
X69850Y233960D03*
X57150Y141960D03*
X82550Y141960D03*
X95250Y141960D03*
X95250Y233960D03*
X120650Y141960D03*
X82550Y233960D03*
X107950Y233960D03*
X107950Y141960D03*
X120650Y233960D03*
X44450Y141960D03*
X31750Y141960D03*
D17*
X284480Y358140D02*
X284480Y373380D01*
X335280Y373380D02*
X335280Y358140D01*
D18*
X29480Y421080D03*
X29480Y386080D03*
X29480Y351080D03*
D17*
X83820Y358140D02*
X99060Y358140D01*
X99060Y383540D02*
X83820Y383540D01*
X83820Y408940D02*
X99060Y408940D01*
X99060Y434340D02*
X83820Y434340D01*
D20*
X426720Y258060D02*
X425060Y254000D01*
X402050Y254000D01*
D21*
X309150Y228600D02*
X289560Y228600D01*
X273300Y244860D01*
X273300Y254000D01*
D22*
X99060Y64520D02*
X99060Y51260D01*
X99060Y64520D02*
X86360Y77220D01*
D23*
X51102Y154223D02*
X52888Y156008D01*
X74113Y156008D02*
X75898Y154223D01*
X78685Y121280D02*
X98531Y121280D01*
X102995Y116816D02*
X102995Y94504D01*
X102995Y116816D02*
X98531Y121280D01*
X51102Y148612D02*
X44450Y141960D01*
X51102Y148612D02*
X51102Y154223D01*
X75898Y124067D02*
X78685Y121280D01*
X86360Y77869D02*
X86360Y77220D01*
X75898Y124067D02*
X75898Y154223D01*
X102995Y94504D02*
X86360Y77869D01*
X74113Y156008D02*
X52888Y156008D01*
D24*
X116840Y111760D03*
D23*
X116840Y58880D01*
X124460Y51260D01*
D21*
X244860Y254000D02*
X209300Y289560D01*
X203200Y289560D01*
D23*
X60960Y38560D02*
X73660Y25860D01*
D25*
X60960Y38560D02*
X60960Y77220D01*
D20*
X386080Y279400D02*
X402050Y279400D01*
X386080Y279400D02*
X381000Y274320D01*
X381000Y177800D01*
D26*
X198120Y91440D03*
D20*
X381000Y91440D02*
X381000Y177800D01*
X218440Y91440D02*
X198120Y91440D01*
X218440Y91440D02*
X233680Y76200D01*
X365760Y76200D01*
X381000Y91440D01*
X381000Y177800D02*
X402050Y177800D01*
D23*
X60960Y105660D02*
X35560Y105660D01*
X60960Y105660D02*
X86360Y105660D01*
D22*
X31750Y109470D02*
X31750Y141960D01*
X31750Y109470D02*
X35560Y105660D01*
D24*
X35560Y163580D03*
D23*
X35560Y162560D01*
X31750Y158750D02*
X31750Y141960D01*
X31750Y158750D02*
X35560Y162560D01*
D27*
X15240Y132080D03*
D23*
X15240Y116840D01*
X26420Y105660D01*
X35560Y105660D01*
X63802Y135308D02*
X57150Y141960D01*
X63802Y135308D02*
X63802Y129698D01*
X96638Y116708D02*
X98423Y114923D01*
X98423Y96398D01*
X96638Y94612D01*
X96638Y116708D02*
X76792Y116708D01*
X63802Y129698D01*
X73660Y94612D02*
X73660Y51260D01*
X73660Y94612D02*
X96638Y94612D01*
D28*
X335280Y365760D02*
X355811Y411230D01*
D21*
X406400Y411441D02*
X406611Y411230D01*
D28*
X406400Y411441D02*
X406400Y436880D01*
X406611Y378531D02*
X363000Y334920D01*
X406611Y378531D02*
X406611Y411230D01*
X406400Y436880D02*
X304800Y436880D01*
X203200Y436880D01*
X203411Y436669D01*
X203411Y411230D01*
X305011Y411230D02*
X305011Y436669D01*
X304800Y436880D01*
D20*
X426720Y156460D02*
X425060Y152400D01*
X402050Y152400D01*
D21*
X274411Y142149D02*
X273300Y142293D01*
X273300Y177800D01*
X274411Y142149D02*
X289560Y127000D01*
X309150Y127000D01*
X244860Y177800D02*
X203200Y177800D01*
D22*
X35560Y77220D02*
X35560Y60831D01*
X32512Y57783D01*
X32512Y41608D01*
X48260Y25860D01*
D28*
X203200Y340360D02*
X254211Y391371D01*
X254211Y411230D01*
X172720Y375459D02*
X172720Y259080D01*
X203200Y228600D01*
X172720Y375459D02*
X152611Y395568D01*
X152611Y411230D01*
D22*
X69850Y332730D02*
X69850Y233960D01*
X51500Y351080D02*
X29480Y351080D01*
X51500Y351080D02*
X69850Y332730D01*
X82550Y330200D02*
X82550Y233960D01*
X50800Y399760D02*
X29480Y421080D01*
X50800Y399760D02*
X50800Y365760D01*
X82550Y334010D01*
X82550Y330200D01*
D23*
X152400Y142240D02*
X152400Y76200D01*
X225059Y76200D01*
X231155Y70104D01*
X368285Y70104D02*
X391402Y93221D01*
X391402Y162563D01*
X394692Y165852D01*
X410913Y165852D01*
X426720Y181660D01*
X368285Y70104D02*
X231155Y70104D01*
X426720Y181660D02*
X426720Y229620D01*
X152400Y142240D02*
X106680Y187960D01*
D27*
X106680Y213360D03*
D29*
X106680Y187960D01*
X95250Y224790D02*
X95250Y233960D01*
X95250Y224790D02*
X106680Y213360D01*
D23*
X101298Y246223D02*
X99513Y248008D01*
X90988Y248008D01*
X89202Y246223D01*
X147828Y140346D02*
X147828Y74306D01*
X150506Y71628D01*
X101298Y240612D02*
X101298Y246223D01*
X101298Y240612D02*
X107950Y233960D01*
X89202Y246223D02*
X89202Y198972D01*
X98367Y189807D01*
X147828Y140346D01*
X223165Y71628D02*
X229261Y65532D01*
X395974Y97274D02*
X426720Y128020D01*
X370179Y65532D02*
X229261Y65532D01*
X370179Y65532D02*
X395974Y91327D01*
X395974Y97274D01*
X223165Y71628D02*
X150506Y71628D01*
D24*
X89150Y185670D03*
D23*
X94230Y185670D01*
X98367Y189807D01*
D28*
X203200Y203200D02*
X289560Y203200D01*
D30*
X309150Y183610D02*
X309150Y177800D01*
D28*
X309150Y183610D02*
X289560Y203200D01*
X335280Y208280D02*
X335280Y279400D01*
X335280Y208280D02*
X309150Y182150D01*
D21*
X309150Y177800D01*
D28*
X309150Y279400D02*
X335280Y279400D01*
X313000Y334920D02*
X284480Y365760D01*
X313000Y334920D02*
X309150Y279400D01*
X254000Y314960D02*
X284480Y365760D01*
X254000Y314960D02*
X203200Y314960D01*
D24*
X60960Y309880D03*
D23*
X120650Y161058D02*
X120650Y141960D01*
X63802Y301958D02*
X60960Y309880D01*
X102868Y178840D02*
X120650Y161058D01*
X102868Y178840D02*
X86321Y178840D01*
X63802Y201360D02*
X63802Y301958D01*
X63802Y201360D02*
X86321Y178840D01*
D24*
X45720Y309880D03*
D23*
X84428Y174268D02*
X100974Y174268D01*
X51102Y294338D02*
X45720Y309880D01*
X51102Y294338D02*
X51102Y207594D01*
X84428Y174268D01*
X100974Y174268D02*
X107950Y167293D01*
X107950Y141960D01*
D24*
X30480Y299720D03*
D23*
X95250Y156980D02*
X95250Y141960D01*
X38402Y291798D02*
X30480Y299720D01*
X38402Y291798D02*
X38402Y213828D01*
X95250Y156980D01*
D24*
X20320Y320040D03*
D23*
X15240Y314960D01*
X15240Y228600D01*
X82550Y161290D02*
X82550Y141960D01*
X82550Y161290D02*
X15240Y228600D01*
M02*
