G04 EAGLE Gerber RS-274X export*
G75*
%MOMM*%
%FSLAX34Y34*%
%LPD*%
%INTop Copper*%
%IPPOS*%
%AMOC8*
5,1,8,0,0,1.08239X$1,22.5*%
G01*
%ADD10R,1.500000X1.950000*%
%ADD11R,1.950000X1.500000*%
%ADD12R,1.803000X1.600000*%
%ADD13R,1.219200X2.235200*%
%ADD14R,3.600000X2.200000*%
%ADD15C,1.408000*%
%ADD16C,1.930400*%
%ADD17C,2.000000*%
%ADD18R,1.524000X1.524000*%
%ADD19C,1.524000*%
%ADD20C,1.700000*%
%ADD21R,1.500000X1.500000*%
%ADD22R,1.600000X1.803000*%
%ADD23C,0.304800*%
%ADD24C,0.203200*%
%ADD25C,0.756400*%
%ADD26C,0.609600*%
%ADD27R,1.006400X1.006400*%
%ADD28C,0.254000*%
%ADD29C,0.711200*%

G36*
X411529Y10166D02*
X411529Y10166D01*
X411594Y10164D01*
X415348Y10375D01*
X415353Y10375D01*
X415357Y10375D01*
X415686Y10422D01*
X423006Y12093D01*
X423064Y12113D01*
X423125Y12124D01*
X423308Y12195D01*
X423387Y12221D01*
X423408Y12233D01*
X423435Y12243D01*
X430199Y15501D01*
X430252Y15533D01*
X430309Y15558D01*
X430472Y15667D01*
X430543Y15711D01*
X430560Y15727D01*
X430584Y15743D01*
X436454Y20424D01*
X436499Y20467D01*
X436549Y20504D01*
X436683Y20647D01*
X436743Y20705D01*
X436756Y20724D01*
X436776Y20746D01*
X441457Y26616D01*
X441491Y26668D01*
X441531Y26714D01*
X441630Y26884D01*
X441676Y26954D01*
X441684Y26975D01*
X441699Y27001D01*
X444957Y33765D01*
X444978Y33823D01*
X445007Y33878D01*
X445066Y34065D01*
X445095Y34143D01*
X445098Y34167D01*
X445107Y34194D01*
X446778Y41514D01*
X446778Y41519D01*
X446780Y41524D01*
X446825Y41852D01*
X447036Y45606D01*
X447034Y45655D01*
X447039Y45720D01*
X447039Y299720D01*
X447037Y299738D01*
X447039Y299756D01*
X447018Y299938D01*
X446999Y300121D01*
X446994Y300138D01*
X446992Y300155D01*
X446935Y300330D01*
X446881Y300506D01*
X446873Y300521D01*
X446867Y300538D01*
X446777Y300698D01*
X446689Y300860D01*
X446678Y300873D01*
X446669Y300889D01*
X446549Y301028D01*
X446432Y301169D01*
X446418Y301180D01*
X446406Y301194D01*
X446261Y301306D01*
X446118Y301421D01*
X446102Y301429D01*
X446088Y301440D01*
X445923Y301522D01*
X445761Y301607D01*
X445744Y301612D01*
X445728Y301620D01*
X445549Y301667D01*
X445374Y301718D01*
X445356Y301720D01*
X445339Y301724D01*
X445008Y301751D01*
X355600Y301751D01*
X355582Y301749D01*
X355564Y301751D01*
X355382Y301730D01*
X355199Y301711D01*
X355182Y301706D01*
X355165Y301704D01*
X354990Y301647D01*
X354814Y301593D01*
X354799Y301585D01*
X354782Y301579D01*
X354622Y301489D01*
X354460Y301401D01*
X354447Y301390D01*
X354431Y301381D01*
X354292Y301261D01*
X354151Y301144D01*
X354140Y301130D01*
X354127Y301118D01*
X354014Y300973D01*
X353899Y300830D01*
X353891Y300814D01*
X353880Y300800D01*
X353798Y300635D01*
X353713Y300473D01*
X353708Y300456D01*
X353700Y300440D01*
X353652Y300260D01*
X353602Y300086D01*
X353600Y300068D01*
X353596Y300051D01*
X353569Y299720D01*
X353569Y117681D01*
X334439Y98551D01*
X265001Y98551D01*
X245871Y117681D01*
X245871Y137160D01*
X245869Y137187D01*
X245871Y137213D01*
X245849Y137387D01*
X245831Y137561D01*
X245824Y137586D01*
X245820Y137613D01*
X245765Y137778D01*
X245713Y137946D01*
X245700Y137969D01*
X245692Y137994D01*
X245605Y138146D01*
X245521Y138300D01*
X245504Y138320D01*
X245491Y138343D01*
X245276Y138596D01*
X235116Y148756D01*
X235096Y148773D01*
X235078Y148794D01*
X234940Y148901D01*
X234805Y149011D01*
X234781Y149024D01*
X234760Y149040D01*
X234603Y149118D01*
X234449Y149200D01*
X234424Y149208D01*
X234400Y149220D01*
X234230Y149265D01*
X234063Y149315D01*
X234037Y149317D01*
X234011Y149324D01*
X233680Y149351D01*
X179831Y149351D01*
X179831Y203200D01*
X179829Y203227D01*
X179831Y203253D01*
X179809Y203427D01*
X179791Y203601D01*
X179784Y203626D01*
X179780Y203653D01*
X179725Y203818D01*
X179673Y203986D01*
X179660Y204009D01*
X179652Y204034D01*
X179565Y204186D01*
X179481Y204340D01*
X179464Y204360D01*
X179451Y204383D01*
X179236Y204636D01*
X154431Y229441D01*
X154431Y320040D01*
X154429Y320067D01*
X154431Y320093D01*
X154409Y320267D01*
X154391Y320441D01*
X154384Y320466D01*
X154380Y320493D01*
X154325Y320658D01*
X154273Y320826D01*
X154260Y320849D01*
X154252Y320874D01*
X154165Y321026D01*
X154081Y321180D01*
X154064Y321200D01*
X154051Y321223D01*
X153836Y321476D01*
X113791Y361521D01*
X113791Y445008D01*
X113789Y445026D01*
X113791Y445044D01*
X113770Y445226D01*
X113751Y445409D01*
X113746Y445426D01*
X113744Y445443D01*
X113687Y445618D01*
X113633Y445794D01*
X113625Y445809D01*
X113619Y445826D01*
X113529Y445986D01*
X113441Y446148D01*
X113430Y446161D01*
X113421Y446177D01*
X113301Y446316D01*
X113184Y446457D01*
X113170Y446468D01*
X113158Y446482D01*
X113013Y446594D01*
X112870Y446709D01*
X112854Y446717D01*
X112840Y446728D01*
X112675Y446810D01*
X112513Y446895D01*
X112496Y446900D01*
X112480Y446908D01*
X112301Y446955D01*
X112126Y447006D01*
X112108Y447008D01*
X112091Y447012D01*
X111760Y447039D01*
X102509Y447039D01*
X102505Y447039D01*
X102500Y447039D01*
X102306Y447019D01*
X102109Y446999D01*
X102104Y446998D01*
X102100Y446998D01*
X101912Y446939D01*
X101724Y446881D01*
X101720Y446879D01*
X101716Y446878D01*
X101541Y446782D01*
X101370Y446689D01*
X101366Y446687D01*
X101362Y446684D01*
X101210Y446556D01*
X101061Y446432D01*
X101058Y446428D01*
X101054Y446425D01*
X100929Y446268D01*
X100808Y446118D01*
X100806Y446114D01*
X100803Y446111D01*
X100710Y445929D01*
X100623Y445761D01*
X100621Y445756D01*
X100619Y445752D01*
X100565Y445562D01*
X100511Y445374D01*
X100511Y445369D01*
X100510Y445365D01*
X100495Y445172D01*
X100478Y444972D01*
X100479Y444968D01*
X100479Y444964D01*
X100502Y444770D01*
X100525Y444573D01*
X100527Y444568D01*
X100527Y444564D01*
X100589Y444379D01*
X100650Y444190D01*
X100652Y444186D01*
X100654Y444182D01*
X100750Y444013D01*
X100848Y443839D01*
X100851Y443836D01*
X100853Y443832D01*
X100981Y443685D01*
X101111Y443535D01*
X101115Y443532D01*
X101118Y443528D01*
X101275Y443408D01*
X101429Y443288D01*
X101433Y443286D01*
X101437Y443283D01*
X101732Y443131D01*
X104240Y442093D01*
X106813Y439520D01*
X108205Y436159D01*
X108205Y432521D01*
X106813Y429160D01*
X104240Y426587D01*
X100879Y425195D01*
X87448Y425195D01*
X87422Y425193D01*
X87395Y425195D01*
X87221Y425173D01*
X87048Y425155D01*
X87022Y425148D01*
X86995Y425144D01*
X86830Y425089D01*
X86663Y425037D01*
X86639Y425024D01*
X86614Y425016D01*
X86463Y424929D01*
X86309Y424845D01*
X86288Y424828D01*
X86265Y424815D01*
X86012Y424600D01*
X82964Y421552D01*
X82958Y421545D01*
X82951Y421540D01*
X82831Y421390D01*
X82709Y421241D01*
X82705Y421233D01*
X82699Y421226D01*
X82611Y421056D01*
X82520Y420885D01*
X82518Y420876D01*
X82513Y420869D01*
X82460Y420684D01*
X82405Y420499D01*
X82405Y420490D01*
X82402Y420482D01*
X82386Y420291D01*
X82369Y420098D01*
X82370Y420089D01*
X82369Y420080D01*
X82391Y419891D01*
X82412Y419698D01*
X82415Y419689D01*
X82416Y419681D01*
X82475Y419499D01*
X82534Y419314D01*
X82538Y419306D01*
X82541Y419298D01*
X82636Y419129D01*
X82729Y418962D01*
X82734Y418955D01*
X82739Y418947D01*
X82865Y418801D01*
X82989Y418655D01*
X82996Y418649D01*
X83002Y418642D01*
X83153Y418525D01*
X83305Y418405D01*
X83313Y418401D01*
X83320Y418396D01*
X83492Y418310D01*
X83664Y418223D01*
X83673Y418220D01*
X83681Y418216D01*
X83867Y418166D01*
X84052Y418115D01*
X84061Y418114D01*
X84069Y418112D01*
X84400Y418085D01*
X100879Y418085D01*
X104240Y416693D01*
X106813Y414120D01*
X108205Y410759D01*
X108205Y407121D01*
X106813Y403760D01*
X104240Y401187D01*
X100879Y399795D01*
X87448Y399795D01*
X87422Y399793D01*
X87395Y399795D01*
X87221Y399773D01*
X87048Y399755D01*
X87022Y399748D01*
X86995Y399744D01*
X86830Y399689D01*
X86663Y399637D01*
X86639Y399624D01*
X86614Y399616D01*
X86462Y399529D01*
X86309Y399445D01*
X86288Y399428D01*
X86265Y399415D01*
X86012Y399200D01*
X82964Y396152D01*
X82958Y396145D01*
X82951Y396140D01*
X82831Y395990D01*
X82709Y395841D01*
X82705Y395833D01*
X82699Y395826D01*
X82610Y395655D01*
X82520Y395485D01*
X82518Y395477D01*
X82513Y395469D01*
X82460Y395283D01*
X82405Y395099D01*
X82405Y395090D01*
X82402Y395082D01*
X82386Y394890D01*
X82369Y394698D01*
X82370Y394689D01*
X82369Y394680D01*
X82391Y394491D01*
X82412Y394298D01*
X82415Y394289D01*
X82416Y394281D01*
X82475Y394099D01*
X82534Y393914D01*
X82538Y393906D01*
X82541Y393898D01*
X82636Y393729D01*
X82729Y393562D01*
X82734Y393555D01*
X82739Y393547D01*
X82865Y393401D01*
X82989Y393255D01*
X82996Y393249D01*
X83002Y393242D01*
X83154Y393125D01*
X83305Y393005D01*
X83313Y393001D01*
X83320Y392996D01*
X83492Y392910D01*
X83664Y392823D01*
X83673Y392820D01*
X83681Y392816D01*
X83867Y392766D01*
X84052Y392715D01*
X84061Y392714D01*
X84069Y392712D01*
X84400Y392685D01*
X100879Y392685D01*
X104240Y391293D01*
X106813Y388720D01*
X108205Y385359D01*
X108205Y381721D01*
X106813Y378360D01*
X104240Y375787D01*
X100879Y374395D01*
X87448Y374395D01*
X87422Y374393D01*
X87395Y374395D01*
X87221Y374373D01*
X87048Y374355D01*
X87022Y374348D01*
X86995Y374344D01*
X86830Y374289D01*
X86663Y374237D01*
X86639Y374224D01*
X86614Y374216D01*
X86462Y374129D01*
X86309Y374045D01*
X86288Y374028D01*
X86265Y374015D01*
X86012Y373800D01*
X82964Y370752D01*
X82958Y370745D01*
X82951Y370740D01*
X82831Y370590D01*
X82709Y370441D01*
X82705Y370433D01*
X82699Y370426D01*
X82610Y370255D01*
X82520Y370085D01*
X82518Y370077D01*
X82513Y370069D01*
X82460Y369883D01*
X82405Y369699D01*
X82405Y369690D01*
X82402Y369682D01*
X82386Y369490D01*
X82369Y369298D01*
X82370Y369289D01*
X82369Y369280D01*
X82391Y369091D01*
X82412Y368898D01*
X82415Y368889D01*
X82416Y368881D01*
X82475Y368699D01*
X82534Y368514D01*
X82538Y368506D01*
X82541Y368498D01*
X82636Y368329D01*
X82729Y368162D01*
X82734Y368155D01*
X82739Y368147D01*
X82865Y368001D01*
X82989Y367855D01*
X82996Y367849D01*
X83002Y367842D01*
X83153Y367725D01*
X83305Y367605D01*
X83313Y367601D01*
X83320Y367596D01*
X83492Y367510D01*
X83664Y367423D01*
X83673Y367420D01*
X83681Y367416D01*
X83867Y367366D01*
X84052Y367315D01*
X84061Y367314D01*
X84069Y367312D01*
X84400Y367285D01*
X100879Y367285D01*
X104240Y365893D01*
X106813Y363320D01*
X108205Y359959D01*
X108205Y356321D01*
X106813Y352960D01*
X104240Y350387D01*
X101425Y349221D01*
X100879Y348995D01*
X96520Y348995D01*
X96502Y348993D01*
X96484Y348995D01*
X96302Y348974D01*
X96119Y348955D01*
X96102Y348950D01*
X96085Y348948D01*
X95910Y348891D01*
X95734Y348837D01*
X95719Y348829D01*
X95702Y348823D01*
X95542Y348733D01*
X95380Y348645D01*
X95367Y348634D01*
X95351Y348625D01*
X95212Y348505D01*
X95071Y348388D01*
X95060Y348374D01*
X95046Y348362D01*
X94934Y348217D01*
X94819Y348074D01*
X94811Y348058D01*
X94800Y348044D01*
X94718Y347879D01*
X94633Y347717D01*
X94628Y347700D01*
X94620Y347684D01*
X94573Y347505D01*
X94522Y347330D01*
X94520Y347312D01*
X94516Y347295D01*
X94489Y346964D01*
X94489Y345635D01*
X94495Y345570D01*
X94495Y345479D01*
X94587Y344276D01*
X93734Y343422D01*
X93693Y343372D01*
X93628Y343308D01*
X66756Y311957D01*
X66670Y311834D01*
X66578Y311715D01*
X66555Y311669D01*
X66525Y311627D01*
X66465Y311489D01*
X66398Y311355D01*
X66385Y311305D01*
X66365Y311258D01*
X66333Y311111D01*
X66294Y310966D01*
X66289Y310908D01*
X66280Y310864D01*
X66279Y310779D01*
X66267Y310635D01*
X66267Y308824D01*
X65459Y306874D01*
X63966Y305381D01*
X62016Y304573D01*
X59904Y304573D01*
X57954Y305381D01*
X56461Y306874D01*
X55653Y308824D01*
X55653Y310598D01*
X55652Y310607D01*
X55653Y310616D01*
X55633Y310806D01*
X55613Y310998D01*
X55611Y311007D01*
X55610Y311016D01*
X55552Y311199D01*
X55495Y311383D01*
X55491Y311391D01*
X55488Y311400D01*
X55395Y311568D01*
X55303Y311737D01*
X55298Y311744D01*
X55293Y311752D01*
X55169Y311899D01*
X55046Y312047D01*
X55039Y312052D01*
X55033Y312059D01*
X54882Y312178D01*
X54732Y312299D01*
X54724Y312303D01*
X54717Y312309D01*
X54544Y312397D01*
X54375Y312485D01*
X54366Y312487D01*
X54358Y312491D01*
X54171Y312543D01*
X53988Y312596D01*
X53979Y312597D01*
X53970Y312599D01*
X53778Y312613D01*
X53586Y312629D01*
X53578Y312628D01*
X53569Y312628D01*
X53377Y312604D01*
X53187Y312582D01*
X53178Y312579D01*
X53169Y312578D01*
X52987Y312517D01*
X52804Y312457D01*
X52796Y312453D01*
X52788Y312450D01*
X52620Y312354D01*
X52453Y312259D01*
X52446Y312253D01*
X52439Y312249D01*
X52186Y312034D01*
X51622Y311470D01*
X51605Y311449D01*
X51584Y311432D01*
X51477Y311294D01*
X51367Y311159D01*
X51354Y311135D01*
X51338Y311114D01*
X51260Y310957D01*
X51178Y310803D01*
X51170Y310777D01*
X51158Y310753D01*
X51113Y310584D01*
X51063Y310417D01*
X51061Y310390D01*
X51054Y310365D01*
X51027Y310034D01*
X51027Y308824D01*
X50219Y306874D01*
X48726Y305381D01*
X46776Y304573D01*
X44664Y304573D01*
X42714Y305381D01*
X41221Y306874D01*
X41109Y307145D01*
X41102Y307157D01*
X41098Y307170D01*
X41008Y307334D01*
X40919Y307500D01*
X40910Y307511D01*
X40904Y307522D01*
X40782Y307666D01*
X40662Y307811D01*
X40652Y307819D01*
X40643Y307829D01*
X40496Y307945D01*
X40350Y308064D01*
X40338Y308071D01*
X40327Y308079D01*
X40160Y308164D01*
X39993Y308251D01*
X39980Y308255D01*
X39968Y308261D01*
X39787Y308312D01*
X39607Y308364D01*
X39593Y308366D01*
X39580Y308369D01*
X39392Y308383D01*
X39206Y308399D01*
X39192Y308398D01*
X39179Y308399D01*
X38992Y308375D01*
X38805Y308354D01*
X38793Y308350D01*
X38779Y308348D01*
X38602Y308288D01*
X38422Y308231D01*
X38410Y308224D01*
X38398Y308220D01*
X38235Y308126D01*
X38071Y308034D01*
X38060Y308026D01*
X38049Y308019D01*
X37796Y307804D01*
X35276Y305285D01*
X35262Y305267D01*
X35245Y305253D01*
X35135Y305112D01*
X35021Y304973D01*
X35011Y304954D01*
X34997Y304936D01*
X34916Y304775D01*
X34833Y304617D01*
X34826Y304596D01*
X34816Y304576D01*
X34769Y304403D01*
X34718Y304232D01*
X34716Y304209D01*
X34710Y304188D01*
X34698Y304009D01*
X34681Y303831D01*
X34684Y303808D01*
X34682Y303786D01*
X34705Y303609D01*
X34725Y303430D01*
X34731Y303409D01*
X34734Y303387D01*
X34836Y303071D01*
X35787Y300776D01*
X35787Y298664D01*
X34979Y296714D01*
X33486Y295221D01*
X31536Y294413D01*
X29424Y294413D01*
X27474Y295221D01*
X25981Y296714D01*
X25173Y298664D01*
X25173Y300776D01*
X25981Y302726D01*
X26836Y303581D01*
X26853Y303602D01*
X26874Y303619D01*
X26981Y303757D01*
X27091Y303893D01*
X27104Y303916D01*
X27120Y303937D01*
X27198Y304094D01*
X27280Y304248D01*
X27288Y304274D01*
X27300Y304298D01*
X27345Y304467D01*
X27395Y304634D01*
X27397Y304661D01*
X27404Y304687D01*
X27431Y305018D01*
X27431Y306063D01*
X29812Y308444D01*
X34892Y313524D01*
X34898Y313531D01*
X34905Y313536D01*
X35025Y313686D01*
X35147Y313835D01*
X35151Y313843D01*
X35157Y313850D01*
X35245Y314020D01*
X35336Y314191D01*
X35338Y314200D01*
X35343Y314207D01*
X35396Y314392D01*
X35451Y314577D01*
X35451Y314586D01*
X35454Y314594D01*
X35470Y314786D01*
X35487Y314978D01*
X35486Y314987D01*
X35487Y314996D01*
X35465Y315185D01*
X35444Y315378D01*
X35441Y315387D01*
X35440Y315395D01*
X35381Y315577D01*
X35322Y315762D01*
X35318Y315770D01*
X35315Y315778D01*
X35221Y315946D01*
X35127Y316114D01*
X35122Y316121D01*
X35117Y316129D01*
X34991Y316275D01*
X34867Y316421D01*
X34860Y316427D01*
X34854Y316434D01*
X34703Y316551D01*
X34551Y316671D01*
X34543Y316675D01*
X34536Y316680D01*
X34364Y316766D01*
X34192Y316853D01*
X34183Y316856D01*
X34175Y316860D01*
X33989Y316910D01*
X33804Y316961D01*
X33795Y316962D01*
X33787Y316964D01*
X33456Y316991D01*
X25618Y316991D01*
X25591Y316989D01*
X25564Y316991D01*
X25390Y316969D01*
X25217Y316951D01*
X25191Y316944D01*
X25165Y316940D01*
X24999Y316885D01*
X24832Y316833D01*
X24808Y316820D01*
X24783Y316812D01*
X24631Y316725D01*
X24478Y316641D01*
X24457Y316624D01*
X24434Y316611D01*
X24181Y316396D01*
X23326Y315541D01*
X21376Y314733D01*
X19264Y314733D01*
X17314Y315541D01*
X15821Y317034D01*
X15013Y318984D01*
X15013Y321096D01*
X15821Y323046D01*
X17314Y324539D01*
X18820Y325162D01*
X18820Y325163D01*
X19264Y325347D01*
X21376Y325347D01*
X23326Y324539D01*
X24181Y323684D01*
X24202Y323667D01*
X24219Y323646D01*
X24357Y323539D01*
X24493Y323429D01*
X24516Y323416D01*
X24537Y323400D01*
X24694Y323322D01*
X24848Y323240D01*
X24874Y323232D01*
X24898Y323220D01*
X25067Y323175D01*
X25234Y323125D01*
X25261Y323123D01*
X25287Y323116D01*
X25618Y323089D01*
X33456Y323089D01*
X33482Y323091D01*
X33509Y323089D01*
X33683Y323111D01*
X33856Y323129D01*
X33882Y323136D01*
X33909Y323140D01*
X34074Y323195D01*
X34241Y323247D01*
X34265Y323260D01*
X34290Y323268D01*
X34442Y323355D01*
X34595Y323439D01*
X34616Y323456D01*
X34639Y323469D01*
X34892Y323684D01*
X57316Y346108D01*
X57333Y346129D01*
X57354Y346146D01*
X57461Y346284D01*
X57571Y346419D01*
X57584Y346443D01*
X57600Y346464D01*
X57678Y346621D01*
X57760Y346775D01*
X57768Y346801D01*
X57780Y346825D01*
X57825Y346994D01*
X57875Y347161D01*
X57877Y347188D01*
X57884Y347213D01*
X57911Y347544D01*
X57911Y405123D01*
X60292Y407504D01*
X77572Y424783D01*
X77583Y424797D01*
X77597Y424808D01*
X77710Y424953D01*
X77827Y425095D01*
X77835Y425110D01*
X77846Y425124D01*
X77929Y425288D01*
X78015Y425450D01*
X78020Y425467D01*
X78028Y425483D01*
X78078Y425661D01*
X78130Y425836D01*
X78132Y425854D01*
X78136Y425871D01*
X78150Y426054D01*
X78166Y426237D01*
X78165Y426255D01*
X78166Y426273D01*
X78143Y426455D01*
X78123Y426637D01*
X78118Y426655D01*
X78115Y426672D01*
X78057Y426846D01*
X78002Y427021D01*
X77993Y427037D01*
X77987Y427054D01*
X77895Y427213D01*
X77807Y427374D01*
X77795Y427387D01*
X77786Y427403D01*
X77572Y427656D01*
X76067Y429160D01*
X74675Y432521D01*
X74675Y436159D01*
X76067Y439520D01*
X78640Y442093D01*
X81148Y443131D01*
X81152Y443133D01*
X81156Y443135D01*
X81329Y443228D01*
X81503Y443322D01*
X81506Y443324D01*
X81510Y443327D01*
X81659Y443451D01*
X81813Y443578D01*
X81816Y443581D01*
X81819Y443584D01*
X81942Y443737D01*
X82067Y443891D01*
X82069Y443895D01*
X82072Y443898D01*
X82162Y444071D01*
X82254Y444247D01*
X82255Y444251D01*
X82257Y444255D01*
X82311Y444443D01*
X82367Y444634D01*
X82367Y444638D01*
X82369Y444642D01*
X82385Y444840D01*
X82402Y445035D01*
X82401Y445039D01*
X82402Y445044D01*
X82379Y445238D01*
X82357Y445435D01*
X82355Y445439D01*
X82355Y445443D01*
X82294Y445629D01*
X82233Y445818D01*
X82231Y445822D01*
X82230Y445826D01*
X82133Y445998D01*
X82037Y446170D01*
X82034Y446173D01*
X82032Y446177D01*
X81904Y446325D01*
X81775Y446475D01*
X81772Y446478D01*
X81769Y446482D01*
X81614Y446602D01*
X81458Y446724D01*
X81454Y446726D01*
X81451Y446728D01*
X81273Y446817D01*
X81098Y446904D01*
X81094Y446906D01*
X81090Y446908D01*
X80898Y446959D01*
X80710Y447011D01*
X80706Y447011D01*
X80701Y447012D01*
X80371Y447039D01*
X45720Y447039D01*
X45671Y447034D01*
X45606Y447036D01*
X41852Y446825D01*
X41847Y446825D01*
X41843Y446825D01*
X41514Y446778D01*
X34194Y445107D01*
X34136Y445087D01*
X34075Y445076D01*
X33892Y445005D01*
X33813Y444979D01*
X33792Y444967D01*
X33765Y444957D01*
X27001Y441699D01*
X26948Y441667D01*
X26891Y441642D01*
X26728Y441533D01*
X26657Y441489D01*
X26640Y441473D01*
X26616Y441457D01*
X20746Y436776D01*
X20701Y436733D01*
X20651Y436696D01*
X20517Y436553D01*
X20457Y436495D01*
X20444Y436476D01*
X20424Y436454D01*
X15743Y430584D01*
X15709Y430532D01*
X15669Y430486D01*
X15569Y430316D01*
X15524Y430246D01*
X15516Y430225D01*
X15501Y430199D01*
X12243Y423435D01*
X12222Y423377D01*
X12193Y423322D01*
X12134Y423135D01*
X12105Y423057D01*
X12102Y423034D01*
X12093Y423006D01*
X10422Y415686D01*
X10422Y415681D01*
X10420Y415677D01*
X10375Y415348D01*
X10164Y411594D01*
X10166Y411545D01*
X10161Y411480D01*
X10161Y291971D01*
X10163Y291953D01*
X10161Y291935D01*
X10182Y291753D01*
X10201Y291570D01*
X10206Y291553D01*
X10208Y291536D01*
X10265Y291361D01*
X10319Y291185D01*
X10327Y291170D01*
X10333Y291153D01*
X10423Y290993D01*
X10511Y290831D01*
X10522Y290818D01*
X10531Y290802D01*
X10651Y290663D01*
X10768Y290522D01*
X10782Y290511D01*
X10794Y290497D01*
X10939Y290385D01*
X11082Y290270D01*
X11098Y290262D01*
X11112Y290251D01*
X11277Y290169D01*
X11439Y290084D01*
X11456Y290079D01*
X11472Y290071D01*
X11651Y290024D01*
X11826Y289973D01*
X11844Y289971D01*
X11861Y289967D01*
X12192Y289940D01*
X29972Y289940D01*
X30865Y289047D01*
X30865Y269753D01*
X29972Y268860D01*
X26166Y268860D01*
X26148Y268858D01*
X26130Y268860D01*
X25948Y268839D01*
X25765Y268820D01*
X25748Y268815D01*
X25731Y268813D01*
X25556Y268756D01*
X25380Y268702D01*
X25365Y268694D01*
X25348Y268688D01*
X25188Y268598D01*
X25026Y268510D01*
X25013Y268499D01*
X24997Y268490D01*
X24858Y268370D01*
X24717Y268253D01*
X24706Y268239D01*
X24692Y268227D01*
X24580Y268082D01*
X24465Y267939D01*
X24457Y267923D01*
X24446Y267909D01*
X24364Y267744D01*
X24279Y267582D01*
X24274Y267565D01*
X24266Y267549D01*
X24219Y267370D01*
X24168Y267195D01*
X24166Y267177D01*
X24162Y267160D01*
X24135Y266829D01*
X24135Y265056D01*
X24137Y265038D01*
X24135Y265020D01*
X24156Y264838D01*
X24175Y264655D01*
X24180Y264638D01*
X24182Y264621D01*
X24239Y264446D01*
X24293Y264270D01*
X24301Y264255D01*
X24307Y264238D01*
X24397Y264078D01*
X24485Y263916D01*
X24496Y263903D01*
X24505Y263887D01*
X24625Y263748D01*
X24742Y263607D01*
X24756Y263596D01*
X24768Y263582D01*
X24913Y263470D01*
X25056Y263355D01*
X25072Y263347D01*
X25086Y263336D01*
X25251Y263254D01*
X25413Y263169D01*
X25430Y263164D01*
X25446Y263156D01*
X25625Y263109D01*
X25800Y263058D01*
X25818Y263056D01*
X25835Y263052D01*
X26166Y263025D01*
X26192Y263025D01*
X27085Y262132D01*
X27085Y245868D01*
X26192Y244975D01*
X12192Y244975D01*
X12174Y244973D01*
X12156Y244975D01*
X11974Y244954D01*
X11791Y244935D01*
X11774Y244930D01*
X11757Y244928D01*
X11582Y244871D01*
X11406Y244817D01*
X11391Y244809D01*
X11374Y244803D01*
X11214Y244713D01*
X11052Y244625D01*
X11039Y244614D01*
X11023Y244605D01*
X10884Y244485D01*
X10743Y244368D01*
X10732Y244354D01*
X10718Y244342D01*
X10606Y244197D01*
X10491Y244054D01*
X10483Y244038D01*
X10472Y244024D01*
X10390Y243859D01*
X10305Y243697D01*
X10300Y243680D01*
X10292Y243664D01*
X10245Y243485D01*
X10194Y243310D01*
X10192Y243292D01*
X10188Y243275D01*
X10161Y242944D01*
X10161Y239656D01*
X10163Y239638D01*
X10161Y239620D01*
X10182Y239438D01*
X10201Y239255D01*
X10206Y239238D01*
X10208Y239221D01*
X10265Y239046D01*
X10319Y238870D01*
X10327Y238855D01*
X10333Y238838D01*
X10423Y238678D01*
X10511Y238516D01*
X10522Y238503D01*
X10531Y238487D01*
X10651Y238348D01*
X10768Y238207D01*
X10782Y238196D01*
X10794Y238182D01*
X10939Y238070D01*
X11082Y237955D01*
X11098Y237947D01*
X11112Y237936D01*
X11277Y237854D01*
X11439Y237769D01*
X11456Y237764D01*
X11472Y237756D01*
X11651Y237709D01*
X11826Y237658D01*
X11844Y237656D01*
X11861Y237652D01*
X12192Y237625D01*
X26192Y237625D01*
X27085Y236732D01*
X27085Y224728D01*
X27087Y224702D01*
X27085Y224675D01*
X27107Y224501D01*
X27125Y224328D01*
X27132Y224302D01*
X27136Y224275D01*
X27191Y224110D01*
X27243Y223943D01*
X27256Y223919D01*
X27264Y223894D01*
X27351Y223742D01*
X27435Y223589D01*
X27452Y223568D01*
X27465Y223545D01*
X27680Y223292D01*
X29276Y221696D01*
X29297Y221679D01*
X29314Y221658D01*
X29452Y221551D01*
X29587Y221441D01*
X29611Y221428D01*
X29632Y221412D01*
X29789Y221334D01*
X29943Y221252D01*
X29969Y221244D01*
X29993Y221232D01*
X30162Y221187D01*
X30329Y221137D01*
X30356Y221135D01*
X30381Y221128D01*
X30712Y221101D01*
X42004Y221101D01*
X42022Y221103D01*
X42040Y221101D01*
X42222Y221122D01*
X42405Y221141D01*
X42422Y221146D01*
X42439Y221148D01*
X42614Y221205D01*
X42790Y221259D01*
X42805Y221267D01*
X42822Y221273D01*
X42982Y221363D01*
X43144Y221451D01*
X43157Y221462D01*
X43173Y221471D01*
X43312Y221591D01*
X43453Y221708D01*
X43464Y221722D01*
X43478Y221734D01*
X43590Y221879D01*
X43705Y222022D01*
X43713Y222038D01*
X43724Y222052D01*
X43806Y222217D01*
X43891Y222379D01*
X43896Y222396D01*
X43904Y222412D01*
X43951Y222591D01*
X44002Y222766D01*
X44004Y222784D01*
X44008Y222801D01*
X44035Y223132D01*
X44035Y236732D01*
X44928Y237625D01*
X60579Y237625D01*
X60588Y237626D01*
X60597Y237625D01*
X60789Y237646D01*
X60980Y237665D01*
X60988Y237667D01*
X60997Y237668D01*
X61179Y237726D01*
X61365Y237783D01*
X61373Y237787D01*
X61381Y237790D01*
X61549Y237883D01*
X61719Y237975D01*
X61725Y237980D01*
X61733Y237985D01*
X61880Y238109D01*
X62028Y238232D01*
X62034Y238239D01*
X62040Y238245D01*
X62159Y238395D01*
X62280Y238546D01*
X62284Y238554D01*
X62290Y238561D01*
X62378Y238734D01*
X62466Y238903D01*
X62468Y238912D01*
X62472Y238920D01*
X62524Y239106D01*
X62577Y239290D01*
X62578Y239299D01*
X62580Y239308D01*
X62594Y239501D01*
X62610Y239692D01*
X62609Y239700D01*
X62610Y239709D01*
X62585Y239902D01*
X62563Y240091D01*
X62560Y240100D01*
X62559Y240109D01*
X62498Y240292D01*
X62438Y240474D01*
X62434Y240482D01*
X62431Y240490D01*
X62335Y240657D01*
X62240Y240825D01*
X62235Y240832D01*
X62230Y240839D01*
X62015Y241092D01*
X58727Y244380D01*
X58707Y244397D01*
X58689Y244418D01*
X58551Y244524D01*
X58416Y244635D01*
X58392Y244648D01*
X58371Y244664D01*
X58215Y244742D01*
X58060Y244824D01*
X58034Y244832D01*
X58011Y244844D01*
X57842Y244889D01*
X57674Y244939D01*
X57648Y244941D01*
X57622Y244948D01*
X57291Y244975D01*
X44928Y244975D01*
X44035Y245868D01*
X44035Y262132D01*
X44928Y263025D01*
X59752Y263025D01*
X59778Y263027D01*
X59805Y263025D01*
X59979Y263047D01*
X60152Y263065D01*
X60178Y263072D01*
X60205Y263076D01*
X60370Y263132D01*
X60537Y263183D01*
X60561Y263196D01*
X60586Y263204D01*
X60738Y263291D01*
X60891Y263375D01*
X60912Y263392D01*
X60935Y263405D01*
X61188Y263620D01*
X67476Y269908D01*
X67493Y269929D01*
X67514Y269946D01*
X67621Y270084D01*
X67731Y270219D01*
X67744Y270243D01*
X67760Y270264D01*
X67838Y270421D01*
X67920Y270575D01*
X67928Y270601D01*
X67940Y270625D01*
X67985Y270794D01*
X68035Y270961D01*
X68037Y270988D01*
X68044Y271013D01*
X68071Y271344D01*
X68071Y290823D01*
X70452Y293203D01*
X70452Y293204D01*
X92812Y315563D01*
X92823Y315577D01*
X92837Y315588D01*
X92950Y315733D01*
X93067Y315875D01*
X93075Y315890D01*
X93086Y315904D01*
X93170Y316069D01*
X93255Y316230D01*
X93260Y316247D01*
X93268Y316263D01*
X93318Y316441D01*
X93370Y316616D01*
X93372Y316634D01*
X93376Y316651D01*
X93390Y316834D01*
X93406Y317017D01*
X93405Y317035D01*
X93406Y317053D01*
X93383Y317235D01*
X93363Y317417D01*
X93358Y317435D01*
X93355Y317452D01*
X93297Y317626D01*
X93242Y317801D01*
X93233Y317817D01*
X93227Y317834D01*
X93135Y317993D01*
X93047Y318154D01*
X93035Y318167D01*
X93026Y318183D01*
X92812Y318436D01*
X91307Y319940D01*
X89915Y323301D01*
X89915Y326939D01*
X91307Y330300D01*
X93880Y332873D01*
X97241Y334265D01*
X116119Y334265D01*
X119480Y332873D01*
X122254Y330098D01*
X122278Y330079D01*
X122299Y330055D01*
X122434Y329951D01*
X122566Y329843D01*
X122593Y329829D01*
X122618Y329810D01*
X122913Y329658D01*
X124510Y328997D01*
X141037Y312470D01*
X141733Y310790D01*
X141733Y130009D01*
X141720Y129850D01*
X141702Y129663D01*
X141703Y129650D01*
X141702Y129636D01*
X141724Y129449D01*
X141744Y129263D01*
X141748Y129250D01*
X141749Y129237D01*
X141807Y129058D01*
X141863Y128878D01*
X141870Y128867D01*
X141874Y128854D01*
X141966Y128690D01*
X142057Y128525D01*
X142065Y128515D01*
X142072Y128503D01*
X142194Y128361D01*
X142316Y128217D01*
X142326Y128209D01*
X142335Y128198D01*
X142483Y128084D01*
X142631Y127966D01*
X142643Y127960D01*
X142653Y127952D01*
X142821Y127868D01*
X142989Y127782D01*
X143002Y127778D01*
X143014Y127772D01*
X143196Y127723D01*
X143376Y127672D01*
X143389Y127671D01*
X143402Y127668D01*
X143571Y127654D01*
X143571Y119099D01*
X137279Y119099D01*
X137279Y119809D01*
X137278Y119817D01*
X137279Y119826D01*
X137258Y120018D01*
X137239Y120209D01*
X137237Y120218D01*
X137236Y120227D01*
X137178Y120409D01*
X137121Y120594D01*
X137117Y120602D01*
X137114Y120611D01*
X137021Y120779D01*
X136929Y120948D01*
X136924Y120955D01*
X136919Y120963D01*
X136794Y121111D01*
X136672Y121257D01*
X136665Y121263D01*
X136659Y121270D01*
X136507Y121390D01*
X136358Y121510D01*
X136350Y121514D01*
X136343Y121519D01*
X136171Y121607D01*
X136001Y121695D01*
X135992Y121698D01*
X135984Y121702D01*
X135798Y121754D01*
X135614Y121807D01*
X135605Y121807D01*
X135596Y121810D01*
X135404Y121824D01*
X135212Y121840D01*
X135204Y121839D01*
X135195Y121839D01*
X135002Y121815D01*
X134813Y121793D01*
X134804Y121790D01*
X134795Y121789D01*
X134612Y121727D01*
X134430Y121668D01*
X134422Y121663D01*
X134414Y121661D01*
X134248Y121565D01*
X134079Y121470D01*
X134072Y121464D01*
X134065Y121460D01*
X133812Y121245D01*
X132168Y119601D01*
X132151Y119580D01*
X132130Y119563D01*
X132024Y119425D01*
X131913Y119289D01*
X131900Y119266D01*
X131884Y119245D01*
X131806Y119088D01*
X131724Y118934D01*
X131716Y118908D01*
X131704Y118884D01*
X131659Y118715D01*
X131609Y118548D01*
X131607Y118521D01*
X131600Y118495D01*
X131573Y118165D01*
X131573Y98044D01*
X131575Y98026D01*
X131573Y98008D01*
X131594Y97826D01*
X131613Y97643D01*
X131618Y97626D01*
X131620Y97609D01*
X131677Y97434D01*
X131731Y97258D01*
X131739Y97243D01*
X131745Y97226D01*
X131835Y97066D01*
X131923Y96904D01*
X131934Y96891D01*
X131943Y96875D01*
X132063Y96736D01*
X132180Y96595D01*
X132194Y96584D01*
X132206Y96570D01*
X132351Y96458D01*
X132494Y96343D01*
X132510Y96335D01*
X132524Y96324D01*
X132689Y96242D01*
X132851Y96157D01*
X132868Y96152D01*
X132884Y96144D01*
X133063Y96097D01*
X133238Y96046D01*
X133256Y96044D01*
X133273Y96040D01*
X133604Y96013D01*
X136264Y96013D01*
X136282Y96015D01*
X136300Y96013D01*
X136482Y96034D01*
X136665Y96053D01*
X136682Y96058D01*
X136699Y96060D01*
X136874Y96117D01*
X137050Y96171D01*
X137065Y96179D01*
X137082Y96185D01*
X137242Y96275D01*
X137404Y96363D01*
X137417Y96374D01*
X137433Y96383D01*
X137572Y96503D01*
X137713Y96620D01*
X137724Y96634D01*
X137738Y96646D01*
X137850Y96791D01*
X137965Y96934D01*
X137973Y96950D01*
X137984Y96964D01*
X138066Y97129D01*
X138151Y97291D01*
X138156Y97308D01*
X138164Y97324D01*
X138211Y97503D01*
X138262Y97678D01*
X138264Y97696D01*
X138268Y97713D01*
X138295Y98044D01*
X138295Y98232D01*
X139267Y99203D01*
X139272Y99205D01*
X139406Y99237D01*
X139465Y99264D01*
X139526Y99283D01*
X139647Y99348D01*
X139772Y99406D01*
X139824Y99444D01*
X139880Y99475D01*
X139985Y99562D01*
X140097Y99644D01*
X140140Y99691D01*
X140189Y99732D01*
X140275Y99839D01*
X140368Y99941D01*
X140401Y99996D01*
X140442Y100046D01*
X140505Y100168D01*
X140576Y100286D01*
X140598Y100346D01*
X140627Y100403D01*
X140665Y100535D01*
X140712Y100665D01*
X140721Y100728D01*
X140739Y100790D01*
X140750Y100927D01*
X140770Y101063D01*
X140766Y101127D01*
X140772Y101192D01*
X140755Y101328D01*
X140748Y101465D01*
X140732Y101527D01*
X140725Y101591D01*
X140682Y101722D01*
X140648Y101855D01*
X140620Y101913D01*
X140600Y101974D01*
X140532Y102094D01*
X140472Y102218D01*
X140433Y102269D01*
X140402Y102325D01*
X140312Y102429D01*
X140229Y102538D01*
X140181Y102581D01*
X140139Y102629D01*
X140030Y102714D01*
X139927Y102805D01*
X139871Y102837D01*
X139821Y102876D01*
X139698Y102937D01*
X139579Y103006D01*
X139509Y103031D01*
X139460Y103056D01*
X139383Y103076D01*
X139266Y103118D01*
X138839Y103232D01*
X138260Y103567D01*
X137787Y104040D01*
X137452Y104619D01*
X137279Y105265D01*
X137279Y111601D01*
X145602Y111601D01*
X145620Y111602D01*
X145637Y111601D01*
X145820Y111622D01*
X146002Y111641D01*
X146019Y111646D01*
X146037Y111648D01*
X146212Y111705D01*
X146387Y111759D01*
X146403Y111767D01*
X146420Y111773D01*
X146580Y111863D01*
X146741Y111950D01*
X146755Y111962D01*
X146771Y111971D01*
X146910Y112091D01*
X147051Y112208D01*
X147062Y112222D01*
X147075Y112234D01*
X147188Y112379D01*
X147303Y112522D01*
X147311Y112538D01*
X147322Y112552D01*
X147323Y112554D01*
X147357Y112492D01*
X147368Y112479D01*
X147377Y112463D01*
X147497Y112324D01*
X147615Y112183D01*
X147628Y112172D01*
X147640Y112158D01*
X147785Y112046D01*
X147928Y111931D01*
X147944Y111923D01*
X147958Y111912D01*
X148123Y111830D01*
X148286Y111745D01*
X148303Y111740D01*
X148319Y111732D01*
X148497Y111684D01*
X148672Y111634D01*
X148690Y111632D01*
X148707Y111628D01*
X149038Y111601D01*
X157361Y111601D01*
X157361Y105265D01*
X157188Y104619D01*
X156853Y104040D01*
X156380Y103567D01*
X155801Y103232D01*
X155374Y103118D01*
X155245Y103070D01*
X155114Y103029D01*
X155057Y102999D01*
X154997Y102976D01*
X154881Y102903D01*
X154760Y102837D01*
X154710Y102796D01*
X154656Y102762D01*
X154556Y102668D01*
X154451Y102580D01*
X154410Y102530D01*
X154364Y102485D01*
X154284Y102373D01*
X154198Y102266D01*
X154169Y102209D01*
X154132Y102156D01*
X154076Y102031D01*
X154013Y101909D01*
X153995Y101847D01*
X153969Y101788D01*
X153939Y101654D01*
X153901Y101522D01*
X153896Y101457D01*
X153882Y101395D01*
X153880Y101258D01*
X153868Y101120D01*
X153876Y101056D01*
X153875Y100992D01*
X153899Y100857D01*
X153915Y100721D01*
X153935Y100659D01*
X153947Y100596D01*
X153998Y100469D01*
X154040Y100338D01*
X154072Y100282D01*
X154096Y100222D01*
X154171Y100107D01*
X154238Y99987D01*
X154280Y99939D01*
X154315Y99885D01*
X154412Y99786D01*
X154501Y99682D01*
X154552Y99643D01*
X154597Y99597D01*
X154711Y99520D01*
X154819Y99436D01*
X154877Y99407D01*
X154930Y99371D01*
X155057Y99318D01*
X155180Y99256D01*
X155242Y99240D01*
X155301Y99215D01*
X155377Y99200D01*
X156345Y98232D01*
X156345Y98044D01*
X156347Y98026D01*
X156345Y98008D01*
X156366Y97826D01*
X156385Y97643D01*
X156390Y97626D01*
X156392Y97609D01*
X156449Y97434D01*
X156503Y97258D01*
X156511Y97243D01*
X156517Y97226D01*
X156607Y97066D01*
X156695Y96904D01*
X156706Y96891D01*
X156715Y96875D01*
X156835Y96736D01*
X156952Y96595D01*
X156966Y96584D01*
X156978Y96570D01*
X157123Y96458D01*
X157266Y96343D01*
X157282Y96335D01*
X157296Y96324D01*
X157461Y96242D01*
X157623Y96157D01*
X157640Y96152D01*
X157656Y96144D01*
X157835Y96097D01*
X158010Y96046D01*
X158028Y96044D01*
X158045Y96040D01*
X158376Y96013D01*
X189631Y96013D01*
X189658Y96015D01*
X189684Y96013D01*
X189858Y96035D01*
X190032Y96053D01*
X190057Y96060D01*
X190084Y96064D01*
X190249Y96119D01*
X190417Y96171D01*
X190440Y96184D01*
X190465Y96192D01*
X190617Y96279D01*
X190771Y96363D01*
X190791Y96380D01*
X190814Y96393D01*
X191067Y96608D01*
X192456Y97997D01*
X203784Y97997D01*
X204677Y97104D01*
X204677Y85776D01*
X203288Y84387D01*
X203271Y84367D01*
X203250Y84349D01*
X203143Y84211D01*
X203033Y84076D01*
X203020Y84052D01*
X203004Y84031D01*
X202926Y83874D01*
X202844Y83720D01*
X202836Y83695D01*
X202824Y83671D01*
X202779Y83501D01*
X202729Y83334D01*
X202727Y83308D01*
X202720Y83282D01*
X202693Y82951D01*
X202693Y75184D01*
X202695Y75166D01*
X202693Y75148D01*
X202714Y74966D01*
X202733Y74783D01*
X202738Y74766D01*
X202740Y74749D01*
X202797Y74574D01*
X202851Y74398D01*
X202859Y74383D01*
X202865Y74366D01*
X202955Y74206D01*
X203043Y74044D01*
X203054Y74031D01*
X203063Y74015D01*
X203183Y73876D01*
X203300Y73735D01*
X203314Y73724D01*
X203326Y73710D01*
X203471Y73598D01*
X203614Y73483D01*
X203630Y73475D01*
X203644Y73464D01*
X203809Y73382D01*
X203971Y73297D01*
X203988Y73292D01*
X204004Y73284D01*
X204183Y73237D01*
X204358Y73186D01*
X204376Y73184D01*
X204393Y73180D01*
X204724Y73153D01*
X204848Y73153D01*
X205741Y72260D01*
X205741Y48644D01*
X204848Y47751D01*
X191392Y47751D01*
X190499Y48644D01*
X190499Y72260D01*
X191392Y73153D01*
X191516Y73153D01*
X191534Y73155D01*
X191552Y73153D01*
X191734Y73174D01*
X191917Y73193D01*
X191934Y73198D01*
X191951Y73200D01*
X192126Y73257D01*
X192302Y73311D01*
X192317Y73319D01*
X192334Y73325D01*
X192494Y73415D01*
X192656Y73503D01*
X192669Y73514D01*
X192685Y73523D01*
X192824Y73643D01*
X192965Y73760D01*
X192976Y73774D01*
X192990Y73786D01*
X193102Y73931D01*
X193217Y74074D01*
X193225Y74090D01*
X193236Y74104D01*
X193318Y74269D01*
X193403Y74431D01*
X193408Y74448D01*
X193416Y74464D01*
X193463Y74643D01*
X193514Y74818D01*
X193516Y74836D01*
X193520Y74853D01*
X193547Y75184D01*
X193547Y82951D01*
X193545Y82978D01*
X193547Y83004D01*
X193525Y83178D01*
X193507Y83352D01*
X193500Y83377D01*
X193496Y83404D01*
X193441Y83569D01*
X193389Y83737D01*
X193376Y83760D01*
X193368Y83785D01*
X193281Y83937D01*
X193197Y84091D01*
X193180Y84111D01*
X193167Y84134D01*
X192952Y84387D01*
X191067Y86272D01*
X191047Y86289D01*
X191029Y86310D01*
X190891Y86417D01*
X190756Y86527D01*
X190732Y86540D01*
X190711Y86556D01*
X190554Y86634D01*
X190400Y86716D01*
X190375Y86724D01*
X190351Y86736D01*
X190181Y86781D01*
X190014Y86831D01*
X189988Y86833D01*
X189962Y86840D01*
X189631Y86867D01*
X158376Y86867D01*
X158358Y86865D01*
X158340Y86867D01*
X158158Y86846D01*
X157975Y86827D01*
X157958Y86822D01*
X157941Y86820D01*
X157766Y86763D01*
X157590Y86709D01*
X157575Y86701D01*
X157558Y86695D01*
X157398Y86605D01*
X157236Y86517D01*
X157223Y86506D01*
X157207Y86497D01*
X157068Y86377D01*
X156927Y86260D01*
X156916Y86246D01*
X156902Y86234D01*
X156790Y86089D01*
X156675Y85946D01*
X156667Y85930D01*
X156656Y85916D01*
X156574Y85751D01*
X156489Y85589D01*
X156484Y85572D01*
X156476Y85556D01*
X156429Y85377D01*
X156378Y85202D01*
X156376Y85184D01*
X156372Y85167D01*
X156345Y84836D01*
X156345Y77468D01*
X155452Y76575D01*
X148829Y76575D01*
X148821Y76574D01*
X148812Y76575D01*
X148619Y76554D01*
X148428Y76535D01*
X148420Y76533D01*
X148412Y76532D01*
X148228Y76474D01*
X148044Y76417D01*
X148036Y76413D01*
X148028Y76411D01*
X147859Y76317D01*
X147690Y76225D01*
X147683Y76220D01*
X147676Y76216D01*
X147526Y76089D01*
X147380Y75968D01*
X147375Y75961D01*
X147368Y75956D01*
X147248Y75804D01*
X147128Y75654D01*
X147124Y75646D01*
X147119Y75640D01*
X147031Y75468D01*
X146942Y75297D01*
X146940Y75289D01*
X146936Y75281D01*
X146884Y75095D01*
X146831Y74910D01*
X146830Y74901D01*
X146828Y74893D01*
X146798Y74563D01*
X146353Y25849D01*
X146354Y25840D01*
X146353Y25830D01*
X146353Y24929D01*
X146000Y24099D01*
X145998Y24091D01*
X145993Y24082D01*
X145648Y23250D01*
X145004Y22617D01*
X144999Y22611D01*
X144991Y22604D01*
X144355Y21968D01*
X143519Y21631D01*
X143511Y21627D01*
X143502Y21624D01*
X142670Y21279D01*
X141769Y21287D01*
X141761Y21286D01*
X141750Y21287D01*
X136021Y21287D01*
X135998Y21285D01*
X135976Y21287D01*
X135799Y21265D01*
X135620Y21247D01*
X135599Y21241D01*
X135577Y21238D01*
X135407Y21182D01*
X135235Y21129D01*
X135216Y21119D01*
X135194Y21112D01*
X135039Y21023D01*
X134881Y20937D01*
X134864Y20923D01*
X134845Y20912D01*
X134710Y20795D01*
X134572Y20680D01*
X134558Y20662D01*
X134541Y20648D01*
X134432Y20506D01*
X134320Y20366D01*
X134309Y20346D01*
X134296Y20328D01*
X134144Y20033D01*
X133935Y19529D01*
X130791Y16385D01*
X126683Y14683D01*
X122237Y14683D01*
X118129Y16385D01*
X114985Y19529D01*
X113637Y22784D01*
X113632Y22792D01*
X113630Y22800D01*
X113538Y22968D01*
X113446Y23139D01*
X113441Y23145D01*
X113436Y23153D01*
X113312Y23301D01*
X113190Y23449D01*
X113183Y23455D01*
X113177Y23461D01*
X113027Y23581D01*
X112877Y23703D01*
X112869Y23707D01*
X112862Y23712D01*
X112692Y23800D01*
X112521Y23890D01*
X112512Y23892D01*
X112504Y23896D01*
X112320Y23949D01*
X112134Y24003D01*
X112125Y24004D01*
X112117Y24006D01*
X111926Y24021D01*
X111733Y24037D01*
X111724Y24036D01*
X111716Y24037D01*
X111524Y24014D01*
X111333Y23992D01*
X111325Y23990D01*
X111316Y23988D01*
X111133Y23928D01*
X110950Y23869D01*
X110942Y23865D01*
X110934Y23862D01*
X110766Y23766D01*
X110598Y23673D01*
X110592Y23667D01*
X110584Y23663D01*
X110438Y23535D01*
X110293Y23411D01*
X110287Y23404D01*
X110280Y23398D01*
X110163Y23246D01*
X110044Y23094D01*
X110040Y23086D01*
X110035Y23079D01*
X109883Y22784D01*
X108535Y19529D01*
X105391Y16385D01*
X101283Y14683D01*
X96837Y14683D01*
X92729Y16385D01*
X89585Y19529D01*
X88237Y22784D01*
X88232Y22792D01*
X88230Y22800D01*
X88138Y22968D01*
X88046Y23139D01*
X88041Y23145D01*
X88036Y23153D01*
X87912Y23301D01*
X87790Y23449D01*
X87783Y23455D01*
X87777Y23461D01*
X87627Y23581D01*
X87477Y23703D01*
X87469Y23707D01*
X87462Y23712D01*
X87292Y23800D01*
X87121Y23890D01*
X87112Y23892D01*
X87104Y23896D01*
X86920Y23949D01*
X86734Y24003D01*
X86725Y24004D01*
X86717Y24006D01*
X86526Y24021D01*
X86333Y24037D01*
X86324Y24036D01*
X86316Y24037D01*
X86124Y24014D01*
X85933Y23992D01*
X85925Y23990D01*
X85916Y23988D01*
X85733Y23928D01*
X85550Y23869D01*
X85542Y23865D01*
X85534Y23862D01*
X85366Y23766D01*
X85198Y23673D01*
X85192Y23667D01*
X85184Y23663D01*
X85038Y23535D01*
X84893Y23411D01*
X84887Y23404D01*
X84880Y23398D01*
X84763Y23246D01*
X84644Y23094D01*
X84640Y23086D01*
X84635Y23079D01*
X84483Y22784D01*
X83135Y19529D01*
X79991Y16385D01*
X75883Y14683D01*
X71437Y14683D01*
X67329Y16385D01*
X64185Y19529D01*
X62837Y22784D01*
X62832Y22792D01*
X62830Y22800D01*
X62738Y22968D01*
X62646Y23139D01*
X62641Y23145D01*
X62636Y23153D01*
X62512Y23301D01*
X62390Y23449D01*
X62383Y23455D01*
X62377Y23461D01*
X62227Y23581D01*
X62077Y23703D01*
X62069Y23707D01*
X62062Y23712D01*
X61892Y23800D01*
X61721Y23890D01*
X61712Y23892D01*
X61704Y23896D01*
X61520Y23949D01*
X61334Y24003D01*
X61325Y24004D01*
X61317Y24006D01*
X61126Y24021D01*
X60933Y24037D01*
X60924Y24036D01*
X60916Y24037D01*
X60724Y24014D01*
X60533Y23992D01*
X60525Y23990D01*
X60516Y23988D01*
X60333Y23928D01*
X60150Y23869D01*
X60142Y23865D01*
X60134Y23862D01*
X59966Y23766D01*
X59798Y23673D01*
X59792Y23667D01*
X59784Y23663D01*
X59638Y23535D01*
X59493Y23411D01*
X59487Y23404D01*
X59480Y23398D01*
X59363Y23246D01*
X59244Y23094D01*
X59240Y23086D01*
X59235Y23079D01*
X59083Y22784D01*
X57735Y19529D01*
X54591Y16385D01*
X50483Y14683D01*
X46037Y14683D01*
X41929Y16385D01*
X38785Y19529D01*
X37083Y23637D01*
X37083Y28083D01*
X38785Y32191D01*
X41929Y35335D01*
X43826Y36121D01*
X43904Y36163D01*
X43986Y36196D01*
X44081Y36258D01*
X44180Y36311D01*
X44249Y36368D01*
X44323Y36416D01*
X44404Y36495D01*
X44491Y36567D01*
X44547Y36636D01*
X44610Y36699D01*
X44673Y36792D01*
X44745Y36880D01*
X44786Y36959D01*
X44835Y37032D01*
X44879Y37136D01*
X44932Y37237D01*
X44957Y37322D01*
X44991Y37404D01*
X45013Y37514D01*
X45045Y37623D01*
X45052Y37712D01*
X45070Y37798D01*
X45070Y37911D01*
X45079Y38024D01*
X45069Y38112D01*
X45069Y38201D01*
X45047Y38312D01*
X45034Y38424D01*
X45007Y38509D01*
X44989Y38596D01*
X44946Y38700D01*
X44911Y38807D01*
X44868Y38885D01*
X44833Y38967D01*
X44770Y39060D01*
X44715Y39159D01*
X44657Y39226D01*
X44607Y39300D01*
X44526Y39379D01*
X44453Y39465D01*
X44383Y39520D01*
X44319Y39582D01*
X44225Y39643D01*
X44136Y39713D01*
X44056Y39753D01*
X43982Y39801D01*
X43852Y39856D01*
X43776Y39894D01*
X43732Y39906D01*
X43676Y39929D01*
X43580Y39961D01*
X41870Y40832D01*
X40317Y41960D01*
X38960Y43317D01*
X37832Y44870D01*
X36961Y46580D01*
X36368Y48405D01*
X36317Y48721D01*
X47752Y48721D01*
X47770Y48722D01*
X47787Y48721D01*
X47970Y48742D01*
X48152Y48761D01*
X48169Y48766D01*
X48187Y48768D01*
X48362Y48825D01*
X48537Y48879D01*
X48553Y48887D01*
X48570Y48893D01*
X48730Y48983D01*
X48891Y49070D01*
X48905Y49082D01*
X48921Y49091D01*
X49060Y49211D01*
X49201Y49328D01*
X49212Y49342D01*
X49225Y49354D01*
X49338Y49499D01*
X49453Y49642D01*
X49461Y49658D01*
X49472Y49672D01*
X49554Y49837D01*
X49594Y49913D01*
X49746Y49999D01*
X49908Y50087D01*
X49921Y50098D01*
X49937Y50107D01*
X50076Y50227D01*
X50217Y50345D01*
X50228Y50358D01*
X50242Y50370D01*
X50354Y50515D01*
X50469Y50658D01*
X50477Y50674D01*
X50488Y50688D01*
X50570Y50853D01*
X50655Y51016D01*
X50660Y51033D01*
X50668Y51049D01*
X50715Y51227D01*
X50766Y51402D01*
X50768Y51420D01*
X50772Y51437D01*
X50799Y51768D01*
X50799Y63203D01*
X51115Y63152D01*
X52940Y62559D01*
X54650Y61688D01*
X56203Y60560D01*
X57560Y59203D01*
X58688Y57650D01*
X59559Y55940D01*
X59591Y55844D01*
X59626Y55763D01*
X59653Y55678D01*
X59707Y55579D01*
X59752Y55475D01*
X59803Y55403D01*
X59846Y55325D01*
X59919Y55238D01*
X59984Y55146D01*
X60048Y55085D01*
X60105Y55017D01*
X60194Y54946D01*
X60275Y54868D01*
X60351Y54821D01*
X60420Y54766D01*
X60521Y54714D01*
X60616Y54654D01*
X60699Y54622D01*
X60778Y54582D01*
X60887Y54551D01*
X60993Y54511D01*
X61080Y54496D01*
X61166Y54472D01*
X61278Y54463D01*
X61390Y54445D01*
X61479Y54448D01*
X61567Y54441D01*
X61679Y54455D01*
X61792Y54458D01*
X61879Y54479D01*
X61967Y54490D01*
X62074Y54525D01*
X62184Y54551D01*
X62265Y54588D01*
X62349Y54616D01*
X62447Y54672D01*
X62550Y54719D01*
X62622Y54772D01*
X62699Y54816D01*
X62784Y54890D01*
X62875Y54956D01*
X62935Y55022D01*
X63002Y55080D01*
X63071Y55170D01*
X63147Y55253D01*
X63193Y55329D01*
X63248Y55399D01*
X63312Y55525D01*
X63356Y55597D01*
X63372Y55641D01*
X63399Y55694D01*
X64185Y57591D01*
X67329Y60735D01*
X69357Y61575D01*
X69377Y61586D01*
X69398Y61593D01*
X69554Y61681D01*
X69712Y61766D01*
X69729Y61780D01*
X69749Y61791D01*
X69884Y61908D01*
X70023Y62022D01*
X70037Y62039D01*
X70054Y62054D01*
X70163Y62195D01*
X70276Y62335D01*
X70287Y62354D01*
X70300Y62372D01*
X70380Y62532D01*
X70463Y62691D01*
X70470Y62712D01*
X70480Y62733D01*
X70526Y62906D01*
X70576Y63078D01*
X70578Y63100D01*
X70584Y63121D01*
X70611Y63452D01*
X70611Y65090D01*
X70609Y65117D01*
X70611Y65143D01*
X70589Y65317D01*
X70571Y65491D01*
X70564Y65516D01*
X70560Y65543D01*
X70505Y65708D01*
X70453Y65876D01*
X70440Y65899D01*
X70432Y65924D01*
X70345Y66076D01*
X70261Y66230D01*
X70244Y66250D01*
X70231Y66273D01*
X70016Y66526D01*
X68579Y67963D01*
X68579Y89848D01*
X68577Y89874D01*
X68579Y89901D01*
X68557Y90075D01*
X68539Y90248D01*
X68532Y90274D01*
X68528Y90301D01*
X68473Y90466D01*
X68421Y90633D01*
X68408Y90657D01*
X68400Y90682D01*
X68313Y90834D01*
X68229Y90987D01*
X68212Y91008D01*
X68199Y91031D01*
X67984Y91284D01*
X56608Y102660D01*
X56587Y102677D01*
X56570Y102698D01*
X56432Y102804D01*
X56297Y102915D01*
X56273Y102928D01*
X56252Y102944D01*
X56095Y103022D01*
X55941Y103104D01*
X55915Y103112D01*
X55891Y103124D01*
X55722Y103169D01*
X55555Y103219D01*
X55528Y103221D01*
X55503Y103228D01*
X55172Y103255D01*
X41153Y103255D01*
X40260Y104148D01*
X40260Y121412D01*
X41153Y122305D01*
X60447Y122305D01*
X61340Y121412D01*
X61340Y107393D01*
X61342Y107367D01*
X61340Y107340D01*
X61362Y107166D01*
X61380Y106993D01*
X61387Y106967D01*
X61391Y106941D01*
X61447Y106775D01*
X61498Y106608D01*
X61510Y106584D01*
X61519Y106559D01*
X61606Y106407D01*
X61690Y106254D01*
X61707Y106233D01*
X61720Y106210D01*
X61935Y105957D01*
X62193Y105699D01*
X62200Y105693D01*
X62205Y105686D01*
X62355Y105566D01*
X62504Y105444D01*
X62512Y105440D01*
X62519Y105434D01*
X62689Y105346D01*
X62860Y105255D01*
X62868Y105253D01*
X62876Y105248D01*
X63061Y105195D01*
X63246Y105140D01*
X63255Y105140D01*
X63263Y105137D01*
X63455Y105121D01*
X63647Y105104D01*
X63656Y105105D01*
X63665Y105104D01*
X63855Y105127D01*
X64047Y105147D01*
X64055Y105150D01*
X64064Y105151D01*
X64248Y105211D01*
X64431Y105269D01*
X64439Y105273D01*
X64447Y105276D01*
X64616Y105371D01*
X64783Y105464D01*
X64790Y105469D01*
X64798Y105474D01*
X64945Y105601D01*
X65090Y105724D01*
X65096Y105731D01*
X65103Y105737D01*
X65221Y105889D01*
X65340Y106040D01*
X65344Y106048D01*
X65349Y106055D01*
X65435Y106228D01*
X65522Y106399D01*
X65525Y106407D01*
X65529Y106416D01*
X65579Y106603D01*
X65630Y106787D01*
X65631Y106796D01*
X65633Y106804D01*
X65660Y107135D01*
X65660Y121412D01*
X66553Y122305D01*
X85847Y122305D01*
X86740Y121412D01*
X86740Y104148D01*
X85847Y103255D01*
X81280Y103255D01*
X81262Y103253D01*
X81244Y103255D01*
X81062Y103234D01*
X80879Y103215D01*
X80862Y103210D01*
X80845Y103208D01*
X80670Y103151D01*
X80494Y103097D01*
X80479Y103089D01*
X80462Y103083D01*
X80302Y102993D01*
X80140Y102905D01*
X80127Y102894D01*
X80111Y102885D01*
X79972Y102765D01*
X79831Y102648D01*
X79820Y102634D01*
X79806Y102622D01*
X79694Y102477D01*
X79579Y102334D01*
X79571Y102318D01*
X79560Y102304D01*
X79478Y102139D01*
X79393Y101977D01*
X79388Y101960D01*
X79380Y101944D01*
X79333Y101765D01*
X79282Y101590D01*
X79280Y101572D01*
X79276Y101555D01*
X79249Y101224D01*
X79249Y73224D01*
X79251Y73198D01*
X79249Y73171D01*
X79271Y72997D01*
X79289Y72824D01*
X79296Y72798D01*
X79300Y72771D01*
X79355Y72606D01*
X79407Y72439D01*
X79420Y72415D01*
X79428Y72390D01*
X79515Y72238D01*
X79599Y72085D01*
X79616Y72064D01*
X79629Y72041D01*
X79844Y71788D01*
X89418Y62213D01*
X89430Y62110D01*
X89449Y61918D01*
X89451Y61910D01*
X89452Y61901D01*
X89511Y61717D01*
X89567Y61533D01*
X89571Y61525D01*
X89574Y61517D01*
X89667Y61348D01*
X89759Y61179D01*
X89764Y61172D01*
X89769Y61164D01*
X89893Y61018D01*
X90016Y60870D01*
X90023Y60864D01*
X90029Y60858D01*
X90181Y60738D01*
X90330Y60618D01*
X90338Y60614D01*
X90345Y60608D01*
X90518Y60520D01*
X90687Y60432D01*
X90696Y60430D01*
X90704Y60426D01*
X90891Y60374D01*
X91074Y60321D01*
X91083Y60320D01*
X91092Y60318D01*
X91283Y60304D01*
X91476Y60288D01*
X91485Y60289D01*
X91494Y60288D01*
X91684Y60312D01*
X91875Y60335D01*
X91884Y60338D01*
X91893Y60339D01*
X92075Y60400D01*
X92258Y60460D01*
X92266Y60464D01*
X92275Y60467D01*
X92440Y60562D01*
X92609Y60658D01*
X92616Y60664D01*
X92623Y60668D01*
X92678Y60714D01*
X93610Y61100D01*
X96837Y62437D01*
X101283Y62437D01*
X105391Y60735D01*
X108535Y57591D01*
X109883Y54336D01*
X109888Y54328D01*
X109890Y54320D01*
X109982Y54152D01*
X110074Y53981D01*
X110079Y53974D01*
X110084Y53967D01*
X110207Y53820D01*
X110330Y53671D01*
X110337Y53665D01*
X110343Y53659D01*
X110493Y53539D01*
X110643Y53417D01*
X110651Y53413D01*
X110657Y53408D01*
X110828Y53320D01*
X110999Y53230D01*
X111008Y53228D01*
X111016Y53224D01*
X111199Y53172D01*
X111385Y53117D01*
X111395Y53116D01*
X111403Y53114D01*
X111594Y53099D01*
X111787Y53083D01*
X111796Y53084D01*
X111804Y53083D01*
X111994Y53106D01*
X112187Y53128D01*
X112195Y53130D01*
X112204Y53131D01*
X112384Y53191D01*
X112570Y53251D01*
X112578Y53255D01*
X112586Y53258D01*
X112752Y53353D01*
X112921Y53447D01*
X112928Y53453D01*
X112936Y53457D01*
X113081Y53584D01*
X113227Y53709D01*
X113233Y53716D01*
X113240Y53722D01*
X113357Y53874D01*
X113476Y54026D01*
X113480Y54034D01*
X113485Y54041D01*
X113637Y54336D01*
X114985Y57591D01*
X118129Y60735D01*
X119010Y61100D01*
X122237Y62437D01*
X126683Y62437D01*
X130791Y60735D01*
X134042Y57485D01*
X134198Y57356D01*
X134352Y57230D01*
X134353Y57230D01*
X134532Y57135D01*
X134708Y57041D01*
X134709Y57041D01*
X134919Y56978D01*
X135094Y56926D01*
X135095Y56926D01*
X135320Y56906D01*
X135495Y56890D01*
X135496Y56890D01*
X135703Y56912D01*
X135895Y56933D01*
X135896Y56933D01*
X136117Y57003D01*
X136279Y57054D01*
X136279Y57055D01*
X136280Y57055D01*
X136450Y57149D01*
X136631Y57249D01*
X136632Y57249D01*
X136632Y57250D01*
X136709Y57315D01*
X136939Y57510D01*
X137053Y57654D01*
X137188Y57825D01*
X137188Y57826D01*
X137189Y57826D01*
X137283Y58012D01*
X137371Y58184D01*
X137371Y58185D01*
X137429Y58393D01*
X137479Y58572D01*
X137479Y58573D01*
X137479Y58578D01*
X137509Y58902D01*
X137667Y76211D01*
X137666Y76220D01*
X137667Y76230D01*
X137667Y80208D01*
X137651Y80368D01*
X137642Y80528D01*
X137631Y80573D01*
X137627Y80609D01*
X137612Y80660D01*
X137662Y81370D01*
X137660Y81431D01*
X137667Y81514D01*
X137667Y82238D01*
X137704Y82345D01*
X137711Y82391D01*
X137722Y82425D01*
X137727Y82478D01*
X138045Y83115D01*
X138067Y83172D01*
X138105Y83247D01*
X138141Y83333D01*
X138150Y83362D01*
X138164Y83390D01*
X138208Y83556D01*
X138257Y83718D01*
X138260Y83749D01*
X138268Y83779D01*
X138295Y84110D01*
X138295Y84836D01*
X138293Y84854D01*
X138295Y84872D01*
X138274Y85054D01*
X138255Y85237D01*
X138250Y85254D01*
X138248Y85271D01*
X138191Y85446D01*
X138137Y85622D01*
X138129Y85637D01*
X138123Y85654D01*
X138033Y85814D01*
X137945Y85976D01*
X137934Y85989D01*
X137925Y86005D01*
X137805Y86144D01*
X137688Y86285D01*
X137674Y86296D01*
X137662Y86310D01*
X137517Y86422D01*
X137374Y86537D01*
X137358Y86545D01*
X137344Y86556D01*
X137179Y86638D01*
X137017Y86723D01*
X137000Y86728D01*
X136984Y86736D01*
X136805Y86783D01*
X136630Y86834D01*
X136612Y86836D01*
X136595Y86840D01*
X136264Y86867D01*
X115930Y86867D01*
X114250Y87563D01*
X102803Y99010D01*
X102107Y100690D01*
X102107Y114105D01*
X102105Y114131D01*
X102107Y114158D01*
X102085Y114332D01*
X102067Y114505D01*
X102060Y114531D01*
X102056Y114557D01*
X102001Y114723D01*
X101949Y114890D01*
X101936Y114914D01*
X101928Y114939D01*
X101841Y115091D01*
X101757Y115244D01*
X101740Y115265D01*
X101727Y115288D01*
X101512Y115541D01*
X87563Y129490D01*
X87169Y130441D01*
X87159Y130461D01*
X87152Y130482D01*
X87063Y130639D01*
X86979Y130796D01*
X86965Y130813D01*
X86954Y130833D01*
X86837Y130969D01*
X86723Y131107D01*
X86705Y131121D01*
X86691Y131138D01*
X86549Y131247D01*
X86410Y131360D01*
X86390Y131371D01*
X86373Y131384D01*
X86212Y131464D01*
X86054Y131547D01*
X86032Y131554D01*
X86012Y131564D01*
X85839Y131610D01*
X85667Y131660D01*
X85645Y131662D01*
X85623Y131668D01*
X85293Y131695D01*
X66553Y131695D01*
X65660Y132588D01*
X65660Y134616D01*
X65658Y134634D01*
X65660Y134652D01*
X65639Y134834D01*
X65620Y135017D01*
X65615Y135034D01*
X65613Y135051D01*
X65556Y135226D01*
X65502Y135402D01*
X65494Y135417D01*
X65488Y135434D01*
X65398Y135594D01*
X65310Y135756D01*
X65299Y135769D01*
X65290Y135785D01*
X65170Y135924D01*
X65053Y136065D01*
X65039Y136076D01*
X65027Y136090D01*
X64882Y136202D01*
X64739Y136317D01*
X64723Y136325D01*
X64709Y136336D01*
X64544Y136418D01*
X64382Y136503D01*
X64365Y136508D01*
X64349Y136516D01*
X64170Y136563D01*
X63995Y136614D01*
X63977Y136616D01*
X63960Y136620D01*
X63629Y136647D01*
X63371Y136647D01*
X63353Y136645D01*
X63335Y136647D01*
X63153Y136626D01*
X62970Y136607D01*
X62953Y136602D01*
X62936Y136600D01*
X62761Y136543D01*
X62585Y136489D01*
X62570Y136481D01*
X62553Y136475D01*
X62393Y136385D01*
X62231Y136297D01*
X62218Y136286D01*
X62202Y136277D01*
X62063Y136157D01*
X61922Y136040D01*
X61911Y136026D01*
X61897Y136014D01*
X61785Y135869D01*
X61670Y135726D01*
X61662Y135710D01*
X61651Y135696D01*
X61569Y135531D01*
X61484Y135369D01*
X61479Y135352D01*
X61471Y135336D01*
X61424Y135157D01*
X61373Y134982D01*
X61371Y134964D01*
X61367Y134947D01*
X61340Y134616D01*
X61340Y132588D01*
X60447Y131695D01*
X41153Y131695D01*
X40260Y132588D01*
X40260Y136140D01*
X40258Y136158D01*
X40260Y136176D01*
X40239Y136358D01*
X40220Y136541D01*
X40215Y136558D01*
X40213Y136575D01*
X40156Y136750D01*
X40102Y136926D01*
X40094Y136941D01*
X40088Y136958D01*
X39998Y137118D01*
X39910Y137280D01*
X39899Y137293D01*
X39890Y137309D01*
X39770Y137448D01*
X39653Y137589D01*
X39639Y137600D01*
X39627Y137614D01*
X39482Y137726D01*
X39339Y137841D01*
X39323Y137849D01*
X39309Y137860D01*
X39144Y137942D01*
X38982Y138027D01*
X38965Y138032D01*
X38949Y138040D01*
X38770Y138087D01*
X38595Y138138D01*
X38577Y138140D01*
X38560Y138144D01*
X38229Y138171D01*
X26484Y138171D01*
X26458Y138169D01*
X26431Y138171D01*
X26257Y138149D01*
X26084Y138131D01*
X26058Y138124D01*
X26031Y138120D01*
X25866Y138065D01*
X25699Y138013D01*
X25675Y138000D01*
X25650Y137992D01*
X25498Y137905D01*
X25345Y137821D01*
X25324Y137804D01*
X25301Y137791D01*
X25048Y137576D01*
X20916Y133444D01*
X20899Y133423D01*
X20878Y133406D01*
X20771Y133268D01*
X20661Y133133D01*
X20648Y133109D01*
X20632Y133088D01*
X20554Y132931D01*
X20472Y132777D01*
X20464Y132751D01*
X20452Y132727D01*
X20407Y132558D01*
X20357Y132391D01*
X20355Y132364D01*
X20348Y132339D01*
X20321Y132008D01*
X20321Y131069D01*
X19547Y129202D01*
X18118Y127773D01*
X16251Y126999D01*
X14229Y126999D01*
X12969Y127521D01*
X12956Y127525D01*
X12945Y127531D01*
X12765Y127583D01*
X12584Y127638D01*
X12571Y127639D01*
X12558Y127643D01*
X12370Y127658D01*
X12183Y127676D01*
X12170Y127674D01*
X12156Y127676D01*
X11970Y127654D01*
X11783Y127634D01*
X11770Y127630D01*
X11757Y127629D01*
X11578Y127570D01*
X11398Y127514D01*
X11387Y127508D01*
X11374Y127504D01*
X11209Y127411D01*
X11045Y127321D01*
X11035Y127312D01*
X11023Y127306D01*
X10881Y127183D01*
X10737Y127062D01*
X10729Y127051D01*
X10718Y127043D01*
X10604Y126895D01*
X10486Y126747D01*
X10480Y126735D01*
X10472Y126725D01*
X10388Y126556D01*
X10302Y126389D01*
X10298Y126376D01*
X10292Y126364D01*
X10243Y126181D01*
X10192Y126002D01*
X10191Y125988D01*
X10188Y125975D01*
X10161Y125645D01*
X10161Y45720D01*
X10166Y45671D01*
X10164Y45606D01*
X10375Y41852D01*
X10375Y41847D01*
X10375Y41843D01*
X10422Y41514D01*
X12093Y34194D01*
X12113Y34136D01*
X12124Y34075D01*
X12195Y33892D01*
X12221Y33813D01*
X12233Y33792D01*
X12243Y33765D01*
X15501Y27001D01*
X15533Y26948D01*
X15558Y26891D01*
X15667Y26728D01*
X15711Y26657D01*
X15727Y26640D01*
X15743Y26616D01*
X20424Y20746D01*
X20467Y20701D01*
X20504Y20651D01*
X20647Y20517D01*
X20705Y20457D01*
X20724Y20444D01*
X20746Y20424D01*
X26616Y15743D01*
X26668Y15709D01*
X26714Y15669D01*
X26884Y15570D01*
X26954Y15524D01*
X26975Y15516D01*
X27001Y15501D01*
X33765Y12243D01*
X33823Y12222D01*
X33878Y12193D01*
X34065Y12134D01*
X34143Y12105D01*
X34166Y12102D01*
X34194Y12093D01*
X41514Y10422D01*
X41519Y10422D01*
X41523Y10420D01*
X41852Y10375D01*
X45606Y10164D01*
X45655Y10166D01*
X45720Y10161D01*
X411480Y10161D01*
X411529Y10166D01*
G37*
G36*
X109371Y217923D02*
X109371Y217923D01*
X109385Y217921D01*
X109572Y217943D01*
X109758Y217963D01*
X109771Y217967D01*
X109784Y217968D01*
X109964Y218027D01*
X110143Y218083D01*
X110154Y218089D01*
X110167Y218093D01*
X110332Y218186D01*
X110496Y218276D01*
X110506Y218285D01*
X110518Y218291D01*
X110660Y218414D01*
X110804Y218535D01*
X110812Y218546D01*
X110823Y218554D01*
X110938Y218703D01*
X111055Y218850D01*
X111061Y218862D01*
X111069Y218872D01*
X111153Y219041D01*
X111239Y219208D01*
X111243Y219221D01*
X111249Y219233D01*
X111298Y219416D01*
X111349Y219595D01*
X111350Y219609D01*
X111353Y219622D01*
X111380Y219952D01*
X111380Y220972D01*
X112273Y221865D01*
X116840Y221865D01*
X116858Y221867D01*
X116876Y221865D01*
X117058Y221886D01*
X117241Y221905D01*
X117258Y221910D01*
X117275Y221912D01*
X117450Y221969D01*
X117626Y222023D01*
X117641Y222031D01*
X117658Y222037D01*
X117818Y222127D01*
X117980Y222215D01*
X117993Y222226D01*
X118009Y222235D01*
X118148Y222355D01*
X118289Y222472D01*
X118300Y222486D01*
X118314Y222498D01*
X118426Y222643D01*
X118541Y222786D01*
X118549Y222802D01*
X118560Y222816D01*
X118642Y222981D01*
X118727Y223143D01*
X118732Y223160D01*
X118740Y223176D01*
X118787Y223355D01*
X118838Y223530D01*
X118840Y223548D01*
X118844Y223565D01*
X118871Y223896D01*
X118871Y262378D01*
X118854Y262555D01*
X118840Y262731D01*
X118834Y262755D01*
X118831Y262779D01*
X118779Y262948D01*
X118731Y263119D01*
X118720Y263140D01*
X118713Y263164D01*
X118629Y263320D01*
X118548Y263477D01*
X118533Y263496D01*
X118521Y263518D01*
X118408Y263654D01*
X118298Y263793D01*
X118279Y263808D01*
X118264Y263827D01*
X118126Y263938D01*
X117990Y264052D01*
X117969Y264064D01*
X117950Y264080D01*
X117793Y264161D01*
X117638Y264246D01*
X117614Y264254D01*
X117593Y264265D01*
X117423Y264314D01*
X117253Y264367D01*
X117229Y264370D01*
X117206Y264376D01*
X117029Y264391D01*
X116853Y264410D01*
X116826Y264408D01*
X116804Y264409D01*
X116724Y264400D01*
X116522Y264385D01*
X115100Y264159D01*
X109219Y264159D01*
X109219Y273812D01*
X109217Y273830D01*
X109219Y273847D01*
X109198Y274030D01*
X109179Y274212D01*
X109174Y274229D01*
X109172Y274247D01*
X109147Y274325D01*
X109186Y274462D01*
X109188Y274480D01*
X109192Y274497D01*
X109219Y274828D01*
X109219Y284481D01*
X112704Y284481D01*
X112713Y284482D01*
X112722Y284481D01*
X112915Y284502D01*
X113104Y284521D01*
X113113Y284523D01*
X113122Y284524D01*
X113306Y284583D01*
X113489Y284639D01*
X113497Y284643D01*
X113506Y284646D01*
X113674Y284739D01*
X113843Y284831D01*
X113850Y284836D01*
X113858Y284841D01*
X114005Y284965D01*
X114153Y285088D01*
X114158Y285095D01*
X114165Y285101D01*
X114285Y285253D01*
X114405Y285402D01*
X114409Y285410D01*
X114415Y285417D01*
X114502Y285590D01*
X114591Y285759D01*
X114593Y285768D01*
X114597Y285776D01*
X114649Y285962D01*
X114702Y286146D01*
X114703Y286155D01*
X114705Y286164D01*
X114719Y286357D01*
X114735Y286548D01*
X114734Y286556D01*
X114734Y286565D01*
X114710Y286758D01*
X114688Y286947D01*
X114685Y286956D01*
X114684Y286965D01*
X114623Y287147D01*
X114563Y287330D01*
X114559Y287338D01*
X114556Y287346D01*
X114460Y287513D01*
X114365Y287681D01*
X114359Y287688D01*
X114355Y287695D01*
X114140Y287948D01*
X112108Y289980D01*
X112087Y289997D01*
X112070Y290018D01*
X111932Y290125D01*
X111797Y290235D01*
X111773Y290248D01*
X111752Y290264D01*
X111595Y290342D01*
X111441Y290424D01*
X111415Y290432D01*
X111391Y290444D01*
X111222Y290489D01*
X111055Y290539D01*
X111028Y290541D01*
X111003Y290548D01*
X110672Y290575D01*
X97241Y290575D01*
X93880Y291967D01*
X91307Y294540D01*
X89915Y297901D01*
X89915Y299140D01*
X89914Y299149D01*
X89915Y299158D01*
X89894Y299351D01*
X89875Y299540D01*
X89873Y299549D01*
X89872Y299558D01*
X89813Y299742D01*
X89757Y299925D01*
X89753Y299933D01*
X89750Y299942D01*
X89657Y300110D01*
X89565Y300279D01*
X89560Y300286D01*
X89555Y300294D01*
X89432Y300440D01*
X89308Y300589D01*
X89301Y300594D01*
X89295Y300601D01*
X89143Y300721D01*
X88994Y300841D01*
X88986Y300845D01*
X88979Y300851D01*
X88806Y300938D01*
X88637Y301027D01*
X88628Y301029D01*
X88620Y301033D01*
X88434Y301085D01*
X88250Y301138D01*
X88241Y301139D01*
X88232Y301141D01*
X88039Y301155D01*
X87848Y301171D01*
X87840Y301170D01*
X87831Y301170D01*
X87638Y301146D01*
X87449Y301124D01*
X87440Y301121D01*
X87431Y301120D01*
X87249Y301059D01*
X87066Y300999D01*
X87058Y300995D01*
X87050Y300992D01*
X86883Y300896D01*
X86715Y300801D01*
X86708Y300795D01*
X86701Y300791D01*
X86448Y300576D01*
X74764Y288892D01*
X74747Y288871D01*
X74726Y288854D01*
X74619Y288716D01*
X74509Y288581D01*
X74496Y288557D01*
X74480Y288536D01*
X74402Y288379D01*
X74320Y288225D01*
X74312Y288199D01*
X74300Y288175D01*
X74255Y288006D01*
X74205Y287839D01*
X74203Y287812D01*
X74196Y287787D01*
X74169Y287456D01*
X74169Y267977D01*
X62680Y256488D01*
X62663Y256467D01*
X62642Y256450D01*
X62535Y256312D01*
X62425Y256177D01*
X62412Y256153D01*
X62396Y256132D01*
X62318Y255975D01*
X62236Y255821D01*
X62228Y255795D01*
X62216Y255771D01*
X62171Y255602D01*
X62121Y255435D01*
X62119Y255408D01*
X62112Y255383D01*
X62085Y255052D01*
X62085Y249769D01*
X62087Y249742D01*
X62085Y249716D01*
X62107Y249542D01*
X62125Y249368D01*
X62132Y249343D01*
X62136Y249316D01*
X62191Y249151D01*
X62243Y248983D01*
X62256Y248960D01*
X62264Y248935D01*
X62351Y248783D01*
X62435Y248629D01*
X62452Y248609D01*
X62465Y248586D01*
X62680Y248333D01*
X72353Y238660D01*
X72360Y238654D01*
X72365Y238647D01*
X72515Y238527D01*
X72664Y238405D01*
X72672Y238400D01*
X72679Y238395D01*
X72849Y238306D01*
X73020Y238216D01*
X73029Y238213D01*
X73036Y238209D01*
X73221Y238156D01*
X73406Y238101D01*
X73415Y238100D01*
X73423Y238098D01*
X73615Y238082D01*
X73807Y238065D01*
X73816Y238066D01*
X73825Y238065D01*
X74014Y238087D01*
X74207Y238108D01*
X74216Y238111D01*
X74224Y238112D01*
X74406Y238171D01*
X74591Y238230D01*
X74599Y238234D01*
X74607Y238237D01*
X74776Y238332D01*
X74943Y238424D01*
X74950Y238430D01*
X74958Y238435D01*
X75104Y238561D01*
X75250Y238685D01*
X75256Y238692D01*
X75263Y238698D01*
X75380Y238849D01*
X75500Y239001D01*
X75504Y239009D01*
X75509Y239016D01*
X75595Y239188D01*
X75682Y239360D01*
X75685Y239368D01*
X75689Y239376D01*
X75739Y239563D01*
X75790Y239748D01*
X75791Y239757D01*
X75793Y239765D01*
X75820Y240096D01*
X75820Y241292D01*
X76713Y242185D01*
X96007Y242185D01*
X96900Y241292D01*
X96900Y226951D01*
X96902Y226933D01*
X96900Y226915D01*
X96921Y226733D01*
X96940Y226550D01*
X96945Y226533D01*
X96947Y226516D01*
X97004Y226341D01*
X97058Y226165D01*
X97066Y226150D01*
X97072Y226133D01*
X97162Y225973D01*
X97250Y225811D01*
X97261Y225798D01*
X97270Y225782D01*
X97390Y225643D01*
X97507Y225502D01*
X97521Y225491D01*
X97533Y225477D01*
X97678Y225365D01*
X97821Y225250D01*
X97837Y225242D01*
X97851Y225231D01*
X98016Y225149D01*
X98178Y225064D01*
X98195Y225059D01*
X98211Y225051D01*
X98390Y225004D01*
X98565Y224953D01*
X98583Y224951D01*
X98600Y224947D01*
X98931Y224920D01*
X99432Y224920D01*
X101310Y223042D01*
X101324Y222998D01*
X101376Y222830D01*
X101389Y222807D01*
X101397Y222782D01*
X101484Y222630D01*
X101568Y222476D01*
X101585Y222456D01*
X101598Y222433D01*
X101813Y222180D01*
X104957Y219036D01*
X104977Y219019D01*
X104995Y218998D01*
X105133Y218891D01*
X105268Y218781D01*
X105292Y218768D01*
X105313Y218752D01*
X105470Y218674D01*
X105624Y218592D01*
X105649Y218584D01*
X105673Y218572D01*
X105843Y218527D01*
X106010Y218477D01*
X106036Y218475D01*
X106062Y218468D01*
X106393Y218441D01*
X107691Y218441D01*
X108572Y218076D01*
X108585Y218072D01*
X108596Y218066D01*
X108777Y218014D01*
X108957Y217959D01*
X108970Y217958D01*
X108983Y217954D01*
X109171Y217939D01*
X109358Y217921D01*
X109371Y217923D01*
G37*
%LPC*%
G36*
X198279Y20439D02*
X198279Y20439D01*
X198279Y28762D01*
X198277Y28780D01*
X198279Y28797D01*
X198258Y28980D01*
X198239Y29162D01*
X198234Y29179D01*
X198232Y29197D01*
X198175Y29372D01*
X198121Y29547D01*
X198113Y29563D01*
X198107Y29580D01*
X198017Y29740D01*
X197929Y29901D01*
X197918Y29915D01*
X197909Y29931D01*
X197789Y30070D01*
X197672Y30211D01*
X197658Y30222D01*
X197646Y30235D01*
X197501Y30348D01*
X197358Y30463D01*
X197342Y30471D01*
X197328Y30482D01*
X197326Y30483D01*
X197388Y30517D01*
X197401Y30528D01*
X197417Y30537D01*
X197556Y30657D01*
X197697Y30775D01*
X197708Y30788D01*
X197722Y30800D01*
X197834Y30945D01*
X197949Y31088D01*
X197957Y31104D01*
X197968Y31118D01*
X198050Y31283D01*
X198135Y31446D01*
X198140Y31463D01*
X198148Y31479D01*
X198195Y31657D01*
X198246Y31832D01*
X198248Y31850D01*
X198252Y31867D01*
X198279Y32198D01*
X198279Y40521D01*
X204615Y40521D01*
X205261Y40348D01*
X205840Y40013D01*
X206313Y39540D01*
X206648Y38961D01*
X206762Y38534D01*
X206810Y38405D01*
X206851Y38274D01*
X206881Y38217D01*
X206904Y38157D01*
X206977Y38041D01*
X207043Y37920D01*
X207084Y37870D01*
X207118Y37816D01*
X207212Y37716D01*
X207300Y37611D01*
X207350Y37570D01*
X207395Y37524D01*
X207507Y37444D01*
X207614Y37358D01*
X207671Y37329D01*
X207724Y37292D01*
X207849Y37236D01*
X207971Y37173D01*
X208033Y37155D01*
X208092Y37129D01*
X208226Y37099D01*
X208358Y37061D01*
X208423Y37056D01*
X208485Y37042D01*
X208622Y37040D01*
X208760Y37028D01*
X208824Y37036D01*
X208888Y37035D01*
X209023Y37059D01*
X209159Y37075D01*
X209221Y37095D01*
X209284Y37107D01*
X209411Y37158D01*
X209542Y37200D01*
X209598Y37232D01*
X209658Y37256D01*
X209773Y37331D01*
X209893Y37398D01*
X209941Y37440D01*
X209995Y37475D01*
X210094Y37572D01*
X210198Y37661D01*
X210237Y37712D01*
X210283Y37757D01*
X210360Y37871D01*
X210444Y37979D01*
X210473Y38037D01*
X210509Y38090D01*
X210562Y38217D01*
X210624Y38340D01*
X210640Y38402D01*
X210665Y38461D01*
X210680Y38537D01*
X211648Y39505D01*
X215077Y39505D01*
X215103Y39507D01*
X215130Y39505D01*
X215304Y39527D01*
X215477Y39545D01*
X215503Y39552D01*
X215529Y39556D01*
X215695Y39611D01*
X215862Y39663D01*
X215886Y39676D01*
X215911Y39684D01*
X216063Y39771D01*
X216216Y39855D01*
X216237Y39872D01*
X216260Y39885D01*
X216513Y40100D01*
X218352Y41939D01*
X218369Y41960D01*
X218390Y41977D01*
X218497Y42115D01*
X218607Y42251D01*
X218620Y42274D01*
X218636Y42295D01*
X218714Y42452D01*
X218796Y42606D01*
X218804Y42632D01*
X218816Y42656D01*
X218861Y42825D01*
X218911Y42992D01*
X218913Y43019D01*
X218920Y43045D01*
X218947Y43375D01*
X218947Y45720D01*
X218945Y45738D01*
X218947Y45756D01*
X218926Y45938D01*
X218907Y46121D01*
X218902Y46138D01*
X218900Y46155D01*
X218843Y46330D01*
X218789Y46506D01*
X218781Y46521D01*
X218775Y46538D01*
X218685Y46698D01*
X218597Y46860D01*
X218586Y46873D01*
X218577Y46889D01*
X218457Y47028D01*
X218340Y47169D01*
X218326Y47180D01*
X218314Y47194D01*
X218169Y47306D01*
X218026Y47421D01*
X218010Y47429D01*
X217996Y47440D01*
X217831Y47522D01*
X217669Y47607D01*
X217652Y47612D01*
X217636Y47620D01*
X217457Y47667D01*
X217282Y47718D01*
X217264Y47720D01*
X217247Y47724D01*
X216916Y47751D01*
X214506Y47751D01*
X213613Y48644D01*
X213613Y72260D01*
X214506Y73153D01*
X227962Y73153D01*
X228855Y72260D01*
X228855Y57404D01*
X228857Y57386D01*
X228855Y57368D01*
X228876Y57186D01*
X228895Y57003D01*
X228900Y56986D01*
X228902Y56969D01*
X228959Y56794D01*
X229013Y56618D01*
X229021Y56603D01*
X229027Y56586D01*
X229117Y56426D01*
X229205Y56264D01*
X229216Y56251D01*
X229225Y56235D01*
X229345Y56096D01*
X229462Y55955D01*
X229476Y55944D01*
X229488Y55930D01*
X229633Y55818D01*
X229776Y55703D01*
X229792Y55695D01*
X229806Y55684D01*
X229971Y55602D01*
X230133Y55517D01*
X230150Y55512D01*
X230166Y55504D01*
X230345Y55457D01*
X230520Y55406D01*
X230538Y55404D01*
X230555Y55400D01*
X230886Y55373D01*
X252030Y55373D01*
X253710Y54677D01*
X257727Y50660D01*
X257748Y50643D01*
X257765Y50622D01*
X257903Y50515D01*
X258039Y50405D01*
X258062Y50392D01*
X258083Y50376D01*
X258241Y50297D01*
X258394Y50216D01*
X258420Y50208D01*
X258444Y50196D01*
X258613Y50151D01*
X258780Y50101D01*
X258807Y50099D01*
X258833Y50092D01*
X259163Y50065D01*
X269252Y50065D01*
X270145Y49172D01*
X270145Y47524D01*
X270147Y47506D01*
X270145Y47488D01*
X270166Y47306D01*
X270185Y47123D01*
X270190Y47106D01*
X270192Y47089D01*
X270249Y46914D01*
X270303Y46738D01*
X270311Y46723D01*
X270317Y46706D01*
X270407Y46546D01*
X270495Y46384D01*
X270506Y46371D01*
X270515Y46355D01*
X270635Y46216D01*
X270752Y46075D01*
X270766Y46064D01*
X270778Y46050D01*
X270923Y45938D01*
X271066Y45823D01*
X271082Y45815D01*
X271096Y45804D01*
X271261Y45722D01*
X271423Y45637D01*
X271440Y45632D01*
X271456Y45624D01*
X271635Y45577D01*
X271810Y45526D01*
X271828Y45524D01*
X271845Y45520D01*
X272176Y45493D01*
X333066Y45493D01*
X333097Y45496D01*
X333128Y45494D01*
X333297Y45516D01*
X333466Y45533D01*
X333496Y45542D01*
X333527Y45546D01*
X333843Y45647D01*
X336106Y46585D01*
X340094Y46585D01*
X343779Y45059D01*
X346599Y42239D01*
X348125Y38554D01*
X348125Y34566D01*
X346599Y30881D01*
X343779Y28061D01*
X340094Y26535D01*
X336106Y26535D01*
X332421Y28061D01*
X329601Y30881D01*
X328042Y34645D01*
X328035Y34717D01*
X328030Y34734D01*
X328028Y34751D01*
X327971Y34926D01*
X327917Y35102D01*
X327909Y35117D01*
X327903Y35134D01*
X327813Y35294D01*
X327725Y35456D01*
X327714Y35469D01*
X327705Y35485D01*
X327585Y35624D01*
X327468Y35765D01*
X327454Y35776D01*
X327442Y35790D01*
X327297Y35902D01*
X327154Y36017D01*
X327138Y36025D01*
X327124Y36036D01*
X326959Y36118D01*
X326797Y36203D01*
X326780Y36208D01*
X326764Y36216D01*
X326585Y36263D01*
X326410Y36314D01*
X326392Y36316D01*
X326375Y36320D01*
X326044Y36347D01*
X272176Y36347D01*
X272158Y36345D01*
X272140Y36347D01*
X271958Y36326D01*
X271775Y36307D01*
X271758Y36302D01*
X271741Y36300D01*
X271566Y36243D01*
X271390Y36189D01*
X271375Y36181D01*
X271358Y36175D01*
X271198Y36085D01*
X271036Y35997D01*
X271023Y35986D01*
X271007Y35977D01*
X270868Y35857D01*
X270727Y35740D01*
X270716Y35726D01*
X270702Y35714D01*
X270590Y35569D01*
X270475Y35426D01*
X270467Y35410D01*
X270456Y35396D01*
X270374Y35231D01*
X270289Y35069D01*
X270284Y35052D01*
X270276Y35036D01*
X270229Y34857D01*
X270178Y34682D01*
X270176Y34664D01*
X270172Y34647D01*
X270145Y34316D01*
X270145Y32668D01*
X269252Y31775D01*
X252748Y31775D01*
X251855Y32668D01*
X251855Y42757D01*
X251853Y42783D01*
X251855Y42810D01*
X251833Y42984D01*
X251815Y43157D01*
X251808Y43183D01*
X251804Y43209D01*
X251749Y43375D01*
X251697Y43542D01*
X251684Y43566D01*
X251676Y43591D01*
X251589Y43743D01*
X251505Y43896D01*
X251488Y43917D01*
X251475Y43940D01*
X251260Y44193D01*
X249821Y45632D01*
X249800Y45649D01*
X249783Y45670D01*
X249645Y45777D01*
X249509Y45887D01*
X249486Y45900D01*
X249465Y45916D01*
X249308Y45994D01*
X249154Y46076D01*
X249128Y46084D01*
X249104Y46096D01*
X248935Y46141D01*
X248768Y46191D01*
X248741Y46193D01*
X248715Y46200D01*
X248385Y46227D01*
X230124Y46227D01*
X230106Y46225D01*
X230088Y46227D01*
X229906Y46206D01*
X229723Y46187D01*
X229706Y46182D01*
X229689Y46180D01*
X229514Y46123D01*
X229338Y46069D01*
X229323Y46061D01*
X229306Y46055D01*
X229146Y45965D01*
X228984Y45877D01*
X228971Y45866D01*
X228955Y45857D01*
X228816Y45737D01*
X228675Y45620D01*
X228664Y45606D01*
X228650Y45594D01*
X228538Y45449D01*
X228423Y45306D01*
X228415Y45290D01*
X228404Y45276D01*
X228322Y45111D01*
X228237Y44949D01*
X228232Y44932D01*
X228224Y44916D01*
X228177Y44737D01*
X228126Y44562D01*
X228124Y44544D01*
X228120Y44527D01*
X228093Y44196D01*
X228093Y41536D01*
X228095Y41518D01*
X228093Y41500D01*
X228114Y41318D01*
X228133Y41135D01*
X228138Y41118D01*
X228140Y41101D01*
X228197Y40926D01*
X228251Y40750D01*
X228259Y40735D01*
X228265Y40718D01*
X228355Y40557D01*
X228443Y40396D01*
X228454Y40383D01*
X228463Y40367D01*
X228583Y40228D01*
X228700Y40087D01*
X228714Y40076D01*
X228726Y40062D01*
X228871Y39950D01*
X229014Y39835D01*
X229030Y39827D01*
X229044Y39816D01*
X229209Y39734D01*
X229371Y39649D01*
X229388Y39644D01*
X229404Y39636D01*
X229583Y39589D01*
X229758Y39538D01*
X229776Y39536D01*
X229793Y39532D01*
X230124Y39505D01*
X232412Y39505D01*
X233305Y38612D01*
X233305Y22348D01*
X232412Y21455D01*
X211648Y21455D01*
X210677Y22427D01*
X210675Y22432D01*
X210643Y22566D01*
X210616Y22625D01*
X210597Y22686D01*
X210532Y22807D01*
X210474Y22932D01*
X210436Y22984D01*
X210405Y23040D01*
X210318Y23145D01*
X210236Y23257D01*
X210189Y23300D01*
X210148Y23349D01*
X210041Y23435D01*
X209939Y23528D01*
X209884Y23561D01*
X209834Y23602D01*
X209712Y23665D01*
X209594Y23736D01*
X209534Y23758D01*
X209477Y23787D01*
X209345Y23825D01*
X209215Y23872D01*
X209152Y23881D01*
X209090Y23899D01*
X208953Y23910D01*
X208817Y23930D01*
X208753Y23926D01*
X208688Y23932D01*
X208552Y23915D01*
X208415Y23908D01*
X208353Y23892D01*
X208289Y23885D01*
X208158Y23842D01*
X208025Y23808D01*
X207967Y23780D01*
X207906Y23760D01*
X207786Y23692D01*
X207662Y23632D01*
X207611Y23593D01*
X207555Y23562D01*
X207451Y23472D01*
X207342Y23389D01*
X207299Y23341D01*
X207251Y23299D01*
X207166Y23190D01*
X207075Y23087D01*
X207043Y23031D01*
X207004Y22981D01*
X206943Y22858D01*
X206874Y22739D01*
X206849Y22669D01*
X206824Y22620D01*
X206804Y22543D01*
X206762Y22426D01*
X206648Y21999D01*
X206313Y21420D01*
X205840Y20947D01*
X205261Y20612D01*
X204615Y20439D01*
X198279Y20439D01*
G37*
%LPD*%
%LPC*%
G36*
X179488Y109905D02*
X179488Y109905D01*
X178595Y110798D01*
X178595Y134062D01*
X179488Y134955D01*
X216752Y134955D01*
X217645Y134062D01*
X217645Y110798D01*
X216752Y109905D01*
X179488Y109905D01*
G37*
%LPD*%
%LPC*%
G36*
X27486Y341055D02*
X27486Y341055D01*
X23801Y342581D01*
X20981Y345401D01*
X19455Y349086D01*
X19455Y353074D01*
X20981Y356759D01*
X23801Y359579D01*
X24079Y359694D01*
X24080Y359694D01*
X27486Y361105D01*
X31474Y361105D01*
X35159Y359579D01*
X37979Y356759D01*
X39505Y353074D01*
X39505Y349086D01*
X37979Y345401D01*
X35159Y342581D01*
X31474Y341055D01*
X27486Y341055D01*
G37*
%LPD*%
%LPC*%
G36*
X27486Y411055D02*
X27486Y411055D01*
X23801Y412581D01*
X20981Y415401D01*
X19455Y419086D01*
X19455Y423074D01*
X20981Y426759D01*
X23801Y429579D01*
X27486Y431105D01*
X31474Y431105D01*
X35159Y429579D01*
X37979Y426759D01*
X39505Y423074D01*
X39505Y419086D01*
X37979Y415401D01*
X35159Y412581D01*
X31474Y411055D01*
X27486Y411055D01*
G37*
%LPD*%
%LPC*%
G36*
X89201Y276859D02*
X89201Y276859D01*
X89644Y278220D01*
X90370Y279645D01*
X91310Y280939D01*
X92441Y282070D01*
X93735Y283010D01*
X95160Y283736D01*
X96681Y284231D01*
X98260Y284481D01*
X104141Y284481D01*
X104141Y276859D01*
X89201Y276859D01*
G37*
%LPD*%
%LPC*%
G36*
X98260Y264159D02*
X98260Y264159D01*
X96681Y264409D01*
X95160Y264904D01*
X93735Y265630D01*
X92441Y266570D01*
X91310Y267701D01*
X90370Y268995D01*
X89644Y270420D01*
X89201Y271781D01*
X104141Y271781D01*
X104141Y264159D01*
X98260Y264159D01*
G37*
%LPD*%
%LPC*%
G36*
X36317Y53799D02*
X36317Y53799D01*
X36368Y54115D01*
X36961Y55940D01*
X37832Y57650D01*
X38960Y59203D01*
X40317Y60560D01*
X41870Y61688D01*
X43580Y62559D01*
X45405Y63152D01*
X45721Y63203D01*
X45721Y53799D01*
X36317Y53799D01*
G37*
%LPD*%
%LPC*%
G36*
X178053Y63499D02*
X178053Y63499D01*
X178053Y74169D01*
X181437Y74169D01*
X182083Y73996D01*
X182662Y73661D01*
X183135Y73188D01*
X183470Y72609D01*
X183643Y71963D01*
X183643Y63499D01*
X178053Y63499D01*
G37*
%LPD*%
%LPC*%
G36*
X178053Y46735D02*
X178053Y46735D01*
X178053Y57405D01*
X183643Y57405D01*
X183643Y48941D01*
X183470Y48295D01*
X183135Y47716D01*
X182662Y47243D01*
X182083Y46908D01*
X181437Y46735D01*
X178053Y46735D01*
G37*
%LPD*%
%LPC*%
G36*
X166369Y63499D02*
X166369Y63499D01*
X166369Y71963D01*
X166542Y72609D01*
X166877Y73188D01*
X167350Y73661D01*
X167929Y73996D01*
X168575Y74169D01*
X171959Y74169D01*
X171959Y63499D01*
X166369Y63499D01*
G37*
%LPD*%
%LPC*%
G36*
X168575Y46735D02*
X168575Y46735D01*
X167929Y46908D01*
X167350Y47243D01*
X166877Y47716D01*
X166542Y48295D01*
X166369Y48941D01*
X166369Y57405D01*
X171959Y57405D01*
X171959Y46735D01*
X168575Y46735D01*
G37*
%LPD*%
%LPC*%
G36*
X417539Y43459D02*
X417539Y43459D01*
X417539Y51081D01*
X422955Y51081D01*
X423601Y50908D01*
X424180Y50573D01*
X424653Y50100D01*
X424988Y49521D01*
X425161Y48875D01*
X425161Y43459D01*
X417539Y43459D01*
G37*
%LPD*%
%LPC*%
G36*
X404839Y43459D02*
X404839Y43459D01*
X404839Y48875D01*
X405012Y49521D01*
X405347Y50100D01*
X405820Y50573D01*
X406399Y50908D01*
X407045Y51081D01*
X412461Y51081D01*
X412461Y43459D01*
X404839Y43459D01*
G37*
%LPD*%
%LPC*%
G36*
X417539Y30759D02*
X417539Y30759D01*
X417539Y38381D01*
X425161Y38381D01*
X425161Y32965D01*
X424988Y32319D01*
X424653Y31740D01*
X424180Y31267D01*
X423601Y30932D01*
X422955Y30759D01*
X417539Y30759D01*
G37*
%LPD*%
%LPC*%
G36*
X407045Y30759D02*
X407045Y30759D01*
X406399Y30932D01*
X405820Y31267D01*
X405347Y31740D01*
X405012Y32319D01*
X404839Y32965D01*
X404839Y38381D01*
X412461Y38381D01*
X412461Y30759D01*
X407045Y30759D01*
G37*
%LPD*%
%LPC*%
G36*
X151069Y119099D02*
X151069Y119099D01*
X151069Y127641D01*
X155155Y127641D01*
X155801Y127468D01*
X156380Y127133D01*
X156853Y126660D01*
X157188Y126081D01*
X157361Y125435D01*
X157361Y119099D01*
X151069Y119099D01*
G37*
%LPD*%
%LPC*%
G36*
X182239Y34229D02*
X182239Y34229D01*
X182239Y38315D01*
X182412Y38961D01*
X182747Y39540D01*
X183220Y40013D01*
X183799Y40348D01*
X184445Y40521D01*
X190781Y40521D01*
X190781Y34229D01*
X182239Y34229D01*
G37*
%LPD*%
%LPC*%
G36*
X184445Y20439D02*
X184445Y20439D01*
X183799Y20612D01*
X183220Y20947D01*
X182747Y21420D01*
X182412Y21999D01*
X182239Y22645D01*
X182239Y26731D01*
X190781Y26731D01*
X190781Y20439D01*
X184445Y20439D01*
G37*
%LPD*%
%LPC*%
G36*
X53779Y283399D02*
X53779Y283399D01*
X53779Y290956D01*
X58115Y290956D01*
X58761Y290783D01*
X59340Y290448D01*
X59813Y289975D01*
X60148Y289396D01*
X60321Y288750D01*
X60321Y283399D01*
X53779Y283399D01*
G37*
%LPD*%
%LPC*%
G36*
X53779Y267844D02*
X53779Y267844D01*
X53779Y275401D01*
X60321Y275401D01*
X60321Y270050D01*
X60148Y269404D01*
X59813Y268825D01*
X59340Y268352D01*
X58761Y268017D01*
X58115Y267844D01*
X53779Y267844D01*
G37*
%LPD*%
%LPC*%
G36*
X39239Y283399D02*
X39239Y283399D01*
X39239Y288750D01*
X39412Y289396D01*
X39747Y289975D01*
X40220Y290448D01*
X40799Y290783D01*
X41445Y290956D01*
X45781Y290956D01*
X45781Y283399D01*
X39239Y283399D01*
G37*
%LPD*%
%LPC*%
G36*
X41445Y267844D02*
X41445Y267844D01*
X40799Y268017D01*
X40220Y268352D01*
X39747Y268825D01*
X39412Y269404D01*
X39239Y270050D01*
X39239Y275401D01*
X45781Y275401D01*
X45781Y267844D01*
X41445Y267844D01*
G37*
%LPD*%
%LPC*%
G36*
X32229Y388829D02*
X32229Y388829D01*
X32229Y396796D01*
X33718Y396312D01*
X35267Y395523D01*
X36673Y394501D01*
X37901Y393273D01*
X38923Y391867D01*
X39712Y390318D01*
X40196Y388829D01*
X32229Y388829D01*
G37*
%LPD*%
%LPC*%
G36*
X375849Y39309D02*
X375849Y39309D01*
X375849Y47276D01*
X377338Y46792D01*
X378887Y46003D01*
X380293Y44981D01*
X381521Y43753D01*
X382543Y42347D01*
X383332Y40798D01*
X383816Y39309D01*
X375849Y39309D01*
G37*
%LPD*%
%LPC*%
G36*
X18764Y388829D02*
X18764Y388829D01*
X19248Y390318D01*
X20037Y391867D01*
X21059Y393273D01*
X22287Y394501D01*
X23693Y395523D01*
X25242Y396312D01*
X26731Y396796D01*
X26731Y388829D01*
X18764Y388829D01*
G37*
%LPD*%
%LPC*%
G36*
X32229Y383331D02*
X32229Y383331D01*
X40196Y383331D01*
X39712Y381842D01*
X38923Y380293D01*
X37901Y378887D01*
X36673Y377659D01*
X35267Y376637D01*
X33718Y375848D01*
X32229Y375364D01*
X32229Y383331D01*
G37*
%LPD*%
%LPC*%
G36*
X362384Y39309D02*
X362384Y39309D01*
X362868Y40798D01*
X363657Y42347D01*
X364679Y43753D01*
X365907Y44981D01*
X367313Y46003D01*
X368862Y46792D01*
X370351Y47276D01*
X370351Y39309D01*
X362384Y39309D01*
G37*
%LPD*%
%LPC*%
G36*
X375849Y33811D02*
X375849Y33811D01*
X383816Y33811D01*
X383332Y32322D01*
X382543Y30773D01*
X381521Y29367D01*
X380293Y28139D01*
X378887Y27117D01*
X377338Y26328D01*
X375849Y25844D01*
X375849Y33811D01*
G37*
%LPD*%
%LPC*%
G36*
X25242Y375848D02*
X25242Y375848D01*
X23693Y376637D01*
X22287Y377659D01*
X21059Y378887D01*
X20037Y380293D01*
X19248Y381842D01*
X18764Y383331D01*
X26731Y383331D01*
X26731Y375364D01*
X25242Y375848D01*
G37*
%LPD*%
%LPC*%
G36*
X368862Y26328D02*
X368862Y26328D01*
X367313Y27117D01*
X365907Y28139D01*
X364679Y29367D01*
X363657Y30773D01*
X362868Y32322D01*
X362384Y33811D01*
X370351Y33811D01*
X370351Y25844D01*
X368862Y26328D01*
G37*
%LPD*%
D10*
X147320Y87850D03*
X147320Y115350D03*
D11*
X222030Y30480D03*
X194530Y30480D03*
D12*
X76200Y112780D03*
X76200Y141220D03*
D13*
X175006Y60452D03*
X198120Y60452D03*
X221234Y60452D03*
D14*
X198120Y122430D03*
D15*
X203200Y314960D03*
X203200Y340360D03*
X203200Y289560D03*
D16*
X48260Y25860D03*
X73660Y25860D03*
X99060Y25860D03*
X124460Y25860D03*
X124460Y51260D03*
X99060Y51260D03*
X73660Y51260D03*
X48260Y51260D03*
D17*
X406611Y411230D03*
X355811Y411230D03*
X305011Y411230D03*
X254211Y411230D03*
X203411Y411230D03*
X152611Y411230D03*
D18*
X363000Y334920D03*
X313000Y334920D03*
X415000Y40920D03*
X261000Y40920D03*
D12*
X50800Y141220D03*
X50800Y112780D03*
D15*
X203200Y203200D03*
X203200Y228600D03*
X203200Y177800D03*
D19*
X114300Y274320D02*
X99060Y274320D01*
X99060Y299720D02*
X114300Y299720D01*
X114300Y325120D02*
X99060Y325120D01*
D12*
X121920Y212340D03*
X121920Y183900D03*
D20*
X373100Y36560D03*
X338100Y36560D03*
D21*
X18060Y254000D03*
X53060Y254000D03*
X53060Y228600D03*
X18060Y228600D03*
X53060Y203200D03*
X18060Y203200D03*
D12*
X86360Y232660D03*
X86360Y204220D03*
D22*
X21340Y279400D03*
X49780Y279400D03*
X49780Y177800D03*
X21340Y177800D03*
D19*
X284480Y358140D02*
X284480Y373380D01*
X335280Y373380D02*
X335280Y358140D01*
D20*
X29480Y421080D03*
X29480Y386080D03*
X29480Y351080D03*
D19*
X83820Y358140D02*
X99060Y358140D01*
X99060Y383540D02*
X83820Y383540D01*
X83820Y408940D02*
X99060Y408940D01*
X99060Y434340D02*
X83820Y434340D01*
D23*
X76200Y112780D02*
X76200Y71120D01*
X86360Y60960D01*
D24*
X86360Y40640D01*
D23*
X99060Y27940D01*
X99060Y25860D01*
X121920Y212340D02*
X121920Y266853D01*
X124968Y269901D01*
X124968Y281432D01*
X106680Y299720D01*
X121920Y212340D02*
X121920Y205226D01*
X100076Y183382D01*
X100076Y159825D02*
X115827Y144073D01*
X100076Y159825D02*
X100076Y183382D01*
X115827Y144073D02*
X115827Y112773D01*
X116840Y111760D01*
D25*
X116840Y111760D03*
D26*
X147320Y91440D02*
X198120Y91440D01*
X198120Y60452D01*
X141780Y25860D02*
X124460Y25860D01*
X141780Y25860D02*
X142240Y76200D01*
X142240Y81280D01*
X147320Y91440D01*
D27*
X198120Y91440D03*
D26*
X76200Y141220D02*
X50800Y141220D01*
X127000Y91440D02*
X142240Y91440D01*
X143900Y93100D01*
X147320Y87850D01*
X147320Y91440D01*
X137160Y309880D02*
X121920Y325120D01*
X106680Y325120D01*
X137160Y183900D02*
X137160Y131060D01*
X127000Y120900D02*
X127000Y91440D01*
X121920Y183900D02*
X137160Y183900D01*
X137160Y309880D01*
X137160Y131060D02*
X127000Y120900D01*
D25*
X35560Y163580D03*
D28*
X54470Y252590D02*
X53060Y254000D01*
X54470Y252590D02*
X74400Y232660D01*
X86360Y232660D01*
D23*
X71120Y289560D02*
X106680Y325120D01*
X71120Y289560D02*
X71120Y269240D01*
X54470Y252590D01*
X50800Y141220D02*
X24380Y141220D01*
X15240Y132080D01*
D29*
X15240Y132080D03*
D23*
X89242Y163580D02*
X91440Y162964D01*
D26*
X50800Y163580D02*
X35560Y163580D01*
X50800Y163580D02*
X89242Y163580D01*
X91440Y162964D02*
X91440Y132080D01*
X106680Y116840D01*
X106680Y101600D01*
X116840Y91440D01*
X127000Y91440D01*
D23*
X50800Y176780D02*
X49780Y177800D01*
D26*
X50800Y176780D02*
X50800Y163580D01*
X50800Y141220D01*
X221234Y60452D02*
X223520Y58166D01*
X223520Y50800D01*
X223520Y40640D01*
X216780Y33900D01*
X222030Y30480D01*
X251120Y50800D02*
X261000Y40920D01*
X251120Y50800D02*
X223520Y50800D01*
X333740Y40920D02*
X338100Y36560D01*
X333740Y40920D02*
X261000Y40920D01*
D23*
X71628Y91952D02*
X50800Y112780D01*
X71628Y91952D02*
X71628Y69226D01*
X73660Y67194D01*
X73660Y51260D01*
D28*
X18060Y254000D02*
X21340Y257280D01*
X21340Y279400D01*
X98169Y221871D02*
X106680Y213360D01*
D29*
X106680Y213360D03*
D23*
X96638Y221612D02*
X76083Y221612D01*
X96897Y221871D02*
X98169Y221871D01*
X96897Y221871D02*
X96638Y221612D01*
X69095Y228600D02*
X53060Y228600D01*
X69095Y228600D02*
X76083Y221612D01*
D25*
X89150Y185670D03*
D23*
X81649Y193172D02*
X76083Y193172D01*
X81649Y193172D02*
X89150Y185670D01*
X66055Y203200D02*
X53060Y203200D01*
X66055Y203200D02*
X76083Y193172D01*
X28608Y218052D02*
X18060Y228600D01*
X72528Y218052D02*
X86360Y204220D01*
X72528Y218052D02*
X28608Y218052D01*
X18060Y203200D02*
X21340Y199920D01*
X21340Y177800D01*
X91440Y345440D02*
X91440Y358140D01*
X91440Y345440D02*
X60960Y309880D01*
D25*
X60960Y309880D03*
D23*
X73152Y337312D02*
X73152Y365252D01*
X91440Y383540D01*
D25*
X45720Y309880D03*
D23*
X73152Y337312D01*
X66040Y383540D02*
X91440Y408940D01*
X66040Y383540D02*
X66040Y340360D01*
D25*
X30480Y299720D03*
D23*
X30480Y304800D02*
X66040Y340360D01*
X30480Y304800D02*
X30480Y299720D01*
X60960Y403860D02*
X91440Y434340D01*
X60960Y403860D02*
X60960Y345440D01*
X35560Y320040D01*
X20320Y320040D01*
D25*
X20320Y320040D03*
M02*
