G04 EAGLE Gerber RS-274X export*
G75*
%MOMM*%
%FSLAX34Y34*%
%LPD*%
%INSilkscreen Bottom*%
%IPPOS*%
%AMOC8*
5,1,8,0,0,1.08239X$1,22.5*%
G01*
%ADD10C,0.152400*%
%ADD11C,0.101600*%
%ADD12C,0.076200*%
%ADD13C,0.552200*%


D10*
X359918Y448832D02*
X359918Y432562D01*
X349071Y432562D01*
X415798Y432562D02*
X415798Y448832D01*
X404951Y432562D01*
X404951Y448832D01*
D11*
X304292Y75700D02*
X304292Y66548D01*
X299716Y66548D01*
X298191Y68073D01*
X298191Y74175D01*
X299716Y75700D01*
X304292Y75700D01*
X293412Y66548D02*
X290361Y66548D01*
X288836Y68073D01*
X288836Y71124D01*
X290361Y72649D01*
X293412Y72649D01*
X294937Y71124D01*
X294937Y68073D01*
X293412Y66548D01*
X285582Y68073D02*
X285582Y72649D01*
X285582Y68073D02*
X284056Y66548D01*
X279480Y66548D01*
X279480Y72649D01*
X276226Y75700D02*
X276226Y66548D01*
X271651Y66548D01*
X270125Y68073D01*
X270125Y71124D01*
X271651Y72649D01*
X276226Y72649D01*
X266871Y75700D02*
X265346Y75700D01*
X265346Y66548D01*
X266871Y66548D02*
X263821Y66548D01*
X259109Y66548D02*
X256059Y66548D01*
X259109Y66548D02*
X260634Y68073D01*
X260634Y71124D01*
X259109Y72649D01*
X256059Y72649D01*
X254533Y71124D01*
X254533Y69599D01*
X260634Y69599D01*
X240399Y72649D02*
X235823Y72649D01*
X240399Y72649D02*
X241924Y71124D01*
X241924Y68073D01*
X240399Y66548D01*
X235823Y66548D01*
X232569Y66548D02*
X232569Y75700D01*
X231044Y72649D02*
X232569Y71124D01*
X231044Y72649D02*
X227993Y72649D01*
X226468Y71124D01*
X226468Y66548D01*
X221688Y72649D02*
X218638Y72649D01*
X217113Y71124D01*
X217113Y66548D01*
X221688Y66548D01*
X223214Y68073D01*
X221688Y69599D01*
X217113Y69599D01*
X213859Y72649D02*
X213859Y66548D01*
X213859Y72649D02*
X209283Y72649D01*
X207757Y71124D01*
X207757Y66548D01*
X204503Y66548D02*
X204503Y72649D01*
X199927Y72649D01*
X198402Y71124D01*
X198402Y66548D01*
X193623Y66548D02*
X190572Y66548D01*
X193623Y66548D02*
X195148Y68073D01*
X195148Y71124D01*
X193623Y72649D01*
X190572Y72649D01*
X189047Y71124D01*
X189047Y69599D01*
X195148Y69599D01*
X185793Y75700D02*
X184268Y75700D01*
X184268Y66548D01*
X185793Y66548D02*
X182742Y66548D01*
X304292Y60460D02*
X304292Y51308D01*
X301241Y54359D01*
X298191Y51308D01*
X298191Y60460D01*
X294937Y57409D02*
X293412Y57409D01*
X293412Y51308D01*
X294937Y51308D02*
X291886Y51308D01*
X293412Y60460D02*
X293412Y61985D01*
X288700Y60460D02*
X288700Y51308D01*
X288700Y60460D02*
X282599Y60460D01*
X285649Y55884D02*
X288700Y55884D01*
X279345Y57409D02*
X277820Y57409D01*
X277820Y51308D01*
X279345Y51308D02*
X276294Y51308D01*
X277820Y60460D02*
X277820Y61985D01*
X263753Y51308D02*
X259177Y51308D01*
X257652Y52833D01*
X259177Y54359D01*
X262228Y54359D01*
X263753Y55884D01*
X262228Y57409D01*
X257652Y57409D01*
X254398Y57409D02*
X254398Y52833D01*
X252872Y51308D01*
X251347Y52833D01*
X249822Y51308D01*
X248297Y52833D01*
X248297Y57409D01*
X245043Y57409D02*
X243517Y57409D01*
X243517Y51308D01*
X241992Y51308D02*
X245043Y51308D01*
X243517Y60460D02*
X243517Y61985D01*
X237280Y58935D02*
X237280Y52833D01*
X235755Y51308D01*
X235755Y57409D02*
X238806Y57409D01*
X231044Y57409D02*
X226468Y57409D01*
X231044Y57409D02*
X232569Y55884D01*
X232569Y52833D01*
X231044Y51308D01*
X226468Y51308D01*
X223214Y51308D02*
X223214Y60460D01*
X221688Y57409D02*
X223214Y55884D01*
X221688Y57409D02*
X218638Y57409D01*
X217113Y55884D01*
X217113Y51308D01*
X298191Y20828D02*
X304292Y20828D01*
X298191Y26929D01*
X298191Y28455D01*
X299716Y29980D01*
X302767Y29980D01*
X304292Y28455D01*
X294937Y28455D02*
X294937Y22353D01*
X294937Y28455D02*
X293412Y29980D01*
X290361Y29980D01*
X288836Y28455D01*
X288836Y22353D01*
X290361Y20828D01*
X293412Y20828D01*
X294937Y22353D01*
X288836Y28455D01*
X285582Y26929D02*
X282531Y29980D01*
X282531Y20828D01*
X285582Y20828D02*
X279480Y20828D01*
X276226Y22353D02*
X274701Y20828D01*
X271651Y20828D01*
X270125Y22353D01*
X270125Y28455D01*
X271651Y29980D01*
X274701Y29980D01*
X276226Y28455D01*
X276226Y26929D01*
X274701Y25404D01*
X270125Y25404D01*
X257516Y26929D02*
X257516Y20828D01*
X257516Y26929D02*
X255991Y26929D01*
X254465Y25404D01*
X254465Y20828D01*
X254465Y25404D02*
X252940Y26929D01*
X251415Y25404D01*
X251415Y20828D01*
X243585Y20828D02*
X243585Y29980D01*
X248161Y25404D01*
X242060Y25404D01*
X238806Y20828D02*
X234230Y20828D01*
X232705Y22353D01*
X234230Y23879D01*
X237280Y23879D01*
X238806Y25404D01*
X237280Y26929D01*
X232705Y26929D01*
X229451Y26929D02*
X229451Y22353D01*
X227925Y20828D01*
X223349Y20828D01*
X223349Y19303D02*
X223349Y26929D01*
X223349Y19303D02*
X224875Y17777D01*
X226400Y17777D01*
X220095Y20828D02*
X215519Y20828D01*
X213994Y22353D01*
X215519Y23879D01*
X218570Y23879D01*
X220095Y25404D01*
X218570Y26929D01*
X213994Y26929D01*
X209215Y28455D02*
X209215Y22353D01*
X207690Y20828D01*
X207690Y26929D02*
X210740Y26929D01*
X202978Y20828D02*
X199927Y20828D01*
X202978Y20828D02*
X204503Y22353D01*
X204503Y25404D01*
X202978Y26929D01*
X199927Y26929D01*
X198402Y25404D01*
X198402Y23879D01*
X204503Y23879D01*
X195148Y20828D02*
X195148Y26929D01*
X193623Y26929D01*
X192098Y25404D01*
X192098Y20828D01*
X192098Y25404D02*
X190572Y26929D01*
X189047Y25404D01*
X189047Y20828D01*
X185793Y20828D02*
X185793Y22353D01*
X184268Y22353D01*
X184268Y20828D01*
X185793Y20828D01*
X181115Y17777D02*
X181115Y26929D01*
X176539Y26929D01*
X175014Y25404D01*
X175014Y22353D01*
X176539Y20828D01*
X181115Y20828D01*
X171760Y29980D02*
X170235Y29980D01*
X170235Y20828D01*
X171760Y20828D02*
X168710Y20828D01*
D12*
X340144Y22993D02*
X345059Y22993D01*
X345059Y19307D01*
X342602Y20536D01*
X341373Y20536D01*
X340144Y19307D01*
X340144Y16850D01*
X341373Y15621D01*
X343830Y15621D01*
X345059Y16850D01*
X337575Y18078D02*
X337575Y22993D01*
X337575Y18078D02*
X335117Y15621D01*
X332660Y18078D01*
X332660Y22993D01*
X375704Y21765D02*
X376933Y22993D01*
X379390Y22993D01*
X380619Y21765D01*
X380619Y16850D01*
X379390Y15621D01*
X376933Y15621D01*
X375704Y16850D01*
X375704Y19307D01*
X378162Y19307D01*
X373135Y15621D02*
X373135Y22993D01*
X368220Y15621D01*
X368220Y22993D01*
X365651Y22993D02*
X365651Y15621D01*
X361965Y15621D01*
X360736Y16850D01*
X360736Y21765D01*
X361965Y22993D01*
X365651Y22993D01*
D10*
X25400Y152400D02*
X25400Y177800D01*
X25400Y203200D01*
X25400Y223520D01*
X127000Y223520D01*
X127000Y152400D01*
X25400Y152400D01*
X25400Y177800D02*
X25709Y177804D01*
X26018Y177815D01*
X26327Y177834D01*
X26635Y177860D01*
X26943Y177894D01*
X27249Y177935D01*
X27555Y177984D01*
X27859Y178040D01*
X28161Y178104D01*
X28462Y178175D01*
X28762Y178253D01*
X29059Y178338D01*
X29354Y178431D01*
X29647Y178531D01*
X29937Y178638D01*
X30224Y178752D01*
X30509Y178873D01*
X30791Y179001D01*
X31069Y179135D01*
X31344Y179277D01*
X31616Y179425D01*
X31883Y179580D01*
X32147Y179741D01*
X32407Y179908D01*
X32663Y180082D01*
X32915Y180262D01*
X33162Y180448D01*
X33404Y180640D01*
X33642Y180838D01*
X33875Y181041D01*
X34103Y181251D01*
X34325Y181465D01*
X34543Y181685D01*
X34755Y181911D01*
X34961Y182141D01*
X35162Y182376D01*
X35357Y182616D01*
X35546Y182861D01*
X35729Y183110D01*
X35906Y183364D01*
X36076Y183622D01*
X36241Y183884D01*
X36399Y184150D01*
X36550Y184420D01*
X36695Y184693D01*
X36833Y184970D01*
X36964Y185250D01*
X37088Y185533D01*
X37206Y185819D01*
X37316Y186108D01*
X37420Y186399D01*
X37516Y186693D01*
X37605Y186989D01*
X37687Y187288D01*
X37762Y187588D01*
X37829Y187890D01*
X37889Y188193D01*
X37941Y188498D01*
X37986Y188804D01*
X38024Y189111D01*
X38054Y189419D01*
X38076Y189727D01*
X38092Y190036D01*
X38099Y190345D01*
X38099Y190655D01*
X38092Y190964D01*
X38076Y191273D01*
X38054Y191581D01*
X38024Y191889D01*
X37986Y192196D01*
X37941Y192502D01*
X37889Y192807D01*
X37829Y193110D01*
X37762Y193412D01*
X37687Y193712D01*
X37605Y194011D01*
X37516Y194307D01*
X37420Y194601D01*
X37316Y194892D01*
X37206Y195181D01*
X37088Y195467D01*
X36964Y195750D01*
X36833Y196030D01*
X36695Y196307D01*
X36550Y196580D01*
X36399Y196850D01*
X36241Y197116D01*
X36076Y197378D01*
X35906Y197636D01*
X35729Y197890D01*
X35546Y198139D01*
X35357Y198384D01*
X35162Y198624D01*
X34961Y198859D01*
X34755Y199089D01*
X34543Y199315D01*
X34325Y199535D01*
X34103Y199749D01*
X33875Y199959D01*
X33642Y200162D01*
X33404Y200360D01*
X33162Y200552D01*
X32915Y200738D01*
X32663Y200918D01*
X32407Y201092D01*
X32147Y201259D01*
X31883Y201420D01*
X31616Y201575D01*
X31344Y201723D01*
X31069Y201865D01*
X30791Y201999D01*
X30509Y202127D01*
X30224Y202248D01*
X29937Y202362D01*
X29647Y202469D01*
X29354Y202569D01*
X29059Y202662D01*
X28762Y202747D01*
X28462Y202825D01*
X28161Y202896D01*
X27859Y202960D01*
X27555Y203016D01*
X27249Y203065D01*
X26943Y203106D01*
X26635Y203140D01*
X26327Y203166D01*
X26018Y203185D01*
X25709Y203196D01*
X25400Y203200D01*
X323800Y210400D02*
X382240Y210400D01*
X387400Y210400D01*
X323800Y210400D02*
X323800Y297850D01*
X387400Y297850D02*
X387400Y210400D01*
X387400Y297850D02*
X323800Y297850D01*
X382240Y296850D02*
X382240Y210400D01*
D13*
X375600Y289000D03*
D12*
X363575Y222608D02*
X356203Y222608D01*
X361118Y225065D02*
X363575Y222608D01*
X361118Y225065D02*
X363575Y227523D01*
X356203Y227523D01*
X363575Y231321D02*
X363575Y233778D01*
X363575Y231321D02*
X362347Y230092D01*
X357432Y230092D01*
X356203Y231321D01*
X356203Y233778D01*
X357432Y235007D01*
X362347Y235007D01*
X363575Y233778D01*
X363575Y241262D02*
X362347Y242491D01*
X363575Y241262D02*
X363575Y238805D01*
X362347Y237576D01*
X357432Y237576D01*
X356203Y238805D01*
X356203Y241262D01*
X357432Y242491D01*
X362347Y245060D02*
X363575Y246289D01*
X363575Y248746D01*
X362347Y249975D01*
X361118Y249975D01*
X359889Y248746D01*
X359889Y247518D01*
X359889Y248746D02*
X358660Y249975D01*
X357432Y249975D01*
X356203Y248746D01*
X356203Y246289D01*
X357432Y245060D01*
X357432Y252544D02*
X362347Y252544D01*
X363575Y253773D01*
X363575Y256231D01*
X362347Y257459D01*
X357432Y257459D01*
X356203Y256231D01*
X356203Y253773D01*
X357432Y252544D01*
X362347Y257459D01*
X362347Y260029D02*
X363575Y261257D01*
X363575Y263715D01*
X362347Y264943D01*
X361118Y264943D01*
X359889Y263715D01*
X359889Y262486D01*
X359889Y263715D02*
X358660Y264943D01*
X357432Y264943D01*
X356203Y263715D01*
X356203Y261257D01*
X357432Y260029D01*
X362347Y267513D02*
X363575Y268741D01*
X363575Y271199D01*
X362347Y272428D01*
X361118Y272428D01*
X359889Y271199D01*
X359889Y269970D01*
X359889Y271199D02*
X358660Y272428D01*
X357432Y272428D01*
X356203Y271199D01*
X356203Y268741D01*
X357432Y267513D01*
X363575Y278683D02*
X362347Y279912D01*
X363575Y278683D02*
X363575Y276226D01*
X362347Y274997D01*
X361118Y274997D01*
X359889Y276226D01*
X359889Y278683D01*
X358660Y279912D01*
X357432Y279912D01*
X356203Y278683D01*
X356203Y276226D01*
X357432Y274997D01*
X19945Y59235D02*
X18717Y58006D01*
X19945Y59235D02*
X19945Y61693D01*
X18717Y62921D01*
X17488Y62921D01*
X16259Y61693D01*
X16259Y60464D01*
X16259Y61693D02*
X15030Y62921D01*
X13802Y62921D01*
X12573Y61693D01*
X12573Y59235D01*
X13802Y58006D01*
X13802Y65491D02*
X12573Y65491D01*
X13802Y65491D02*
X13802Y66719D01*
X12573Y66719D01*
X12573Y65491D01*
X18717Y69233D02*
X19945Y70461D01*
X19945Y72919D01*
X18717Y74148D01*
X17488Y74148D01*
X16259Y72919D01*
X16259Y71690D01*
X16259Y72919D02*
X15030Y74148D01*
X13802Y74148D01*
X12573Y72919D01*
X12573Y70461D01*
X13802Y69233D01*
X12573Y76717D02*
X19945Y76717D01*
X15030Y76717D02*
X19945Y81632D01*
X16259Y77946D02*
X12573Y81632D01*
X442341Y240287D02*
X449713Y240287D01*
X446027Y236601D01*
X446027Y241516D01*
X448485Y244085D02*
X449713Y245314D01*
X449713Y247771D01*
X448485Y249000D01*
X447256Y249000D01*
X446027Y247771D01*
X446027Y246543D01*
X446027Y247771D02*
X444798Y249000D01*
X443570Y249000D01*
X442341Y247771D01*
X442341Y245314D01*
X443570Y244085D01*
X443570Y251569D02*
X448485Y251569D01*
X449713Y252798D01*
X449713Y255255D01*
X448485Y256484D01*
X443570Y256484D01*
X442341Y255255D01*
X442341Y252798D01*
X443570Y251569D01*
X448485Y256484D01*
X262633Y269621D02*
X262633Y276993D01*
X266319Y273307D01*
X261404Y273307D01*
X258835Y276993D02*
X253920Y276993D01*
X253920Y275765D01*
X258835Y270850D01*
X258835Y269621D01*
X251351Y270850D02*
X251351Y275765D01*
X250122Y276993D01*
X247665Y276993D01*
X246436Y275765D01*
X246436Y270850D01*
X247665Y269621D01*
X250122Y269621D01*
X251351Y270850D01*
X246436Y275765D01*
D11*
X316018Y447812D02*
X319916Y447812D01*
X321865Y445863D01*
X321865Y438067D01*
X319916Y436118D01*
X316018Y436118D01*
X314069Y438067D01*
X314069Y445863D01*
X316018Y447812D01*
X310171Y447812D02*
X310171Y438067D01*
X308222Y436118D01*
X304324Y436118D01*
X302375Y438067D01*
X302375Y447812D01*
X294579Y447812D02*
X294579Y436118D01*
X298477Y447812D02*
X290681Y447812D01*
X286783Y434169D02*
X278987Y434169D01*
X275089Y436118D02*
X275089Y447812D01*
X269242Y447812D01*
X267293Y445863D01*
X267293Y441965D01*
X269242Y440016D01*
X275089Y440016D01*
X263395Y436118D02*
X255599Y436118D01*
X263395Y436118D02*
X255599Y443914D01*
X255599Y445863D01*
X257548Y447812D01*
X261446Y447812D01*
X263395Y445863D01*
X218316Y447812D02*
X214418Y447812D01*
X218316Y447812D02*
X220265Y445863D01*
X220265Y438067D01*
X218316Y436118D01*
X214418Y436118D01*
X212469Y438067D01*
X212469Y445863D01*
X214418Y447812D01*
X208571Y447812D02*
X208571Y438067D01*
X206622Y436118D01*
X202724Y436118D01*
X200775Y438067D01*
X200775Y447812D01*
X192979Y447812D02*
X192979Y436118D01*
X196877Y447812D02*
X189081Y447812D01*
X185183Y434169D02*
X177387Y434169D01*
X173489Y436118D02*
X173489Y447812D01*
X167642Y447812D01*
X165693Y445863D01*
X165693Y441965D01*
X167642Y440016D01*
X173489Y440016D01*
X161795Y445863D02*
X159846Y447812D01*
X155948Y447812D01*
X153999Y445863D01*
X153999Y443914D01*
X155948Y441965D01*
X157897Y441965D01*
X155948Y441965D02*
X153999Y440016D01*
X153999Y438067D01*
X155948Y436118D01*
X159846Y436118D01*
X161795Y438067D01*
D12*
X441071Y141227D02*
X448443Y141227D01*
X444757Y137541D01*
X444757Y142456D01*
X447215Y145025D02*
X448443Y146254D01*
X448443Y148711D01*
X447215Y149940D01*
X445986Y149940D01*
X444757Y148711D01*
X444757Y147483D01*
X444757Y148711D02*
X443528Y149940D01*
X442300Y149940D01*
X441071Y148711D01*
X441071Y146254D01*
X442300Y145025D01*
X442300Y152509D02*
X447215Y152509D01*
X448443Y153738D01*
X448443Y156195D01*
X447215Y157424D01*
X442300Y157424D01*
X441071Y156195D01*
X441071Y153738D01*
X442300Y152509D01*
X447215Y157424D01*
X260093Y192151D02*
X260093Y199523D01*
X263779Y195837D01*
X258864Y195837D01*
X256295Y199523D02*
X251380Y199523D01*
X251380Y198295D01*
X256295Y193380D01*
X256295Y192151D01*
X248811Y193380D02*
X248811Y198295D01*
X247582Y199523D01*
X245125Y199523D01*
X243896Y198295D01*
X243896Y193380D01*
X245125Y192151D01*
X247582Y192151D01*
X248811Y193380D01*
X243896Y198295D01*
D10*
X323800Y108800D02*
X382240Y108800D01*
X387400Y108800D01*
X323800Y108800D02*
X323800Y196250D01*
X387400Y196250D02*
X387400Y108800D01*
X387400Y196250D02*
X323800Y196250D01*
X382240Y195250D02*
X382240Y108800D01*
D13*
X375600Y187400D03*
D12*
X361575Y131008D02*
X354203Y131008D01*
X359118Y133465D02*
X361575Y131008D01*
X359118Y133465D02*
X361575Y135923D01*
X354203Y135923D01*
X361575Y139721D02*
X361575Y142178D01*
X361575Y139721D02*
X360347Y138492D01*
X355432Y138492D01*
X354203Y139721D01*
X354203Y142178D01*
X355432Y143407D01*
X360347Y143407D01*
X361575Y142178D01*
X361575Y149662D02*
X360347Y150891D01*
X361575Y149662D02*
X361575Y147205D01*
X360347Y145976D01*
X355432Y145976D01*
X354203Y147205D01*
X354203Y149662D01*
X355432Y150891D01*
X360347Y153460D02*
X361575Y154689D01*
X361575Y157146D01*
X360347Y158375D01*
X359118Y158375D01*
X357889Y157146D01*
X357889Y155918D01*
X357889Y157146D02*
X356660Y158375D01*
X355432Y158375D01*
X354203Y157146D01*
X354203Y154689D01*
X355432Y153460D01*
X355432Y160944D02*
X360347Y160944D01*
X361575Y162173D01*
X361575Y164631D01*
X360347Y165859D01*
X355432Y165859D01*
X354203Y164631D01*
X354203Y162173D01*
X355432Y160944D01*
X360347Y165859D01*
X360347Y168429D02*
X361575Y169657D01*
X361575Y172115D01*
X360347Y173343D01*
X359118Y173343D01*
X357889Y172115D01*
X357889Y170886D01*
X357889Y172115D02*
X356660Y173343D01*
X355432Y173343D01*
X354203Y172115D01*
X354203Y169657D01*
X355432Y168429D01*
X360347Y175913D02*
X361575Y177141D01*
X361575Y179599D01*
X360347Y180828D01*
X359118Y180828D01*
X357889Y179599D01*
X357889Y178370D01*
X357889Y179599D02*
X356660Y180828D01*
X355432Y180828D01*
X354203Y179599D01*
X354203Y177141D01*
X355432Y175913D01*
X361575Y187083D02*
X360347Y188312D01*
X361575Y187083D02*
X361575Y184626D01*
X360347Y183397D01*
X359118Y183397D01*
X357889Y184626D01*
X357889Y187083D01*
X356660Y188312D01*
X355432Y188312D01*
X354203Y187083D01*
X354203Y184626D01*
X355432Y183397D01*
M02*
