G04 EAGLE Gerber RS-274X export*
G75*
%MOMM*%
%FSLAX34Y34*%
%LPD*%
%INSoldermask Bottom*%
%IPPOS*%
%AMOC8*
5,1,8,0,0,1.08239X$1,22.5*%
G01*
%ADD10R,1.723200X1.983200*%
%ADD11R,2.006200X1.803200*%
%ADD12R,1.803200X2.006200*%
%ADD13C,1.611200*%
%ADD14C,2.133600*%
%ADD15C,2.203200*%
%ADD16R,1.727200X1.727200*%
%ADD17C,1.727200*%
%ADD18C,1.903200*%
%ADD19R,0.803200X2.403200*%
%ADD20C,0.959600*%
%ADD21R,1.209600X1.209600*%
%ADD22C,0.914400*%


D10*
X402050Y279400D03*
X402050Y254000D03*
X402050Y228600D03*
X309150Y228600D03*
X309150Y254000D03*
X309150Y279400D03*
D11*
X60960Y77220D03*
X60960Y105660D03*
X35560Y77220D03*
X35560Y105660D03*
X86360Y105660D03*
X86360Y77220D03*
X426720Y258060D03*
X426720Y229620D03*
D12*
X244860Y254000D03*
X273300Y254000D03*
D13*
X203200Y314960D03*
X203200Y340360D03*
X203200Y289560D03*
D14*
X48260Y25860D03*
X73660Y25860D03*
X99060Y25860D03*
X124460Y25860D03*
X124460Y51260D03*
X99060Y51260D03*
X73660Y51260D03*
X48260Y51260D03*
D15*
X406611Y411230D03*
X355811Y411230D03*
X305011Y411230D03*
X254211Y411230D03*
X203411Y411230D03*
X152611Y411230D03*
D16*
X363000Y334920D03*
X313000Y334920D03*
X415000Y40920D03*
X261000Y40920D03*
D11*
X426720Y156460D03*
X426720Y128020D03*
D12*
X244860Y177800D03*
X273300Y177800D03*
D10*
X402050Y177800D03*
X402050Y152400D03*
X402050Y127000D03*
X309150Y127000D03*
X309150Y152400D03*
X309150Y177800D03*
D13*
X203200Y203200D03*
X203200Y228600D03*
X203200Y177800D03*
D17*
X114300Y274320D02*
X99060Y274320D01*
X99060Y299720D02*
X114300Y299720D01*
X114300Y325120D02*
X99060Y325120D01*
D18*
X373100Y36560D03*
X338100Y36560D03*
D19*
X44450Y233960D03*
X69850Y141960D03*
X31750Y233960D03*
X57150Y233960D03*
X69850Y233960D03*
X57150Y141960D03*
X82550Y141960D03*
X95250Y141960D03*
X95250Y233960D03*
X120650Y141960D03*
X82550Y233960D03*
X107950Y233960D03*
X107950Y141960D03*
X120650Y233960D03*
X44450Y141960D03*
X31750Y141960D03*
D17*
X284480Y358140D02*
X284480Y373380D01*
X335280Y373380D02*
X335280Y358140D01*
D18*
X29480Y421080D03*
X29480Y386080D03*
X29480Y351080D03*
D17*
X83820Y358140D02*
X99060Y358140D01*
X99060Y383540D02*
X83820Y383540D01*
X83820Y408940D02*
X99060Y408940D01*
X99060Y434340D02*
X83820Y434340D01*
D20*
X116840Y111760D03*
D21*
X198120Y91440D03*
D20*
X35560Y163580D03*
D22*
X15240Y132080D03*
X106680Y213360D03*
D20*
X89150Y185670D03*
X60960Y309880D03*
X45720Y309880D03*
X30480Y299720D03*
X20320Y320040D03*
M02*
