M48
;GenerationSoftware,Autodesk,EAGLE,9.5.2*%
;CreationDate,2020-01-07T16:02:00Z*%
FMAT,2
ICI,OFF
METRIC,TZ,000.000
T7C0.305
T6C0.350
T5C0.600
T4C0.900
T3C1.016
T2C1.100
T1C1.300
%
G90
M71
T1
X15261Y41123
X20341Y41123
X40661Y41123
X25421Y41123
X35581Y41123
X30501Y41123
T2
X2948Y35108
X2948Y38608
X33810Y3656
X37310Y3656
X2948Y42108
T3
X33528Y36576
X9144Y35814
X9144Y38354
X9144Y40894
X9144Y43434
X9906Y5126
X4826Y2586
X7366Y2586
X9906Y2586
X12446Y2586
X12446Y5126
X7366Y5126
X4826Y5126
X10668Y29972
X36300Y33492
X31300Y33492
X41500Y4092
X26100Y4092
X10668Y27432
X10668Y32512
X28448Y36576
T4
X20320Y28956
X20320Y20320
X20320Y22860
X20320Y17780
X20320Y31496
X20320Y34036
T5
X19812Y9144
T6
X3556Y16358
X2032Y32004
X3048Y29972
X11684Y11176
X4572Y30988
X8915Y18567
X6096Y30988
T7
X1524Y13208
X10668Y21336
M30